<?xml version="1.0" encoding="UTF-8" standalone="no"?>
<!-- Generator: Adobe Illustrator 16.0.3, SVG Export Plug-In . SVG Version: 6.00 Build 0)  -->
<!DOCTYPE svg  PUBLIC '-//W3C//DTD SVG 1.1//EN'  'http://www.w3.org/Graphics/SVG/1.1/DTD/svg11.dtd'>
<svg id="Layer_1" style="enable-background:new 0 0 512 512" xmlns="http://www.w3.org/2000/svg" xml:space="preserve" height="512px" viewBox="0 0 512 512" width="512px" version="1.1" y="0px" x="0px" xmlns:xlink="http://www.w3.org/1999/xlink">
<style type="text/css">
<![CDATA[
	.st0{fill:#127274;}
	.st1{fill:#14B6B9;}
	.st2{fill:#EF4823;}
	.st3{fill:#BCBCBC;}
	.st4{fill:#F6851F;}
	.st5{fill:#C0E6ED;}
	.st6{fill:#C56528;}
	.st7{fill:#FCBF95;}
	.st8{fill:#FEBF10;}
	.st9{fill:#FFFFFF;}
	.st10{fill:#9FDADF;}
	.st11{fill:#010101;}
	.st12{fill:#3AB37C;}
	.st13{fill:#D6E5E5;}
	.st14{fill:#71C598;}
	.st15{fill:#74CCCF;}
]]>
</style>
			<path class="st2" d="m334.52 392.97c-0.999-3.211 1.089-7.249 4.768-7.303 6.91-0.103 13.632-1.396 20.386-2.564-7.657-9.373-16.27-17.725-24.386-26.799-4.441-4.967-8.229-10.081-10.899-16.212-0.765-1.755-1.438-3.784-2.45-5.513-0.176 0.107-0.392 0.248-0.65 0.439-6.485 4.779-10.927 12.457-15.314 19.076-6.002 9.053-12.905 17.597-19.836 26.029 10.531 1.629 24.404 4.885 21.972 14.076-0.707 2.674-2.798 3.979-4.97 4.17 2.988 22.896 7.426 45.622 8.815 68.69 9.296 0.491 18.794-0.218 28.055-0.39 1.389-0.025 2.82-0.016 4.193-0.261 0.136-0.024 0.256-0.099 0.342-0.16-0.01-0.224 0.314-1.4 0.376-1.899 0.165-1.326 0.261-2.635 0.28-3.971 0.168-11.535-1.814-22.692-4.403-33.894-2.57-11.06-2.93-22.73-6.29-33.54z"/>
			<path class="st8" d="m228.23 437.62c-4.969-4.859-4.564-12.026-4.094-18.47 1.349-18.472 1.14-36.948 1.094-55.471-0.696-1.286-0.966-2.822-0.522-4.356-0.199-0.037-0.429-0.1-0.706-0.23-0.103-0.006-0.183-0.01-0.21-0.01-1.515 0.002-3.028 0.047-4.542 0.126-4.062 0.211-8.117 0.524-12.17 0.86-6.286 0.521-12.623 1.321-18.939 1.523 0.206 24.166 5.896 47.949 6.052 72.141 0.015 2.26-1.184 5.059-3.667 5.615-7.344 1.646-14.975 3.373-21.951 6.416 6.482 5.672 15.221 8.916 21.776 14.43 7.188 6.047 12.528 13.924 19.126 20.489 9.511-14.048 23.167-24.663 33.133-38.335-4.88-1.26-10.54-0.97-14.38-4.72z"/>
			<path class="st2" d="m224.27 359.1c0.148 0.064 0.301 0.108 0.454 0.158 0.013-0.043 0.024-0.087 0.039-0.131-0.13 0-0.31-0.01-0.49-0.03z"/>
			<path class="st2" d="m221.77 356.6c0.636 1.426 1.519 2.151 2.234 2.492 0.079 0.004 0.171 0.01 0.267 0.016-1.02-0.45-1.92-1.27-2.5-2.51z"/>
			<path class="st13" d="m483.48 215.67c-13.886-16.121-35.875-17.902-53.088-28.844-8.711-5.537-15.881-12.979-18.521-23.262-3.557-13.848-2.26-28.478-4.681-42.545-2.266-13.168-7.487-26.758-16.822-36.593-7.822-8.238-17.441-14.315-28.065-18.3-10.711-4.018-22.387-6.227-33.839-6.219-11.133 0.008-23.292 1.112-33.176 6.695-20.227 11.427-29.2 33.939-37.553 54.418-1.766 4.33-8.882 3.847-10.118-0.629-2.31-8.359-6.796-15.825-13.185-21.717-21.16-19.512-56.03-24.739-82.92-15.673-12.54 4.228-24.367 11.979-30.112 24.318-3.27 7.02-4.252 14.469-4.073 22.158 0.328 14.1 2.121 28.497 9.045 41.024 2.086 3.773-0.547 9.893-5.609 8.474-22.671-6.353-53.698-8.934-71.567 9.86-10.406 10.942-14.303 26.451-9.138 40.814 5.117 14.229 15.402 25.72 26.386 35.795 3.497 3.207 1.604 9.217-3.207 9.617-12.664 1.054-22.831 10.22-23.908 23.163-0.317 3.816 1.605 8.405 3.088 11.804 0.623 1.429 1.312 2.858 2.158 4.182 0.261-0.054 0.528-0.098 0.814-0.119 46.707-3.468 93.544-2.071 140.32-1.625 46.11 0.44 91.94-1.344 137.93-4.574 32.516-2.284 65.076-4.441 97.689-3.705 24.477 0.553 50.343-3.728 65.04-25.577 12.86-19.11 12.34-45.26-2.88-62.93z"/>
			<path d="m498.16 217.44c-5.349-9.486-13.717-17.303-23.162-22.604-8.825-4.954-18.664-7.959-27.95-11.903-8.597-3.652-17.319-8.123-22.223-16.417-3.312-5.601-3.82-12.531-4.209-18.858-0.462-7.533-0.982-14.99-1.771-22.497-2.325-22.147-12.292-43.319-30.157-57.012-15.769-12.085-35.911-18.022-55.564-19.028-19.667-1.007-39.734 2.689-54.804 16.142-11.809 10.541-19.251 24.653-25.511 39.07-12.611-22.049-39.601-33.552-64.335-35.88-28.761-2.707-63.248 5.949-76.934 33.977-4.274 8.755-5.319 18.281-5.188 27.898 0.163 12.049 1.798 24.09 5.905 35.336-25.375-4.953-53.664-2.666-72.263 16.893-12.143 12.77-15.647 31.15-11.23 47.842 3.671 13.869 12.895 25.917 23.027 36.209-13.859 5.428-25.146 18.709-23.316 34.391 1.266 10.832 11.151 35.283 25.002 23.596 63.513-4.058 127.19 0.234 190.76-1.469 32.723-0.878 65.309-3.299 97.963-5.477 16.435-1.097 32.883-2.005 49.35-2.439 14.589-0.386 29.224 0.509 43.795-0.18 24.988-1.18 47.859-11.17 61.644-32.723 12.52-19.56 12.44-44.89 1.18-64.87zm-11.8 61.17c-14.697 21.85-40.562 26.13-65.04 25.577-32.613-0.736-65.173 1.421-97.689 3.705-45.989 3.23-91.82 5.015-137.93 4.574-46.78-0.446-93.617-1.843-140.32 1.625-0.286 0.021-0.554 0.065-0.814 0.119-0.846-1.323-1.535-2.753-2.158-4.182-1.482-3.398-3.405-7.987-3.088-11.804 1.077-12.943 11.245-22.109 23.908-23.163 4.811-0.4 6.704-6.41 3.207-9.617-10.983-10.075-21.269-21.565-26.386-35.795-5.165-14.363-1.268-29.872 9.138-40.814 17.869-18.794 48.896-16.213 71.567-9.86 5.062 1.419 7.695-4.7 5.609-8.474-6.924-12.527-8.717-26.925-9.045-41.024-0.179-7.689 0.804-15.139 4.073-22.158 5.75-12.36 17.57-20.112 30.11-24.34 26.89-9.066 61.758-3.84 82.924 15.678 6.389 5.892 10.875 13.357 13.185 21.717 1.236 4.476 8.353 4.959 10.118 0.629 8.353-20.479 17.326-42.991 37.553-54.418 9.884-5.583 22.043-6.688 33.176-6.695 11.452-0.008 23.128 2.201 33.839 6.219 10.624 3.984 20.243 10.062 28.065 18.3 9.335 9.835 14.557 23.425 16.822 36.593 2.42 14.067 1.124 28.697 4.681 42.545 2.64 10.283 9.81 17.725 18.521 23.262 17.214 10.941 39.202 12.723 53.088 28.844 15.23 17.66 15.75 43.81 2.89 62.93z"/>
			<path d="m254.34 436.02c-5.385-3.793-11.539-3.756-17.496-5.998-4.157-1.562-1.66-11.979-1.315-15.376 1.902-18.768 0.666-38.067 0.666-56.917 0-3.033-1.918-4.586-4.149-4.85-0.044-0.181-0.081-0.359-0.145-0.545-2.342-6.833-15.09-4.046-20.291-3.664-8.746 0.641-17.549 1.908-26.324 1.998-0.529 0.006-1.008 0.078-1.449 0.195-3.009-0.225-6.49 1.786-6.612 5.713-0.765 24.601 5.051 48.742 5.899 73.252-9.202 2.178-18.323 4.881-26.489 9.765-2.525 1.51-3.156 5.292-1.484 7.636 6.782 9.502 17.776 13.702 26.9 20.411 9.765 7.181 15.563 18.204 25.028 25.646 2.852 2.242 6.801 1.551 8.558-1.686 10.159-18.727 28.716-30.996 40-49 1.18-1.89 0.54-5.27-1.31-6.57zm-44.86 44.66c-6.598-6.565-11.938-14.442-19.126-20.489-6.556-5.514-15.294-8.758-21.776-14.43 6.977-3.043 14.607-4.77 21.951-6.416 2.483-0.557 3.682-3.355 3.667-5.615-0.156-24.191-5.846-47.975-6.052-72.141 6.316-0.202 12.653-1.002 18.939-1.523 4.053-0.336 8.108-0.649 12.17-0.86 1.514-0.079 3.027-0.124 4.542-0.126 0.027 0 0.107 0.004 0.21 0.01-0.716-0.341-1.599-1.066-2.234-2.492 0.579 1.246 1.475 2.058 2.501 2.508 0.177 0.01 0.36 0.021 0.493 0.027-0.015 0.044-0.026 0.088-0.039 0.131-0.152-0.05-0.306-0.094-0.454-0.158-0.096-0.006-0.188-0.012-0.267-0.016 0.277 0.131 0.507 0.193 0.706 0.23-0.443 1.534-0.174 3.07 0.522 4.356 0.046 18.522 0.255 36.999-1.094 55.471-0.47 6.443-0.875 13.61 4.094 18.47 3.836 3.754 9.495 3.466 14.379 4.729-9.96 13.68-23.62 24.29-33.13 38.34z"/>
			<path d="m374.27 384.08c-9.782-13.788-22.167-24.835-33.078-37.593-4.558-5.329-6.807-11.513-9.979-17.642-2.514-4.853-6.901-6.521-12.026-5.063-8.969 2.552-15.569 14.132-20.37 21.334-8.252 12.379-17.829 23.898-27.237 35.409-2.606 3.189-1.126 8.224 3.082 9.029 4.14 0.793 8.315 1.385 12.451 2.203 1.423 0.281 2.839 0.594 4.247 0.939 3.104 26.654 8.754 53.014 9.866 79.883 0.094 2.262 2.094 4.748 4.436 4.975 11.95 1.16 24.159 0.297 36.148 0.073 7.078-0.132 12.222-3.125 13.769-10.329 2.461-11.461-0.149-24.592-2.494-35.825-1.49-7.142-3.352-14.171-4.331-21.41-0.627-4.644-1.199-9.272-2.124-13.839 7.879-0.836 15.602-2.705 23.505-3.584 3.99-0.45 6.6-5.09 4.13-8.57zm-34.98 1.59c-3.679 0.054-5.767 4.092-4.768 7.303 3.361 10.805 3.725 22.475 6.277 33.517 2.589 11.201 4.571 22.358 4.403 33.894-0.019 1.336-0.115 2.645-0.28 3.971-0.062 0.499-0.386 1.676-0.376 1.899-0.085 0.062-0.206 0.136-0.342 0.16-1.373 0.245-2.804 0.235-4.193 0.261-9.261 0.172-18.759 0.881-28.055 0.39-1.389-23.068-5.827-45.794-8.815-68.69 2.172-0.191 4.264-1.496 4.97-4.17 2.432-9.191-11.441-12.447-21.972-14.076 6.931-8.433 13.834-16.977 19.836-26.029 4.388-6.619 8.829-14.297 15.314-19.076 0.259-0.191 0.475-0.332 0.65-0.439 1.012 1.729 1.686 3.758 2.45 5.513 2.67 6.131 6.458 11.245 10.899 16.212 8.116 9.074 16.729 17.426 24.386 26.799-6.76 1.18-13.48 2.48-20.39 2.58z"/>
</svg>
