<?xml version="1.0" encoding="UTF-8" standalone="no"?>
<!-- Generator: Adobe Illustrator 16.0.3, SVG Export Plug-In . SVG Version: 6.00 Build 0)  -->
<!DOCTYPE svg  PUBLIC '-//W3C//DTD SVG 1.1//EN'  'http://www.w3.org/Graphics/SVG/1.1/DTD/svg11.dtd'>
<svg id="Layer_1" style="enable-background:new 0 0 512 512" xmlns="http://www.w3.org/2000/svg" xml:space="preserve" height="512px" viewBox="0 0 512 512" width="512px" version="1.1" y="0px" x="0px" xmlns:xlink="http://www.w3.org/1999/xlink">
<style type="text/css">
<![CDATA[
	.st0{fill:#127274;}
	.st1{fill:#14B6B9;}
	.st2{fill:#1E4384;}
	.st3{fill:#ED2224;}
	.st4{fill:#EF4823;}
	.st5{fill:#BCBCBC;}
	.st6{fill:#231F20;}
	.st7{fill:#F26824;}
	.st8{fill:#F3AD20;}
	.st9{fill:#F6851F;}
	.st10{fill:#C56528;}
	.st11{fill:#FCBF95;}
	.st12{fill:#FEBF10;}
	.st13{fill:none;}
	.st14{fill:#010101;}
	.st15{fill:#D4E2A9;}
	.st16{fill:#3AB37C;}
	.st17{fill:#085084;}
	.st18{fill:#D6E5E5;}
	.st19{fill:#71C598;}
	.st20{fill:#73A1B2;}
	.st21{fill:#74CCCF;}
]]>
</style>
			<path class="st21" d="m168.07 321.02c-4.105-8.203-11.482-12.563-20.383-14.193-14.74-2.699-30.437-2.5-45.365-2.222-12.592 0.234-25.162 0.919-37.725 1.775-7.214 11.615-3.414 26.146-2.359 38.964 0.646 7.851 0.755 15.712 0.896 23.584 0.123 6.888-0.241 14.173 1.541 20.884 4.895 18.421 22.072 23.522 39.101 25.823 9.408 1.271 18.902 1.834 28.291 3.265 8.968 1.366 24.911 3.315 30.853-5.601 7.566-11.354 4.127-27.265 5.75-40.1 1.148-9.077 2.307-18.271 2.675-27.416 0.32-8.05 0.44-17.3-3.27-24.74z"/>
			<path class="st0" d="m263.17 213.4c0.81-7.062 3.174-16.234 0.647-23.15-1.772-4.852-9.22-5.018-13.931-5.242 0.482 15.402 2.605 30.888 1.61 46.265-0.683 10.566-2.44 22.169-0.191 32.767 0.596 0.354 1.103 0.839 1.482 1.442 0.312-0.03 0.638-0.043 0.985-0.022 3.369 0.21 6.619 0.353 9.873-0.066 0.289-8.51 0.055-17.018-0.289-25.529-0.36-8.77-1.19-17.74-0.19-26.47z"/>
			<path class="st1" d="m333.11 104.38c-1.418-9.762-1.489-19.825-3.335-29.494-2.248-11.771-7.531-20.874-19.861-24.01-13.681-3.479-28.267-1.043-42.222-1.321-26.557-0.527-54.693-5.068-79.727 5.993-1.047 22.961 0.771 45.953-0.459 68.911 0.228 0.875 0.182 1.887-0.258 3.017-2.682 6.877-4.398 14.852 2.16 20.024 5.355 4.224 13.295 5.544 19.889 6.097 9.654 0.81 19.148-0.36 28.794-0.215 14.87 0.222 29.528 2.664 44.329 3.814 12.984 1.01 30.142 2.607 41.904-4.24 7.42-4.319 10.592-11.858 11.045-20.214 0.53-9.51-0.88-18.97-2.25-28.36z"/>
			<path class="st0" d="m182.18 201.82c-4.238-7.162-10.666 0.215-14.188 4.543-3.156 3.878-5.941 8.035-9.062 11.94-3.218 4.026-7.432 7.33-11.389 10.599-8.75 7.227-17.435 14.375-25.168 22.718-1.396 1.506-2.924 3.561-4.572 5.571 5.173 7.287 11.673 11.553 20.018 5.682 9.217-6.484 15.086-16.733 23.057-24.554 3.922-3.845 8.248-6.709 12.717-9.854 3.229-2.272 8.643-5.563 9.887-9.578 1.63-5.28 1.58-12.18-1.31-17.07z"/>
			<path class="st0" d="m392.34 243.77c-7.257-4.652-14.044-9.813-21.083-14.797-14.697-10.405-30.996-19.953-41.455-34.964-0.861 0.226-1.848 0.209-2.942-0.152-3.624-1.194-9.44 0.587-8.972 5.329 0.312 3.168 2.928 5.623 5.24 7.545 6.798 5.648 14.17 10.627 21.039 16.205 9.357 7.603 19.431 15.043 28.121 23.392 6.145 5.902 11.617 8.459 20.086 5.837 1.814-0.562 3.65-1.148 5.252-2.203 0.443-0.29 0.941-0.576 1.305-0.979-1.66-2.17-4.38-3.8-6.6-5.22z"/>
			<path class="st21" d="m467.88 335.41c-0.162-8.461-0.807-17.825-5.482-25.168-5.887-9.243-16.483-11.795-26.898-11.681-14.31 0.157-28.555 3.779-42.879 2.788-10.523-0.729-23.766-3.753-31.682 5.137-1.101 1.235-2.365 1.752-3.601 1.763-0.011 14.409 3.487 28.575 2.822 43.007-0.62 13.479-3.647 28.752 1.228 41.771 6.478 17.303 28.423 18.523 44.109 18.723 9.412 0.119 18.756-0.026 28.156 0.485 11.82 0.645 24.418-0.216 30.125-12.376 5.375-11.45 3.324-25.019 3.279-37.242-0.04-9.08 0.99-18.13 0.82-27.21z"/>
			<path class="st21" d="m323 325.9c-0.992-8.881-5.191-16.16-14.17-18.589-8.734-2.361-17.919-1.796-26.87-1.619-24.982 0.493-51.819-6-73.919 8.997-0.648 0.438-1.289 0.707-1.914 0.843-1.182 10.004 0.102 20.304 1.582 30.192 1.428 9.53 2.661 19.055 3.875 28.61 1.064 8.374 2.428 16.727 3.121 25.144 0.311 3.763 0.688 7.85 0.454 11.818 6.095 6.309 15.353 7.07 23.757 6.74 10.078-0.398 19.967-2.258 29.93-3.675 9.102-1.295 17.672-0.459 26.796-0.024 6.933 0.33 16.638 1.077 21.711-4.773 3.319-3.826 4.038-9.248 4.151-14.124 0.171-7.369-0.213-14.728-0.188-22.096 0.06-15.77 3.45-31.69 1.69-47.45z"/>
			<path d="m343.87 102.55c-2.01-13.832-1.27-28.702-6.733-41.776-7.284-17.431-25.22-22.428-42.71-22.642-9.506-0.116-19 0.579-28.512 0.39-9.927-0.197-19.836-0.932-29.76-1.223-19.399-0.567-38.648 1.307-56.282 9.935-1.815 0.89-2.608 2.938-2.721 4.82-1.452 24.31 0.675 48.657-0.666 72.969-3.106 8.141-4.113 17.19 0.54 24.964 4.064 6.791 11.797 10.381 19.121 12.432 8.17 2.286 16.965 2.693 25.404 2.567 13.109-0.196 25.783-0.472 38.885 0.903 15.283 1.604 30.531 3.745 45.93 2.54 11.338-0.886 23.234-3.462 31.272-12.092 13.15-14.11 8.72-36.66 6.23-53.78zm-8.5 30.19c-0.453 8.355-3.625 15.895-11.045 20.214-11.763 6.848-28.92 5.25-41.904 4.24-14.801-1.15-29.459-3.593-44.329-3.814-9.646-0.146-19.14 1.024-28.794 0.215-6.594-0.553-14.533-1.873-19.889-6.097-6.559-5.173-4.842-13.147-2.16-20.024 0.439-1.13 0.485-2.142 0.258-3.017 1.229-22.958-0.588-45.95 0.459-68.911 25.033-11.062 53.17-6.521 79.727-5.993 13.955 0.278 28.541-2.157 42.222 1.321 12.33 3.136 17.613 12.238 19.861 24.01 1.846 9.669 1.917 19.732 3.335 29.494 1.36 9.39 2.77 18.85 2.25 28.36z"/>
			<path d="m330.5 311.96c-3.534-8.262-11.485-13.288-19.858-15.552-15.065-4.073-32.016-1.295-47.447-2.045-21.232-1.032-42.354-1.619-60.709 10.835-0.493 0.335-0.9 0.713-1.238 1.114-2.44-0.342-4.911 0.803-5.422 3.981-3.285 20.4 2.273 40.64 4.371 60.867 0.847 8.165 2.213 16.271 3.115 24.433 0.707 6.39 2.057 14.166-0.205 20.379-1.805 4.959 3.631 7.732 7.524 6.111 14.987 11.766 39.058 6.273 56.175 3.618 9.145-1.418 17.619-1.089 26.814-0.485 8.641 0.566 17.393 0.508 25.367-3.251 8.996-4.24 12.295-14.008 13.359-23.168 0.832-7.155 0.125-14.646 0.006-21.83-0.135-8.12 0.416-16.149 1.094-24.236 1.14-13.51 2.52-28-2.94-40.77zm-8.99 83.48c-0.113 4.876-0.832 10.298-4.151 14.124-5.073 5.851-14.778 5.104-21.711 4.773-9.124-0.435-17.694-1.271-26.796 0.024-9.963 1.417-19.852 3.276-29.93 3.675-8.404 0.33-17.662-0.432-23.757-6.74 0.233-3.969-0.144-8.056-0.454-11.818-0.693-8.417-2.057-16.77-3.121-25.144-1.214-9.556-2.447-19.08-3.875-28.61-1.48-9.889-2.764-20.188-1.582-30.192 0.625-0.136 1.266-0.404 1.914-0.843 22.1-14.997 48.937-8.504 73.919-8.997 8.951-0.177 18.136-0.742 26.87 1.619 8.979 2.429 13.178 9.708 14.17 18.589 1.758 15.753-1.631 31.678-1.685 47.444-0.03 7.39 0.36 14.74 0.19 22.11z"/>
			<path d="m478.07 360.04c0.555-23.575 5.248-55.99-20.723-68.328-17.504-8.316-38.191-2.254-56.561-1.318-16.23 0.827-35.133-5.728-47.643 8.32-0.086 0.098-0.16 0.197-0.237 0.296-2.951-0.293-6.292 1.504-6.486 5.342-0.806 15.808 3.29 31.267 2.731 47.051-0.504 14.201-2.719 28.349 0.924 42.343 5.158 19.814 24.689 26.576 42.982 28.39 9.271 0.919 18.627 0.625 27.928 0.597 10.761-0.032 21.445 1.808 32.066-0.771 12.105-2.938 20.064-13.196 23.305-24.736 3.39-12.07 1.42-24.86 1.71-37.18zm-14.3 39.82c-5.707 12.16-18.305 13.021-30.125 12.376-9.4-0.512-18.744-0.366-28.156-0.485-15.687-0.199-37.632-1.42-44.109-18.723-4.875-13.02-1.848-28.293-1.228-41.771 0.665-14.432-2.833-28.598-2.822-43.007 1.235-0.011 2.5-0.527 3.601-1.763 7.916-8.89 21.158-5.865 31.682-5.137 14.324 0.991 28.569-2.631 42.879-2.788 10.415-0.114 21.012 2.438 26.898 11.681 4.676 7.343 5.32 16.707 5.482 25.168 0.173 9.082-0.855 18.131-0.822 27.207 0.06 12.21 2.11 25.78-3.27 37.23z"/>
			<path d="m168.91 304.5c-13-10.751-32.246-10.288-48.174-10.797-21.449-0.686-42.93 0.688-64.311 2.249-5.305 0.388-6.559 6.745-3.809 9.622-4.304 10.114-3.35 21.571-2.201 32.479 0.812 7.734 1.395 15.4 1.572 23.18 0.189 8.275-0.158 16.734 0.884 24.959 1.247 9.834 5.052 19.047 12.247 26.008 6.453 6.242 15.148 9.682 23.713 11.846 9.302 2.35 18.99 3.131 28.508 4.101 10.363 1.057 20.627 2.85 31.086 2.524 11.848-0.367 22.419-5.988 26.805-17.426 4.903-12.788 3.084-26.856 4.443-40.222 2.23-21.98 8.97-52.21-10.77-68.52zm2.43 41.29c-0.368 9.146-1.526 18.339-2.675 27.416-1.623 12.835 1.816 28.746-5.75 40.1-5.941 8.916-21.885 6.967-30.853 5.601-9.389-1.431-18.883-1.993-28.291-3.265-17.028-2.301-34.206-7.402-39.101-25.823-1.782-6.711-1.418-13.996-1.541-20.884-0.142-7.872-0.25-15.733-0.896-23.584-1.055-12.817-4.854-27.349 2.359-38.964 12.562-0.856 25.133-1.541 37.725-1.775 14.929-0.278 30.625-0.478 45.365 2.222 8.9 1.63 16.277 5.99 20.383 14.193 3.72 7.43 3.6 16.68 3.28 24.76z"/>
			<path d="m270.69 180.81c-5.062-6.062-14.906-6.406-22.093-6.871-3.465-0.224-5.186 2.301-5.218 4.987-2.435 0.354-4.606 2.131-4.521 5.322 0.438 16.233 2.592 32.45 1.543 48.666-0.85 13.134-2.875 27.557 2.1 40.142 1.625 4.111 6.152 4.821 8.805 2.611 0.729 0.438 1.6 0.727 2.617 0.79 5.626 0.35 11.047 0.321 16.508-1.245 2.498-0.716 3.871-2.87 4.016-5.37 0.654-11.278 0.223-22.545-0.236-33.823-0.424-10.424-0.264-20.35 0.891-30.707 0.94-8.44 1.32-17.64-4.41-24.51zm-7.33 59.05c0.344 8.512 0.578 17.02 0.289 25.529-3.254 0.419-6.504 0.276-9.873 0.066-0.348-0.021-0.674-0.008-0.985 0.022-0.38-0.604-0.887-1.089-1.482-1.442-2.249-10.598-0.491-22.2 0.191-32.767 0.995-15.377-1.128-30.862-1.61-46.265 4.711 0.225 12.158 0.391 13.931 5.242 2.526 6.916 0.162 16.088-0.647 23.15-1.01 8.74-0.18 17.71 0.18 26.47z"/>
			<path d="m194.33 203c-1.912-8.029-7.476-14.866-16.071-15.412-10.961-0.697-18.921 11.844-24.487 19.42-7.964 10.841-19.599 18.167-29.463 27.142-5.138 4.675-9.88 9.779-14.499 14.963-0.729 0.819-1.429 1.663-2.146 2.493-1.249 1.441-3.24 2.586-1.668 2.034-0.494 0.349-0.955 0.789-1.365 1.339-0.163 0.199-0.312 0.41-0.446 0.631-1.716 2.712-0.136 6.551 2.547 7.896 0.503 2.498 2.718 3.727 5.026 3.706 5.776 6.619 13.074 10.948 22.646 9.201 11.635-2.121 19.814-13.859 26.854-22.203 4.591-5.442 9.365-10.457 15.274-14.455 5.16-3.492 10.328-7.086 14.271-11.973 5.5-6.81 5.48-16.68 3.54-24.79zm-10.85 15.89c-1.244 4.015-6.658 7.306-9.887 9.578-4.469 3.145-8.795 6.009-12.717 9.854-7.971 7.82-13.84 18.069-23.057 24.554-8.345 5.871-14.845 1.605-20.018-5.682 1.648-2.011 3.176-4.065 4.572-5.571 7.733-8.343 16.418-15.491 25.168-22.718 3.957-3.269 8.171-6.572 11.389-10.599 3.121-3.905 5.906-8.062 9.062-11.94 3.521-4.328 9.949-11.705 14.188-4.543 2.9 4.89 2.95 11.79 1.31 17.07z"/>
			<path d="m395.05 232.49c-10.578-6.484-20.477-14.418-30.694-21.493-10.235-7.087-20.794-15.169-27.304-25.983-1.816-3.02-5.072-3.167-7.443-1.809-10.634-3.483-21.609 4.061-22.721 14.94-1.037 10.177 9.101 17.068 16.172 22.241 11.797 8.629 22.855 18.223 34.053 27.601 9.189 7.699 17.306 17.188 30.309 16.259 7.333-0.523 20.561-3.907 22.305-12.514 1.91-9.52-7.74-14.99-14.69-19.25zm2.57 17.47c-1.602 1.055-3.438 1.641-5.252 2.203-8.469 2.622-13.941 0.065-20.086-5.837-8.69-8.349-18.764-15.789-28.121-23.392-6.869-5.578-14.241-10.557-21.039-16.205-2.312-1.922-4.928-4.377-5.24-7.545-0.469-4.742 5.348-6.523 8.972-5.329 1.095 0.361 2.081 0.378 2.942 0.152 10.459 15.011 26.758 24.559 41.455 34.964 7.039 4.983 13.826 10.145 21.083 14.797 2.217 1.421 4.937 3.058 6.591 5.213-0.34 0.41-0.84 0.7-1.29 0.99z"/>
</svg>
