<?xml version="1.0" encoding="UTF-8" standalone="no"?>
<!-- Generator: Adobe Illustrator 16.0.3, SVG Export Plug-In . SVG Version: 6.00 Build 0)  -->
<!DOCTYPE svg  PUBLIC '-//W3C//DTD SVG 1.1//EN'  'http://www.w3.org/Graphics/SVG/1.1/DTD/svg11.dtd'>
<svg id="Layer_1" style="enable-background:new 0 0 512 512" xmlns="http://www.w3.org/2000/svg" xml:space="preserve" height="512px" viewBox="0 0 512 512" width="512px" version="1.1" y="0px" x="0px" xmlns:xlink="http://www.w3.org/1999/xlink">
<style type="text/css">
<![CDATA[
	.st0{fill:#127274;}
	.st1{fill:#14B6B9;}
	.st2{fill:#1E4384;}
	.st3{fill:#ED2224;}
	.st4{fill:#EF4823;}
	.st5{fill:#BCBCBC;}
	.st6{fill:#231F20;}
	.st7{fill:#F26824;}
	.st8{fill:#F3AD20;}
	.st9{fill:#F6851F;}
	.st10{fill:#C56528;}
	.st11{fill:#FCBF95;}
	.st12{fill:#FEBF10;}
	.st13{fill:none;}
	.st14{fill:#010101;}
	.st15{fill:#D4E2A9;}
	.st16{fill:#3AB37C;}
	.st17{fill:#085084;}
	.st18{fill:#D6E5E5;}
	.st19{fill:#71C598;}
	.st20{fill:#73A1B2;}
	.st21{fill:#74CCCF;}
]]>
</style>
			<path class="st18" d="m484.71 255.88c-9.142-18.912-23.887-34.621-40.976-46.639-35.271-24.805-80.405-36.555-123.19-37.332-39.429-0.715-78.921 8.168-114.58 24.958-34.706 16.342-71.32 43.177-81.113 82.411-5.551 22.24-2.582 43.672 10.822 62.509 13.3 18.692 31.606 32.978 48.143 48.628 1.443 1.365 1.81 3.029 1.492 4.545 0.25 1.289-0.006 2.703-1.037 4.014-7.299 9.278-14.786 18.449-23.48 26.451-6.931 6.381-14.893 11.162-22.969 15.891 9.312-1.9 18.814-3.277 27.789-6.426 10.241-3.594 19.486-9.603 29.787-13.004 4.828-1.595 9.517-2.803 14.602-3.247 4.686-0.409 9.396-0.589 13.859-2.188 3.68-1.316 6.33 1.614 6.516 4.618 0.12 0.038 0.24 0.075 0.362 0.122 24.474 9.629 51.412 12.125 77.514 10.818 26.05-1.307 51.931-5.932 76.9-13.451 23.749-7.15 45.79-17.168 64.663-33.574 17.845-15.514 32.922-35.863 39.681-58.743 6.87-23.2 5.85-48.4-4.77-70.36zm-234.08 25.31c34.105-0.11 67.89-5.889 102-5.999 3.987-0.013 7.559 4.96 4.142 8.288-1.929 1.877-3.593 3.111-6.372 3.185-1.573 0.042-2.807-0.526-3.681-1.407-31.841 0.752-63.438 5.804-95.314 5.906-6.43 0.02-7.22-9.95-0.78-9.97zm24 21c28.014-0.068 55.977-2.875 83.995-1.5 2.942 0.145 6.291 2.493 5.293 5.939-0.918 3.173-2.658 4.207-5.111 6.191-3 2.426-6.188 0.43-7.206-2.428-25.412-0.598-50.786 1.708-76.201 1.77-6.41 0.01-7.21-9.96-0.76-9.97zm102.77 39.97c-32.35 0.195-63.646 10.305-95.996 10.5-6.421 0.039-7.215-9.934-0.77-9.973 30.441-0.186 59.95-9.143 90.28-10.363 0.373-0.086 0.776-0.137 1.216-0.137h4.5c6.4-0.01 7.22 9.93 0.77 9.97z"/>
			<path class="st21" d="m401.84 138.91c-7.072-11.523-17.357-20.566-28.375-28.229-26.46-18.409-55.93-31.795-88.09-35.858-27.988-3.537-56.465-1.797-84.253 2.648-21.646 3.463-42.767 9.135-63.139 17.268-39.234 15.662-77.55 39.512-103.15 73.762-11.917 15.943-20.907 34.314-24.315 54.032-3.719 21.513-1.025 43.491 6.64 63.876 4.546 12.088 10.634 22.387 19.063 32.197 8.241 9.594 17.342 18.504 24.865 28.701 7.555 10.24 13.822 21.832 11.008 34.992-0.896 4.194-2.382 8.141-4.269 11.891 10.557-7.667 19.732-16.751 25.719-29.246 0.712-1.484 2.404-2.744 4.095-2.762 10.361-0.104 20.251-2 29.988-5.09 0.56-1.741 2.122-3.232 3.979-3.674-6.983-8.822-12.72-18.43-16.127-29.293-8.877-28.31-0.174-59.71 17.061-83.051 24.305-32.916 63.312-53.711 101.57-65.994 37.982-12.193 78.001-16.282 117.57-10.574 18.389 2.652 37.143 7.155 54.994 13.928 3.59-13.52 2.6-27.45-4.82-39.54z"/>
			<path class="st14" d="m501.25 273.48c-4.662-21.662-16.959-40.836-32.48-56.352-15.043-15.037-33.316-26.5-53.005-35.008 0.273-0.433 0.495-0.928 0.647-1.493 5.719-21.191 0.053-41.667-14.23-58.044-14.285-16.381-33.65-27.621-52.604-37.76-49.286-26.363-106.73-25.199-160.38-15.423-41.878 7.631-82.864 25.14-117.43 49.94-33.196 23.817-61.601 56.971-70.382 97.736-6.777 31.455-0.41 68.44 17.446 95.322 10.345 15.574 24.888 27.828 35.782 42.996 6.185 8.611 9.736 17.16 7.011 27.752-2.542 9.877-10.187 18.367-16.858 25.713-4 4.404 1.795 10.166 6.553 7.445 19.93-11.395 38.838-23.582 49.787-44.225 12.412-0.482 24.404-3.393 36.065-7.697 0.984-0.363 1.741-1.041 2.282-1.863 10.919 11.74 23.574 22.238 34.966 32.785-6.323 7.896-12.903 15.502-20.159 22.555-14.213 13.814-35.341 18.866-47.998 34.498-3.443 4.252 1.451 9.653 5.491 8.119 1.235 0.393 2.656 0.272 4.062-0.674 15.521-10.441 35.771-9.814 53.104-15.486 9.818-3.211 18.695-8.795 28.328-12.48 8.529-3.264 17.618-2.713 26.268-4.861 0.227 1.311 1.084 2.5 2.774 3.164 49.859 19.615 107.3 13.357 157.72-0.854 23.785-6.704 46.129-16.161 65.766-31.394 18.82-14.6 34.469-33.547 44.231-55.33 9.76-21.81 12.26-45.8 7.24-69.11zm-373.62 83.61c-9.737 3.09-19.627 4.986-29.988 5.09-1.69 0.018-3.383 1.277-4.095 2.762-5.986 12.495-15.162 21.579-25.719 29.246 1.887-3.75 3.372-7.696 4.269-11.891 2.814-13.16-3.453-24.752-11.008-34.992-7.523-10.197-16.624-19.107-24.865-28.701-8.43-9.811-14.518-20.109-19.063-32.197-7.665-20.385-10.358-42.363-6.64-63.876 3.408-19.718 12.398-38.089 24.315-54.032 25.597-34.247 63.913-58.102 103.14-73.762 20.372-8.133 41.493-13.805 63.139-17.268 27.788-4.445 56.265-6.186 84.253-2.648 32.157 4.062 61.631 17.449 88.096 35.854 11.018 7.663 21.303 16.706 28.375 28.229 7.422 12.096 8.409 26.023 4.832 39.527-17.852-6.772-36.605-11.275-54.994-13.928-39.567-5.708-79.586-1.619-117.57 10.574-38.257 12.283-77.265 33.078-101.57 65.994-17.234 23.341-25.938 54.741-17.061 83.051 3.407 10.863 9.144 20.471 16.127 29.293-1.86 0.45-3.42 1.94-3.98 3.68zm361.87-30.85c-6.759 22.88-21.836 43.229-39.681 58.743-18.873 16.406-40.914 26.424-64.663 33.574-24.97 7.52-50.851 12.145-76.9 13.451-26.102 1.307-53.04-1.189-77.514-10.818-0.122-0.047-0.242-0.084-0.362-0.122-0.186-3.004-2.836-5.935-6.516-4.618-4.464 1.6-9.174 1.779-13.859 2.188-5.085 0.444-9.773 1.652-14.602 3.247-10.301 3.401-19.546 9.41-29.787 13.004-8.975 3.148-18.477 4.525-27.789 6.426 8.076-4.729 16.038-9.51 22.969-15.891 8.694-8.002 16.182-17.173 23.48-26.451 1.031-1.311 1.287-2.725 1.037-4.014 0.317-1.516-0.049-3.18-1.492-4.545-16.536-15.65-34.843-29.936-48.143-48.628-13.404-18.837-16.373-40.269-10.822-62.509 9.793-39.234 46.407-66.069 81.113-82.411 35.656-16.79 75.148-25.673 114.58-24.958 42.784 0.777 87.918 12.527 123.19 37.332 17.089 12.018 31.834 27.727 40.976 46.639 10.6 21.96 11.62 47.16 4.77 70.36z"/>
			<path class="st14" d="m352.63 275.19c-34.105 0.11-67.89 5.889-102 5.999-6.445 0.021-5.65 9.994 0.77 9.973 31.877-0.103 63.474-5.154 95.314-5.906 0.874 0.881 2.107 1.449 3.681 1.407 2.779-0.073 4.443-1.308 6.372-3.185 3.42-3.33-0.15-8.31-4.13-8.29z"/>
			<path class="st14" d="m358.62 300.69c-28.019-1.375-55.981 1.432-83.995 1.5-6.445 0.016-5.649 9.988 0.77 9.973 25.415-0.062 50.789-2.367 76.201-1.77 1.019 2.857 4.206 4.854 7.206 2.428 2.453-1.984 4.193-3.019 5.111-6.191 1.01-3.45-2.34-5.8-5.29-5.94z"/>
			<path class="st14" d="m376.62 332.18h-4.5c-0.439 0-0.843 0.051-1.216 0.137-30.33 1.221-59.839 10.178-90.28 10.363-6.445 0.039-5.651 10.012 0.77 9.973 32.35-0.195 63.646-10.305 95.996-10.5 6.46-0.03 5.64-9.97-0.77-9.97z"/>
</svg>
