<?xml version="1.0" encoding="UTF-8" standalone="no"?>
<!-- Generator: Adobe Illustrator 16.0.3, SVG Export Plug-In . SVG Version: 6.00 Build 0)  -->
<!DOCTYPE svg  PUBLIC '-//W3C//DTD SVG 1.1//EN'  'http://www.w3.org/Graphics/SVG/1.1/DTD/svg11.dtd'>
<svg id="Layer_1" style="enable-background:new 0 0 512 512" xmlns="http://www.w3.org/2000/svg" xml:space="preserve" height="512px" viewBox="0 0 512 512" width="512px" version="1.1" y="0px" x="0px" xmlns:xlink="http://www.w3.org/1999/xlink">
<style type="text/css">
<![CDATA[
	.st0{fill:#127274;}
	.st1{fill:#14B6B9;}
	.st2{fill:#EF4823;}
	.st3{fill:#BCBCBC;}
	.st4{fill:#F6851F;}
	.st5{fill:#C0E6ED;}
	.st6{fill:#C56528;}
	.st7{fill:#FCBF95;}
	.st8{fill:#FEBF10;}
	.st9{fill:#FFFFFF;}
	.st10{fill:#9FDADF;}
	.st11{fill:#010101;}
	.st12{fill:#3AB37C;}
	.st13{fill:#D6E5E5;}
	.st14{fill:#71C598;}
	.st15{fill:#74CCCF;}
]]>
</style>
			<path class="st12" d="m424.32 180.05c-1.002-1.219-1.523-2.795-1.521-4.327-14.781-26.071-15.723-58.003-30.52-84.104-41.667 23.391-70.19 65.139-97.437 103.14-16.396 22.871-31.07 46.421-44.611 71.096-13.625 24.83-26.77 49.949-42.047 73.823-2.151 3.361-7.906 5.038-10.271 0.681-7.221-13.308-15.289-26.219-24.571-38.195-7.959-10.271-17.078-19.484-25.265-29.563-12.734-15.677-26.254-34.456-43.948-45.358-6.412 21.016-13.896 41.841-17.182 63.614 24.559 15.877 43.446 38.942 61.512 61.633 21.152 26.567 43.131 52.044 66.91 76.254 15.43-20.13 25.953-43.529 38.785-65.313 15.141-25.703 32.717-49.352 51.392-72.551 18.667-23.186 40.281-43.66 62.05-63.879 10.247-9.518 22.161-17.313 33.089-26.037 8.221-6.564 16.223-13.359 23.748-20.68-0.04-0.06-0.08-0.14-0.12-0.22z"/>
			<path d="m436.22 170.34h-2.792c-16.262-27.682-16.242-62.646-34.032-89.947-1.933-2.967-5.412-3.055-8.266-1.607-45.568 23.139-76.246 67.674-105.23 108.11-16.617 23.186-31.62 46.981-45.401 71.966-12.291 22.281-24.096 44.844-37.376 66.553-6.027-10.361-12.628-20.365-19.904-29.912-8.195-10.752-17.752-20.315-26.269-30.8-15.207-18.72-31.442-40.857-53.744-51.546-3.724-1.784-7.425 0.49-8.494 4.199-6.829 23.688-15.825 46.965-19.485 71.445-0.018 0.121-0.024 0.237-0.035 0.355-2.042 2.67-2.165 7.141 1.607 9.363 26.54 15.633 46.044 40.816 64.924 64.562 22.012 27.687 45.194 54.051 70.192 79.094 2.253 2.256 6.425 1.828 8.405-0.543 17.171-20.57 28.684-45.048 41.805-68.219 14.671-25.908 32.015-50.333 51.101-73.163 19.153-22.907 40.02-43.718 61.872-64.044 10.44-9.709 22.625-17.688 33.768-26.584 8.997-7.183 17.743-14.717 25.91-22.836 2.278-0.456 4.237-2.105 4.564-4.674 0.604-0.637 1.218-1.266 1.814-1.91 3.81-4.1 0.03-9.87-4.92-9.87zm-35.53 30.63c-10.929 8.724-22.843 16.52-33.089 26.037-21.769 20.219-43.382 40.693-62.05 63.879-18.675 23.199-36.251 46.848-51.392 72.551-12.832 21.784-23.354 45.184-38.785 65.313-23.779-24.21-45.758-49.687-66.91-76.254-18.066-22.69-36.953-45.756-61.512-61.633 3.285-21.773 10.77-42.599 17.182-63.614 17.694 10.902 31.214 29.682 43.948 45.358 8.188 10.079 17.306 19.292 25.265 29.563 9.282 11.977 17.351 24.888 24.571 38.195 2.364 4.357 8.12 2.681 10.271-0.681 15.277-23.874 28.422-48.993 42.047-73.823 13.541-24.675 28.215-48.225 44.611-71.096 27.247-38.006 55.771-79.754 97.437-103.14 14.796 26.102 15.739 58.033 30.52 84.104-0.002 1.532 0.519 3.108 1.521 4.327 0.033 0.08 0.075 0.158 0.113 0.236-7.54 7.3-15.54 14.09-23.76 20.66z"/>
</svg>
