<?xml version="1.0" encoding="UTF-8" standalone="no"?>
<!-- Generator: Adobe Illustrator 16.0.3, SVG Export Plug-In . SVG Version: 6.00 Build 0)  -->
<!DOCTYPE svg  PUBLIC '-//W3C//DTD SVG 1.1//EN'  'http://www.w3.org/Graphics/SVG/1.1/DTD/svg11.dtd'>
<svg id="Layer_1" style="enable-background:new 0 0 512 512" xmlns="http://www.w3.org/2000/svg" xml:space="preserve" height="512px" viewBox="0 0 512 512" width="512px" version="1.1" y="0px" x="0px" xmlns:xlink="http://www.w3.org/1999/xlink">
<style type="text/css">
<![CDATA[
	.st0{fill:#127274;}
	.st1{fill:#14B6B9;}
	.st2{fill:#1E4384;}
	.st3{fill:#ED2224;}
	.st4{fill:#EF4823;}
	.st5{fill:#BCBCBC;}
	.st6{fill:#231F20;}
	.st7{fill:#F26824;}
	.st8{fill:#F3AD20;}
	.st9{fill:#F6851F;}
	.st10{fill:#C56528;}
	.st11{fill:#FCBF95;}
	.st12{fill:#FEBF10;}
	.st13{fill:none;}
	.st14{fill:#010101;}
	.st15{fill:#D4E2A9;}
	.st16{fill:#3AB37C;}
	.st17{fill:#085084;}
	.st18{fill:#D6E5E5;}
	.st19{fill:#71C598;}
	.st20{fill:#73A1B2;}
	.st21{fill:#74CCCF;}
]]>
</style>
			<path class="st5" d="m368.35 392.36c-3.344 1.142-7.146 2.511-10.91 3.332-0.676 0.453-1.538 0.729-2.602 0.729h-3.175c-5.401 10.745-16.911 18.576-26.826 24.497-12.915 7.713-26.549 14.298-41.911 13.755-10.459-0.37-20.562-3.187-30.869-4.684-10.145-1.474-20.335-2.106-30.363-4.398-18.084-4.133-34.142-11.47-46.356-25.789-6.271-7.351-11.146-15.545-15.417-24.092-0.311 0.179-0.607 0.4-0.887 0.681-3.02 3.037-4.639 7.221-5.71 11.307-2.136 8.152-4.248 18.593-2.147 26.997 4.924 19.698 24.062 27.942 42.186 32.219 9.389 2.216 18.918 3.658 28.445 5.127 14.734 2.273 29.301 5.545 44.248 6.231 27.212 1.25 54.461-5.825 78.037-19.575 18.812-10.972 33.875-26.967 33.875-49.877 0-0.141 0.011-0.275 0.02-0.41-3.14 1.47-6.35 2.81-9.63 3.93z"/>
			<path class="st18" d="m431.71 390.29c-1.601-8.898-8.56-20.834-18.213-22.444-0.766-0.127-1.408-0.384-1.94-0.73-7.768 6.093-15.838 11.83-24.468 16.599-0.355 0.196-0.714 0.389-1.071 0.583 1.134 0.703 1.922 1.943 1.922 3.754 0 20.241-9.18 37.309-24.902 49.857-8.127 6.485-17.234 11.646-26.719 15.874-10.18 4.539-21.055 8.886-31.931 11.356-29.305 6.655-57.526 0.845-86.618-3.608-18.71-2.864-39.504-5.577-55.645-16.267-15.33-10.153-22.559-25.128-21.217-43.323 0.616-8.35 1.974-17.234 5.668-24.84 1.652-3.405 3.846-6.933 7.039-9.107 0.663-0.452 1.354-0.861 2.072-1.213-2.992-6.627-5.792-13.363-8.733-20.001-6.92 0.267-13.629 4.247-18.972 8.272-7.359 5.542-13.787 12.287-19.447 19.541-11.104 14.228-20.246 30.345-16.729 49.078 3.564 18.979 18.871 33.387 35.82 41.24 20.105 9.316 42.699 15.173 64.205 20.24 54.013 12.724 112.94 17.661 164.46-6.814 24.166-11.481 48.878-28.484 64.168-50.861 7.21-10.54 13.62-24.07 11.26-37.19z"/>
			<path class="st9" d="m357.15 183.7c-11.451-8.131-28.737-6.586-42.046-7.449-18.125-1.175-36.15-3.261-54.341-3.314-19.989-0.059-40.61-1.968-60.42 1.494-10.948 1.914-21.579 5.233-32.335 7.957 11.483 0.312 22.93 0.425 34.402 1.336 12.227 0.97 24.419 2.302 36.641 3.309 25.289 2.083 51.033 2.163 76.391 1.268 13.887-0.49 28.332-1.519 42.275-4.247-0.17-0.11-0.36-0.22-0.55-0.36z"/>
			<path class="st5" d="m388.69 159.96c-3.902-7.795-14.588-10.396-22.383-11.799-27.002-4.859-55.501-4.24-82.812-3.585-32.297 0.774-64.81 3.115-96.85 7.303-13.542 1.771-26.98 3.876-40.387 6.449-9.365 1.797-21.822 3.318-28.041 11.42-0.665 0.867-1.434 1.391-2.232 1.648-0.229 0.581-0.588 1.136-1.09 1.639 1.105 0.802 2.312 1.452 3.554 2.029 2.205 1.026 5.617 2.645 7.466 2.975 5.084 0.906 10.193 1.695 15.32 2.349 0.374-1.955 1.789-3.685 4.342-3.926 19.775-1.864 38.205-10.227 57.896-12.542 20.521-2.412 41.611-1.39 62.229-0.871 18.549 0.467 36.951 2.718 55.466 3.601 14.483 0.691 30.3 0.818 42.584 9.541 2.552 1.812 2.292 4.508 0.757 6.379 4.244-1.024 8.426-2.217 12.509-3.637 8.22-2.86 16.53-9.25 11.66-18.97z"/>
			<path class="st18" d="m482.45 233.95c-0.575-10.555-2.636-21.583-8.901-30.362-6.16-8.632-15.133-13.885-25.384-16.255-18.876-4.364-43.006-1.235-53.24 17.339-3.097 5.62-12.034 1.248-8.958-4.449 2.882-5.339 4.251-11.189 4.902-17.18-4.636 3.448-10.316 5.506-16.054 6.929-12.542 3.111-25.24 5.782-38.118 7.011-15.562 1.487-31.193 1.64-46.816 1.555-15.672-0.084-31.314-0.036-46.954-1.225-16.085-1.223-32.112-3.153-48.212-4.186-15.953-1.023-31.939-0.461-47.865-2.076-11.418-1.158-23.436-2.027-33.767-7.479-1.589-0.839-3.087-1.848-4.384-2.975-0.355 2.872-0.496 5.765-0.477 8.668 0.069 10.317 1.191 20.625 2.754 30.814 3.672 23.946 9.746 47.347 19.381 69.627 5.959 13.782 12.762 27.153 19.746 40.438 1.377 2.62 2.672 5.281 3.92 7.966 0.831 0.748 1.26 1.794 1.326 2.91 3.399 7.549 6.502 15.244 9.938 22.762 0.302 0.66 0.606 1.321 0.913 1.983 1.746 0.943 2.944 2.79 2.605 4.909 0.104 0.336 0.172 0.663 0.205 0.979 4.007 8.102 8.625 16.038 14.693 22.648 9.145 9.961 20.142 16.286 33.191 19.809 13.911 3.754 28.113 4.323 42.199 6.935 12.592 2.334 26.158 6.065 38.736 1.796 9.545-3.24 18.633-8.078 26.951-13.745 6.536-4.451 16.111-10.629 18.757-18.613 0.862-2.603 3.185-3.739 5.384-3.702 0.529-0.208 1.137-0.33 1.833-0.33 4.646 0 9.952-1.966 14.28-3.527 5.164-1.863 10.21-4.048 15.018-6.705 9.256-5.115 17.965-11.14 26.269-17.677 20.833-16.403 41.854-34.476 57.243-56.268 14.08-19.96 20.21-43.99 18.88-68.34zm-17.79 34.83c-6.524 20.421-21.115 38.145-37.521 51.56-15.132 12.374-34.226 23.355-54.304 23.589-1.125 0.013-2.074-0.287-2.845-0.783-2.985 1.478-7.148 0.36-7.026-3.819 0.468-16.037 10.359-29.919 12.949-45.601 2.698-16.335 5.333-32.725 9.627-48.734 0.044-0.161 0.096-0.313 0.149-0.464 0.256-2.03 1.668-3.72 4.374-3.568 4.136 0.231 8.812 0.307 11.549-3.326 2.301-3.053 3.428-6.926 4.922-10.402 3.966-9.222 10.656-18.7 20.809-21.516 9.145-2.536 18.592 2.256 24.749 8.875 6.819 7.33 12.333 16.611 14.469 26.482 2.01 9.3 0.98 18.66-1.91 27.7z"/>
			<path class="st14" d="m492.48 234.49c-0.611-21.589-9.435-43.044-29.867-52.684-18.881-8.907-44.232-8.906-61.895 2.63 0.727-6.604 0.716-13.348 0.717-19.875 0.001-1.884-0.854-3.145-2.06-3.832-1.072-4.128-3.251-8.031-6.084-11.168-6.163-6.826-16.399-9.551-25.075-11.218-10.526-2.022-21.385-2.531-32.061-3.072-16.48-0.836-32.991-1.021-49.489-0.75-32.376 0.532-64.905 2.995-97.044 6.91-13.965 1.701-27.895 3.749-41.692 6.453-10.458 2.049-21.22 3.716-30.523 9.236-1.987 1.179-3.817 2.724-5.385 4.454-1.019-0.51-2.287-0.556-3.712 0.153-13.383 6.652-10.418 29.435-9.428 41.479 1.4 17.028 4.685 33.978 8.635 50.585 6.959 29.261 21.148 55.429 34.392 82.146 0.229 0.462 0.448 0.932 0.674 1.396-16.575 2.746-30.709 17.257-40.741 29.624-13.404 16.522-23.537 35.562-20.01 57.483 3.578 22.24 20.66 39.093 40.105 48.833 11.117 5.568 23.597 9.038 35.429 12.748 13.483 4.227 27.161 7.828 40.962 10.86 53.948 11.852 111.79 14.402 162.76-9.812 24.099-11.449 47.479-27.959 64.035-49.1 15.094-19.271 23.793-45.004 8.846-66.745-3.31-4.813-7.82-9.174-13.201-11.562 0.088-0.073 0.176-0.145 0.264-0.217 20.218-16.837 39.896-34.796 54.389-56.956 13.11-20.07 17.71-44.25 17.04-67.99zm-376.49-63.09c0.799-0.257 1.567-0.781 2.232-1.648 6.219-8.102 18.676-9.623 28.041-11.42 13.406-2.573 26.845-4.679 40.387-6.449 32.04-4.188 64.553-6.529 96.85-7.303 27.312-0.655 55.811-1.273 82.812 3.585 7.795 1.403 18.48 4.003 22.383 11.799 4.867 9.723-3.445 16.113-11.673 18.974-4.083 1.419-8.265 2.613-12.509 3.637 1.535-1.872 1.795-4.568-0.757-6.379-12.284-8.723-28.101-8.85-42.584-9.541-18.515-0.883-36.917-3.134-55.466-3.601-20.617-0.52-41.707-1.541-62.229 0.871-19.691 2.314-38.121 10.678-57.896 12.542-2.553 0.241-3.968 1.971-4.342 3.926-5.127-0.654-10.236-1.442-15.32-2.349-1.849-0.33-5.261-1.949-7.466-2.975-1.241-0.577-2.448-1.227-3.554-2.029 0.51-0.5 0.87-1.05 1.1-1.63zm241.73 12.66c-13.943 2.729-28.389 3.757-42.275 4.247-25.357 0.896-51.102 0.816-76.391-1.268-12.222-1.007-24.414-2.339-36.641-3.309-11.473-0.911-22.919-1.024-34.402-1.336 10.756-2.724 21.387-6.043 32.335-7.957 19.81-3.462 40.431-1.553 60.42-1.494 18.19 0.054 36.216 2.139 54.341 3.314 13.309 0.863 30.595-0.682 42.046 7.449 0.19 0.14 0.38 0.25 0.57 0.36zm73.99 206.23c2.359 13.119-4.048 26.645-11.251 37.186-15.29 22.376-40.002 39.38-64.168 50.861-51.518 24.475-110.45 19.539-164.46 6.814-21.506-5.066-44.1-10.923-64.205-20.24-16.949-7.854-32.256-22.261-35.82-41.24-3.518-18.733 5.625-34.85 16.729-49.078 5.66-7.253 12.088-13.998 19.447-19.541 5.343-4.025 12.052-8.005 18.972-8.272 2.941 6.638 5.741 13.374 8.733 20.001-0.718 0.352-1.409 0.761-2.072 1.213-3.193 2.174-5.387 5.702-7.039 9.107-3.694 7.606-5.052 16.49-5.668 24.84-1.342 18.194 5.887 33.17 21.217 43.323 16.141 10.69 36.935 13.403 55.645 16.267 29.092 4.454 57.313 10.263 86.618 3.608 10.876-2.47 21.751-6.818 31.931-11.356 9.484-4.228 18.592-9.389 26.719-15.874 15.723-12.548 24.902-29.616 24.902-49.857 0-1.812-0.788-3.051-1.922-3.754 0.357-0.194 0.716-0.387 1.071-0.583 8.63-4.769 16.7-10.505 24.468-16.599 0.532 0.346 1.175 0.603 1.94 0.73 9.66 1.61 16.62 13.54 18.22 22.44zm-272.68-13.9c0.279-0.28 0.576-0.502 0.887-0.681 4.271 8.547 9.146 16.741 15.417 24.092 12.215 14.319 28.272 21.656 46.356 25.789 10.028 2.292 20.219 2.924 30.363 4.398 10.307 1.498 20.41 4.314 30.869 4.684 15.362 0.543 28.996-6.042 41.911-13.755 9.915-5.921 21.425-13.752 26.826-24.497h3.175c1.063 0 1.926-0.275 2.602-0.729 3.764-0.821 7.566-2.19 10.91-3.332 3.285-1.121 6.492-2.467 9.637-3.95-0.009 0.135-0.02 0.27-0.02 0.41 0 22.91-15.063 38.905-33.875 49.877-23.576 13.75-50.825 20.825-78.037 19.575-14.947-0.687-29.514-3.958-44.248-6.231-9.527-1.47-19.057-2.912-28.445-5.127-18.123-4.277-37.262-12.521-42.186-32.219-2.101-8.404 0.012-18.845 2.147-26.997 1.07-4.09 2.69-8.27 5.71-11.31zm304.54-74.12c-15.389 21.792-36.41 39.865-57.243 56.268-8.304 6.538-17.013 12.562-26.269 17.677-4.808 2.657-9.854 4.842-15.018 6.705-4.328 1.561-9.635 3.527-14.28 3.527-0.696 0-1.304 0.122-1.833 0.33-2.199-0.037-4.521 1.1-5.384 3.702-2.646 7.984-12.221 14.162-18.757 18.613-8.318 5.667-17.406 10.505-26.951 13.745-12.578 4.27-26.145 0.539-38.736-1.796-14.086-2.612-28.288-3.181-42.199-6.935-13.05-3.523-24.047-9.847-33.191-19.809-6.068-6.611-10.687-14.547-14.693-22.648-0.033-0.316-0.101-0.643-0.205-0.979 0.339-2.12-0.859-3.966-2.605-4.909-0.307-0.662-0.611-1.323-0.913-1.983-3.437-7.518-6.539-15.213-9.938-22.762-0.066-1.116-0.495-2.163-1.326-2.91-1.248-2.685-2.543-5.346-3.92-7.966-6.984-13.285-13.787-26.656-19.746-40.438-9.635-22.28-15.709-45.681-19.381-69.627-1.562-10.189-2.685-20.497-2.754-30.814-0.02-2.903 0.121-5.797 0.477-8.668 1.297 1.127 2.795 2.136 4.384 2.975 10.331 5.452 22.349 6.321 33.767 7.479 15.926 1.615 31.912 1.053 47.865 2.076 16.1 1.032 32.127 2.963 48.212 4.186 15.64 1.189 31.282 1.141 46.954 1.225 15.623 0.084 31.254-0.068 46.816-1.555 12.878-1.229 25.576-3.9 38.118-7.011 5.737-1.423 11.418-3.48 16.054-6.929-0.651 5.99-2.021 11.841-4.902 17.18-3.076 5.697 5.861 10.069 8.958 4.449 10.234-18.574 34.364-21.704 53.24-17.339 10.251 2.37 19.224 7.623 25.384 16.255 6.266 8.779 8.326 19.807 8.901 30.362 1.31 24.36-4.82 48.39-18.9 68.33z"/>
			<path class="st14" d="m306.89 39.7c-7.12-20.644-25.468-43.309-49.549-39.718-10.114 1.508-19.13 7.448-25.2 15.562-5.689 7.604-10.324 19.053-7.655 28.625 2.831 10.155 13.318 14.821 23.134 12.755 9.908-2.086 15.854-13.297 6.636-20.227-3.046-2.291-9.276-0.608-8.287 4.141 0.326 1.567 1.188 3.008 1.5 4.5 0.063 0.303 0.152 0.584 0.255 0.854-0.73 0.422-1.576 0.708-2.299 0.973-3.297 1.206-6.842-0.048-9.402-2.242-5.012-4.293-1.152-13.55 1.007-18.227 6.077-13.159 21.757-20.961 35.525-15.136 7.727 3.269 13.36 10.907 17.923 17.628 5.122 7.546 8.454 16.23 9.851 25.229 2.857 18.413-3.227 36.763-11.854 52.808-3.062 5.695 5.914 10.11 8.958 4.449 11.9-22.13 17.87-47.573 9.45-71.97z"/>
			<path class="st14" d="m276.94 71.567c-0.226-4.205-6.045-6.324-8.742-2.916-1.133 1.429-1.88 3.084-3 4.5-2.13 2.689-0.993 5.822 1.139 7.398-2.671 12.751-12.665 22.067-18.361 34.176-2.746 5.838 6.215 10.282 8.959 4.449 3.698-7.862 9.232-14.495 13.766-21.853 4.82-7.83 6.72-16.611 6.23-25.75z"/>
			<path class="st14" d="m233.45 68.012c-13.291-4.883-30.164 0.48-37.722 12.497-3.249 5.167-2.622 12.593 0.82 17.446 4.467 6.297 12.241 5.547 18.208 2.142 5.609-3.202-0.022-11.469-5.592-8.29-3.229 1.843-5.193 0.854-5.533-2.831-0.348-3.761 3.201-6.813 5.959-8.761 6.456-4.56 19.73-6.536 25.224 0.533 4.497 5.789-3.53 16.296-6.927 20.528-5.147 6.412-12.362 13.401-20.58 15.454-6.252 1.562-2.908 10.992 3.307 9.439 19.17-4.79 54.26-46.613 22.83-58.158z"/>
			<path class="st14" d="m466.56 241.07c-2.136-9.871-7.649-19.152-14.469-26.482-6.157-6.619-15.604-11.411-24.749-8.875-10.152 2.816-16.843 12.293-20.809 21.516-1.494 3.476-2.621 7.349-4.922 10.402-2.736 3.633-7.413 3.558-11.549 3.326-2.706-0.152-4.118 1.539-4.374 3.568-0.054 0.15-0.105 0.303-0.149 0.464-4.294 16.009-6.929 32.398-9.627 48.734-2.59 15.681-12.481 29.564-12.949 45.601-0.122 4.179 4.041 5.296 7.026 3.819 0.771 0.496 1.72 0.796 2.845 0.783 20.078-0.233 39.172-11.215 54.304-23.589 16.405-13.415 30.996-31.139 37.521-51.56 2.89-9.04 3.92-18.4 1.9-27.71zm-9.16 14.71c-2.409 20.711-16.951 39.044-31.763 52.716-13.928 12.856-32.686 24.646-52.166 25.411 1.04-5.406 3.391-10.62 5.438-15.642 3.029-7.435 5.51-14.705 6.82-22.638 2.475-14.968 4.908-29.978 8.599-44.702 8.308-0.478 14.53-4.563 18.366-12.587 4.088-8.554 6.943-19.405 16.942-22.909 8.774-3.076 16.95 7.202 20.982 13.436 5.22 8.07 7.9 17.34 6.78 26.91z"/>
</svg>
