<?xml version="1.0" encoding="UTF-8" standalone="no"?>
<!-- Generator: Adobe Illustrator 16.0.3, SVG Export Plug-In . SVG Version: 6.00 Build 0)  -->
<!DOCTYPE svg  PUBLIC '-//W3C//DTD SVG 1.1//EN'  'http://www.w3.org/Graphics/SVG/1.1/DTD/svg11.dtd'>
<svg id="Layer_1" style="enable-background:new 0 0 512 512" xmlns="http://www.w3.org/2000/svg" xml:space="preserve" height="512px" viewBox="0 0 512 512" width="512px" version="1.1" y="0px" x="0px" xmlns:xlink="http://www.w3.org/1999/xlink">
<style type="text/css">
<![CDATA[
	.st0{fill:#127274;}
	.st1{fill:#14B6B9;}
	.st2{fill:#1E4384;}
	.st3{fill:#ED2224;}
	.st4{fill:#EF4823;}
	.st5{fill:#BCBCBC;}
	.st6{fill:#231F20;}
	.st7{fill:#F26824;}
	.st8{fill:#F3AD20;}
	.st9{fill:#F6851F;}
	.st10{fill:#C56528;}
	.st11{fill:#FCBF95;}
	.st12{fill:#FEBF10;}
	.st13{fill:none;}
	.st14{fill:#010101;}
	.st15{fill:#D4E2A9;}
	.st16{fill:#3AB37C;}
	.st17{fill:#085084;}
	.st18{fill:#D6E5E5;}
	.st19{fill:#71C598;}
	.st20{fill:#73A1B2;}
	.st21{fill:#74CCCF;}
]]>
</style>
			<path class="st5" d="m318.91 38.406c-20.348-14.625-45.086-20.965-69.959-20.766-23.304 0.186-49.151 2.541-68.752 16.324-9.22 6.482-17.224 14.904-22.143 25.14-5.688 11.838-3.544 25.112-4.58 37.804 7.186 0.286 14.379 0.543 21.59 0.597 0.051 0.001 0.102-0.001 0.153-0.001-0.101-0.138-0.2-0.277-0.294-0.432-9.543-15.619 7.095-34.709 17.452-45.267 6.753-6.884 13.737-12.548 23.021-15.757 11.377-3.933 23.462-5.025 35.424-4.053 36.289 2.949 80.628 22.278 83.957 62.562 4.375-0.011 8.75-0.022 13.125-0.028-1.01-21.941-10.98-43.179-28.99-56.123z"/>
			<path class="st5" d="m321.1 275.69c-0.46-4.595-1.077-9.174-1.513-13.771-0.369-3.896-0.236-7.82-1.146-11.667-1.732-7.333-5.072-16.302-14.039-15.772-2.852 0.168-4.688-1.508-5.408-3.598-2.981 0.962-7.156-0.432-8-4.465-2.488-11.902-4.021-25.3-10.065-36.066-6.169-10.986-16.472-16.033-29.024-15.869-14.711 0.194-25.195 8.208-30.42 21.996-2.111 5.574-3.438 12.682-1.453 18.484 1.059 3.099 2.689 5.78 5.464 7.646 2.274 1.531 2.974 3.32 2.974 5.963 0 3.226-1.93 5.364-5.062 5.908-7.301 1.268-15.205 6.962-14.438 15.09 0.19 2.016-0.563 3.521-1.754 4.484 2.242 13.435 4.582 26.882 8.018 40.061 2.184 8.367 4.438 19.008 14.137 21.595 9.089 2.425 18.768 0.687 27.918-0.535 11.432-1.526 22.623-0.165 34.092-0.072 9.971 0.081 22.916-0.196 27.582-10.783 3.89-8.83 3.07-19.26 2.14-28.62zm-80.94-50.39c-2.455-0.112-4.688-1.683-4.666-4.888 0.07-10.848 2.029-31.604 16.836-31.679 17.793-0.091 23.938 22.794 24.131 36.833 0.039 2.812-1.93 5.908-5.061 5.908h-25.5c-3.83 0.01-5.83-3.22-5.74-6.17zm37.24 67.67c-9.096 0.193-17.904 2.808-27 3-4.465 0.096-6.836-3.949-5.35-7.932 1.312-3.521 3.285-6.65 5.631-9.579 0.686-0.858 1.616-1.823 2.426-2.858-6.48-4.646-9.433-13.715-7.797-21.502 2.003-9.537 9.824-13.181 18.871-10.693 5.504 1.514 8.499 6.788 8.373 12.303-0.101 4.383 0.263 10.658-1.537 14.709-0.146 0.33-0.333 0.646-0.519 0.96 0.655 1.048 1.761 2.128 2.633 3.001 3.542 3.541 9.329 7.283 9.329 12.684 0.01 2.86-1.89 5.84-5.05 5.91z"/>
			<path class="st0" d="m252.54 199.7c-5.467-0.523-6.05 16.522-6.072 19.869-0.002 0.327-0.035 0.637-0.082 0.938h18.744c-0.95-8.68-3.99-19.99-12.59-20.81z"/>
			<path class="st0" d="m430.39 312.47c-7.063 0.033-7.938-10.937-0.848-10.971 11.523-0.055 23.003-1.289 34.516-1.471-0.258-10.332-0.865-20.631-1.721-30.907l-0.004-0.003c-5.195-4.76-15.404-3.194-21.75-2.607-8.381 0.775-16.765 2.361-25.193 2.461-7.068 0.083-7.938-10.887-0.846-10.971 9.768-0.115 19.416-2.236 29.164-2.758 5.559-0.299 11.849-0.466 17.445 1.105-1.156-11.364-2.566-22.706-4.094-34.037-1.908-0.722-3.506-2.545-3.866-4.66-16.618-0.263-33.187 3.201-49.804 3.322-7.064 0.053-7.937-10.918-0.846-10.969 17.533-0.129 34.854-3.506 52.371-3.177-1.955-13.795-3.988-27.583-5.855-41.389-0.216 0.022-0.439 0.036-0.672 0.036h-58.496c-7.059 0-7.936-10.969-0.848-10.969h58.498c0.027 0 0.053 0.004 0.082 0.004-0.877-6.883-1.698-13.771-2.428-20.67-3.129-0.014-6.354-2.406-5.631-6.396 4.479-24.711-39.379-21.965-54.174-21.965-17.562 0-35.127 0-52.689 0.046-2.211 1.661-5.502 1.737-7.344 0.022-30.602 0.104-61.203 0.372-91.797 1.082-23.22 0.539-46.569 2.525-69.779 1.407-15.496-0.747-31.01-1.542-46.53-1.137-19.103 0.498-62.112 1.419-64.349 26.664 0.867 0.808 1.465 1.969 1.566 3.505 0.881 13.332 1.58 26.672 2.199 40.017 0.283-0.045 0.578-0.077 0.893-0.081 9.473-0.117 18.867-2.252 28.198-3.682 7.349-1.127 15.454-2.764 22.67-0.26 6.679 2.319 1.724 12.152-4.895 9.855-1.515-0.526-5.995-0.043-8.366 0.218-4.18 0.461-8.336 1.104-12.484 1.782-8.018 1.312-16.127 2.955-24.277 3.057-0.443 0.006-0.861-0.032-1.254-0.108 0.448 10.393 0.854 20.787 1.259 31.182 0.203 0.003 0.41 0.017 0.622 0.04 11.32 1.284 24.071-0.215 35.85 0.19 8.578 0.295 24.285-0.395 28.289 9.39 2.613 6.385-7.083 9.949-10.115 4.211-0.045-0.026-0.084-0.053-0.143-0.081-0.463-0.226-1.404-0.626-1.649-0.691-2.174-0.586-4.392-0.981-6.629-1.235-5.602-0.635-11.242-0.74-16.875-0.742-9.568-0.002-19.356 0.777-28.921-0.072 0.553 14.104 1.129 28.206 1.811 42.303 0.751-0.524 1.715-0.85 2.91-0.859 8.795-0.074 17.533-1.307 26.322-1.553 7.529-0.212 16.369-0.463 23.045 3.609 6 3.66 1.174 13.557-4.895 9.855-5.709-3.482-13.698-2.723-20.086-2.377-7.846 0.425-15.679 1.369-23.541 1.434-1.322 0.012-2.428-0.364-3.305-0.982 0.771 14.898 1.562 29.848 2.703 44.755 0.727-0.46 1.643-0.736 2.756-0.743 18.027-0.114 35.956-2.92 53.996-3 7.062-0.032 7.938 10.938 0.848 10.969-18.041 0.082-35.971 2.887-53.998 3-1.088 0.007-2.027-0.249-2.814-0.684 0.389 4.42 0.805 8.837 1.279 13.244 1.732 16.08 5.536 33.887 19.153 44.264 20.521 15.635 48.563 16.22 73.246 15.368 31.002-1.069 61.884-4.574 92.894-5.319 32.385-0.778 63.637 4.193 95.439 9.672 22.097 3.807 44.952 6.021 66.5-1.869 16.516-6.047 30.173-17.57 38.393-33.203 10.845-20.624 12.681-44.004 12.692-66.928-11.27 0.24-22.51 1.43-33.8 1.48zm-292.04-128.85c-1.002-0.881-1.854-2.334-1.854-3.709v-1.498c0-1.523 0.32-2.882 1.354-4.055 0.941-1.07 2.287-1.745 3.709-1.854 1.468-0.113 2.949 0.379 4.055 1.352 1 0.883 1.854 2.336 1.854 3.709v1.5c0 1.521-0.32 2.881-1.354 4.055-0.941 1.068-2.287 1.744-3.709 1.854-1.47 0.12-2.95-0.37-4.06-1.35zm7.15 48.79v-1.5c0-1.521 0.319-2.881 1.352-4.055 0.943-1.068 2.288-1.744 3.709-1.854 1.469-0.112 2.95 0.381 4.055 1.354 1.002 0.881 1.854 2.334 1.854 3.709v1.5c0 1.521-0.319 2.881-1.352 4.055-0.942 1.068-2.288 1.744-3.709 1.854-1.469 0.112-2.95-0.381-4.055-1.354-1.01-0.88-1.86-2.33-1.86-3.71zm6.56 48.09c7.059 0 7.937 10.969 0.848 10.969-7.06 0-7.94-10.97-0.85-10.97zm7.56 49.62c-0.883 1.002-2.336 1.854-3.709 1.854h-1.5c-1.523 0-2.882-0.319-4.055-1.352-1.07-0.942-1.745-2.288-1.854-3.709-0.113-1.469 0.379-2.95 1.352-4.055 0.883-1.002 2.336-1.854 3.709-1.854h1.5c1.523 0 2.882 0.319 4.055 1.352 1.07 0.942 1.745 2.288 1.854 3.709 0.11 1.46-0.38 2.94-1.35 4.05zm171.84-28.86c-2.402 10.004-8.201 18.714-18.34 22.102-11.622 3.885-23.924 2.59-35.934 2.059-11.068-0.488-21.51 1.525-32.486 2.237-9.043 0.587-18.479 0.099-26.18-5.188-9.449-6.489-12.062-17.834-14.574-28.325-3.695-15.437-6.343-31.085-8.951-46.733-0.533-3.197 1.461-5.09 3.897-5.554 2.226-6.983 7.956-12.365 14.787-15.556-8.119-10.62-6.345-26.941-0.313-38.5 7.713-14.776 20.535-24.494 37.688-24.295 15.589 0.18 30.484 5.539 38.468 19.758 7.017 12.498 9.265 26.802 12.105 40.68 0.561-0.24 1.198-0.398 1.923-0.441 12.602-0.744 21.158 8.436 24.44 19.924 2.469 8.641 2.563 17.658 3.558 26.537 1.13 10.21 2.33 21.18-0.1 31.3zm18.5-137.19c0 1.523-0.319 2.882-1.352 4.055-0.942 1.07-2.288 1.745-3.709 1.854-1.469 0.113-2.95-0.379-4.055-1.352-1.002-0.883-1.854-2.336-1.854-3.709v-1.5c0-1.523 0.319-2.882 1.352-4.055 0.942-1.07 2.288-1.745 3.709-1.854 1.469-0.113 2.95 0.379 4.055 1.352 1.002 0.883 1.854 2.336 1.854 3.709v1.5zm21 66c0 1.521-0.32 2.881-1.354 4.055-0.941 1.068-2.287 1.744-3.709 1.854-1.468 0.112-2.949-0.381-4.055-1.354-1.001-0.881-1.854-2.334-1.854-3.709v-3c0-1.521 0.32-2.881 1.354-4.055 0.941-1.068 2.287-1.744 3.709-1.854 1.468-0.112 2.949 0.381 4.055 1.354 1.001 0.881 1.854 2.334 1.854 3.709v3zm6.94 62.9c-2.812 0.217-5.908-2.061-5.908-5.061v-4.5c0-2.996 1.904-5.667 5.062-5.908 2.812-0.217 5.908 2.061 5.908 5.061v4.5c0 3-1.91 5.67-5.06 5.91zm15.44 49.01c-0.161 0.906-0.695 2.311-1.42 2.951-1.074 0.947-1.111 1.1-2.44 1.646-0.515 0.212-1.091 0.289-1.64 0.361-0.311 0.041-0.627 0.033-0.941 0.033-1.523 0-2.883-0.32-4.055-1.354-1.07-0.941-1.745-2.287-1.854-3.709-0.113-1.468 0.379-2.949 1.352-4.055 0.299-0.34 0.668-0.658 1.073-0.936 0.128-0.192 0.266-0.381 0.427-0.564 0.942-1.068 2.289-1.744 3.709-1.854 1.469-0.112 2.95 0.381 4.055 1.354 1.002 0.881 1.854 2.335 1.854 3.709 0.01 0.79 0.03 1.62-0.11 2.41z"/>
			<path d="m474.27 280.88c-3.196-53.791-14.57-106.68-19.314-160.31-0.271-3.074-2.639-4.84-5.184-4.947-8.449-25.621-60.166-21.115-81.158-21.111-3.234 0.001-6.468 0.006-9.701 0.008-0.78-22.854-10.783-46.709-28.653-61.25-21.146-17.205-47.235-25.096-74.149-26.438-25.295-1.26-53.402 1.721-75.836 14.122-10.637 5.88-19.963 14.409-26.834 24.413-8.156 11.871-10.418 24.199-10.439 38.385-0.007 4.076-0.018 8.133-0.414 12.195-0.018 0.18-0.023 0.354-0.025 0.528-15.785-0.601-31.554-0.931-47.404 0.835-23.736 2.645-56.441 11.971-53.15 42.107 0.172 1.578 0.861 2.758 1.813 3.563 4.024 63.948 4.428 128.09 9.839 191.96 1.963 23.176 3.744 47.954 21.923 64.78 18.679 17.29 46.993 19.947 71.179 20.11 29.916 0.203 59.794-3.248 89.635-4.879 16.377-0.896 32.837-1.26 49.196 0.107 15.94 1.331 31.741 4.029 47.489 6.764 24.534 4.264 48.203 8.195 72.883 2.82 17.711-3.857 33.928-13.307 45.621-27.189 26.58-31.58 24.95-77.91 22.66-116.56zm-316.22-221.78c4.919-10.235 12.923-18.657 22.143-25.14 19.601-13.783 45.448-16.139 68.752-16.324 24.873-0.199 49.611 6.141 69.959 20.766 18.012 12.943 27.986 34.182 28.994 56.123-4.375 0.006-8.75 0.018-13.125 0.028-3.329-40.283-47.668-59.612-83.957-62.562-11.962-0.973-24.047 0.12-35.424 4.053-9.283 3.209-16.268 8.873-23.021 15.757-10.357 10.558-26.995 29.647-17.452 45.267 0.094 0.154 0.193 0.294 0.294 0.432-0.052 0-0.103 0.002-0.153 0.001-7.211-0.054-14.404-0.311-21.59-0.597 1.05-12.691-1.1-25.966 4.59-37.804zm25.99 31.816c-3.096-5.068 1.441-12.233 4.056-16.51 3.972-6.5 9.382-12.255 14.776-17.586 13.666-13.502 33.67-15.735 52.029-13.384 29.687 3.803 64.911 18.802 68.754 51.151-17.91 0.065-35.82 0.183-53.729 0.41-16.315 0.208-32.63 0.52-48.941 0.949-12.463 0.328-25 1.221-37.49 1.479 1.44-1.665 2.01-4.097 0.54-6.509zm267.46 287.02c-8.22 15.633-21.877 27.156-38.393 33.203-21.548 7.89-44.403 5.676-66.5 1.869-31.803-5.479-63.055-10.45-95.439-9.672-31.01 0.745-61.892 4.25-92.894 5.319-24.683 0.852-52.726 0.267-73.246-15.368-13.617-10.377-17.421-28.184-19.153-44.264-0.475-4.407-0.891-8.824-1.279-13.244 0.787 0.435 1.727 0.69 2.814 0.684 18.027-0.113 35.957-2.918 53.998-3 7.09-0.031 6.215-11.001-0.848-10.969-18.04 0.08-35.969 2.886-53.996 3-1.113 0.007-2.029 0.283-2.756 0.743-1.141-14.907-1.932-29.856-2.703-44.755 0.877 0.618 1.982 0.994 3.305 0.982 7.862-0.064 15.695-1.009 23.541-1.434 6.388-0.346 14.377-1.105 20.086 2.377 6.068 3.701 10.895-6.195 4.895-9.855-6.676-4.072-15.516-3.821-23.045-3.609-8.789 0.246-17.527 1.479-26.322 1.553-1.195 0.01-2.159 0.335-2.91 0.859-0.682-14.097-1.258-28.199-1.811-42.303 9.564 0.85 19.353 0.07 28.921 0.072 5.633 0.002 11.273 0.107 16.875 0.742 2.237 0.254 4.455 0.649 6.629 1.235 0.245 0.065 1.187 0.466 1.649 0.691 0.059 0.028 0.098 0.055 0.143 0.081 3.032 5.738 12.729 2.174 10.115-4.211-4.004-9.784-19.711-9.095-28.289-9.39-11.778-0.405-24.529 1.094-35.85-0.19-0.212-0.023-0.419-0.037-0.622-0.04-0.404-10.395-0.811-20.789-1.259-31.182 0.393 0.076 0.811 0.114 1.254 0.108 8.15-0.102 16.26-1.745 24.277-3.057 4.148-0.678 8.305-1.321 12.484-1.782 2.371-0.261 6.852-0.744 8.366-0.218 6.618 2.297 11.573-7.536 4.895-9.855-7.216-2.504-15.321-0.867-22.67 0.26-9.331 1.43-18.726 3.564-28.198 3.682-0.314 0.004-0.609 0.036-0.893 0.081-0.619-13.345-1.318-26.685-2.199-40.017-0.102-1.536-0.699-2.697-1.566-3.505 2.236-25.245 45.246-26.166 64.349-26.664 15.521-0.405 31.034 0.39 46.53 1.137 23.21 1.118 46.56-0.868 69.779-1.407 30.594-0.71 61.195-0.979 91.797-1.082 1.842 1.715 5.133 1.639 7.344-0.022 17.562-0.046 35.127-0.046 52.689-0.046 14.795 0 58.652-2.746 54.174 21.965-0.723 3.99 2.502 6.383 5.631 6.396 0.729 6.898 1.551 13.787 2.428 20.67-0.029 0-0.055-0.004-0.082-0.004h-58.498c-7.088 0-6.211 10.969 0.848 10.969h58.496c0.232 0 0.456-0.014 0.672-0.036 1.867 13.806 3.9 27.594 5.855 41.389-17.518-0.329-34.838 3.048-52.371 3.177-7.091 0.051-6.219 11.021 0.846 10.969 16.617-0.121 33.186-3.585 49.804-3.322 0.36 2.115 1.958 3.938 3.866 4.66 1.527 11.331 2.938 22.673 4.094 34.037-5.597-1.571-11.887-1.404-17.445-1.105-9.748 0.521-19.396 2.643-29.164 2.758-7.092 0.084-6.223 11.054 0.846 10.971 8.429-0.1 16.812-1.686 25.193-2.461 6.346-0.587 16.555-2.152 21.75 2.607l0.004 0.003c0.855 10.276 1.463 20.575 1.721 30.907-11.513 0.182-22.992 1.416-34.516 1.471-7.09 0.034-6.216 11.004 0.848 10.971 11.284-0.055 22.525-1.238 33.8-1.457-0.02 22.91-1.86 46.29-12.7 66.91z"/>
			<path d="m331.55 269.96c-0.994-8.879-1.089-17.896-3.558-26.537-3.282-11.488-11.839-20.668-24.44-19.924-0.725 0.043-1.362 0.201-1.923 0.441-2.841-13.878-5.089-28.182-12.105-40.68-7.983-14.219-22.879-19.578-38.468-19.758-17.152-0.199-29.975 9.519-37.688 24.295-6.031 11.559-7.806 27.88 0.313 38.5-6.831 3.19-12.562 8.572-14.787 15.556-2.437 0.464-4.431 2.356-3.897 5.554 2.608 15.648 5.256 31.297 8.951 46.733 2.512 10.491 5.125 21.836 14.574 28.325 7.7 5.287 17.137 5.775 26.18 5.188 10.977-0.712 21.418-2.726 32.486-2.237 12.01 0.531 24.312 1.826 35.934-2.059 10.139-3.388 15.938-12.098 18.34-22.102 2.45-10.11 1.25-21.08 0.11-31.29zm-12.59 34.35c-4.666 10.587-17.611 10.864-27.582 10.783-11.469-0.093-22.66-1.454-34.092 0.072-9.15 1.222-18.829 2.96-27.918 0.535-9.699-2.587-11.953-13.228-14.137-21.595-3.436-13.179-5.775-26.626-8.018-40.061 1.19-0.963 1.944-2.469 1.754-4.484-0.768-8.128 7.137-13.822 14.438-15.09 3.133-0.544 5.062-2.683 5.062-5.908 0-2.643-0.699-4.432-2.974-5.963-2.774-1.866-4.405-4.548-5.464-7.646-1.984-5.803-0.658-12.91 1.453-18.484 5.225-13.788 15.709-21.802 30.42-21.996 12.553-0.164 22.855 4.883 29.024 15.869 6.044 10.767 7.577 24.164 10.065 36.066 0.844 4.033 5.019 5.427 8 4.465 0.721 2.09 2.557 3.766 5.408 3.598 8.967-0.529 12.307 8.439 14.039 15.772 0.91 3.847 0.777 7.771 1.146 11.667 0.436 4.598 1.053 9.177 1.513 13.771 0.94 9.36 1.76 19.79-2.13 28.62z"/>
			<path d="m252.33 188.73c-14.807 0.075-16.766 20.831-16.836 31.679-0.021 3.205 2.211 4.775 4.666 4.888-0.092 2.952 1.914 6.175 5.74 6.175h25.5c3.131 0 5.1-3.097 5.061-5.908-0.19-14.04-6.34-36.93-24.13-36.84zm-5.95 31.77c0.047-0.301 0.08-0.61 0.082-0.938 0.022-3.347 0.605-20.393 6.072-19.869 8.605 0.823 11.649 12.132 12.59 20.807h-18.74z"/>
			<path d="m273.13 274.38c-0.872-0.873-1.978-1.953-2.633-3.001 0.186-0.314 0.372-0.63 0.519-0.96 1.8-4.051 1.437-10.326 1.537-14.709 0.126-5.515-2.869-10.789-8.373-12.303-9.047-2.487-16.868 1.156-18.871 10.693-1.636 7.787 1.316 16.855 7.797 21.502-0.81 1.035-1.74 2-2.426 2.858-2.346 2.929-4.318 6.059-5.631 9.579-1.486 3.982 0.885 8.027 5.35 7.932 9.096-0.192 17.904-2.807 27-3 3.161-0.066 5.061-3.046 5.061-5.908-0.01-5.4-5.8-9.14-9.34-12.68z"/>
			<path d="m145.62 173.86c-1.105-0.973-2.587-1.465-4.055-1.352-1.422 0.108-2.768 0.783-3.709 1.854-1.033 1.173-1.354 2.531-1.354 4.055v1.498c0 1.375 0.852 2.828 1.854 3.709 1.105 0.973 2.587 1.466 4.055 1.354 1.422-0.109 2.768-0.785 3.709-1.854 1.033-1.174 1.354-2.533 1.354-4.055v-1.5c0.01-1.38-0.84-2.84-1.84-3.72z"/>
			<path d="m154.61 226.36c-1.104-0.973-2.586-1.466-4.055-1.354-1.421 0.109-2.766 0.785-3.709 1.854-1.032 1.174-1.352 2.533-1.352 4.055v1.5c0 1.375 0.852 2.828 1.854 3.709 1.104 0.973 2.586 1.466 4.055 1.354 1.421-0.109 2.767-0.785 3.709-1.854 1.032-1.174 1.352-2.533 1.352-4.055v-1.5c0.01-1.39-0.84-2.84-1.85-3.72z"/>
			<path d="m152.06 280.5c-7.09 0-6.211 10.969 0.848 10.969 7.09 0 6.21-10.97-0.85-10.97z"/>
			<path d="m159.11 322.35c-1.173-1.032-2.531-1.352-4.055-1.352h-1.5c-1.373 0-2.826 0.852-3.709 1.854-0.973 1.104-1.465 2.586-1.352 4.055 0.108 1.421 0.783 2.767 1.854 3.709 1.173 1.032 2.531 1.352 4.055 1.352h1.5c1.373 0 2.826-0.852 3.709-1.854 0.973-1.104 1.465-2.586 1.352-4.055-0.1-1.42-0.78-2.77-1.85-3.71z"/>
			<path d="m348.1 158.86c-1.104-0.973-2.586-1.465-4.055-1.352-1.421 0.108-2.767 0.783-3.709 1.854-1.032 1.173-1.352 2.531-1.352 4.055v1.5c0 1.373 0.852 2.826 1.854 3.709 1.104 0.973 2.586 1.465 4.055 1.352 1.421-0.108 2.767-0.783 3.709-1.854 1.032-1.173 1.352-2.531 1.352-4.055v-1.5c0.02-1.38-0.84-2.84-1.84-3.72z"/>
			<path d="m369.1 223.36c-1.105-0.973-2.587-1.466-4.055-1.354-1.422 0.109-2.768 0.785-3.709 1.854-1.033 1.174-1.354 2.533-1.354 4.055v3c0 1.375 0.853 2.828 1.854 3.709 1.105 0.973 2.587 1.466 4.055 1.354 1.422-0.109 2.768-0.785 3.709-1.854 1.033-1.174 1.354-2.533 1.354-4.055v-3c0.02-1.39-0.84-2.84-1.84-3.72z"/>
			<path d="m377.05 277.5c-3.158 0.241-5.062 2.912-5.062 5.908v4.5c0 3 3.096 5.277 5.908 5.061 3.158-0.241 5.062-2.912 5.062-5.908v-4.5c0-3-3.1-5.28-5.91-5.06z"/>
			<path d="m393.46 339.56c0.001-1.374-0.852-2.828-1.854-3.709-1.104-0.973-2.586-1.466-4.055-1.354-1.42 0.109-2.767 0.785-3.709 1.854-0.161 0.184-0.299 0.372-0.427 0.564-0.405 0.277-0.774 0.596-1.073 0.936-0.973 1.105-1.465 2.587-1.352 4.055 0.108 1.422 0.783 2.768 1.854 3.709 1.172 1.033 2.531 1.354 4.055 1.354 0.314 0 0.631 0.008 0.941-0.033 0.549-0.072 1.125-0.149 1.64-0.361 1.329-0.547 1.366-0.699 2.44-1.646 0.725-0.641 1.259-2.045 1.42-2.951 0.14-0.78 0.12-1.61 0.12-2.41z"/>
</svg>
