<?xml version="1.0" encoding="UTF-8" standalone="no"?>
<!-- Generator: Adobe Illustrator 16.0.3, SVG Export Plug-In . SVG Version: 6.00 Build 0)  -->
<!DOCTYPE svg  PUBLIC '-//W3C//DTD SVG 1.1//EN'  'http://www.w3.org/Graphics/SVG/1.1/DTD/svg11.dtd'>
<svg id="Layer_1" style="enable-background:new 0 0 512 512" xmlns="http://www.w3.org/2000/svg" xml:space="preserve" height="512px" viewBox="0 0 512 512" width="512px" version="1.1" y="0px" x="0px" xmlns:xlink="http://www.w3.org/1999/xlink">
<style type="text/css">
<![CDATA[
	.st0{fill:#127274;}
	.st1{fill:#14B6B9;}
	.st2{fill:#EF4754;}
	.st3{fill:#EF4823;}
	.st4{fill:#BCBCBC;}
	.st5{fill:#231F20;}
	.st6{fill:#F6851F;}
	.st7{fill:#C56528;}
	.st8{fill:#FCBF95;}
	.st9{fill:#FEBF10;}
	.st10{fill:#010101;}
	.st11{fill:#3AB37C;}
	.st12{fill:#D6E5E5;}
	.st13{fill:#74CCCF;}
]]>
</style>
			<path class="st8" d="m426.88 209.35c-0.229-3.768-0.482-7.789-0.456-11.828-2.16-0.376-3.566 1.134-5.023 3.91-2.321 4.426-3.735 9.198-4.687 14.092-1.315 6.766-0.332 13.837-0.696 20.71-0.341 6.44-1.522 12.667-4.078 18.485 1.717 4.066 2.801 8.182 3.099 11.882 0.315 3.923 0.096 7.748-0.572 11.454 7.691-8.411 11.707-18.571 12.634-30.466 0.99-12.63 0.55-25.59-0.21-38.23z"/>
			<path class="st8" d="m97.497 266.6c0.298-3.7 1.382-7.815 3.099-11.882-2.556-5.818-3.737-12.045-4.078-18.485-0.363-6.873 0.619-13.944-0.695-20.71-0.952-4.894-2.367-9.666-4.688-14.092-1.457-2.776-2.863-4.286-5.023-3.91 0.026 4.039-0.228 8.06-0.456 11.828-0.768 12.64-1.205 25.605-0.22 38.239 0.927 11.896 4.941 22.055 12.634 30.466-0.673-3.72-0.892-7.55-0.577-11.47z"/>
			<path class="st2" d="m323.03 52.043c-12.175-9.331-29.206-11.688-43.428-5.834-15.254 6.279-23.26 20.582-22.579 36.783 0.706 4.297-3.979 6.974-7.5 5.769-1.603-0.5-2.934-1.71-3.341-3.681-3.4-9.243-7.893-18.157-13.926-25.978-6.733-8.726-15.858-17.042-27.078-19.066-11.078-1.998-22.433 4.174-30.069 11.805-8.001 7.995-14.698 18.066-17.964 28.983-4.121 13.774-0.459 29.122 3.839 42.403 8.669 26.785 19.346 52.887 34.448 76.73 14.365 22.68 31.58 43.261 51.11 61.642 4.327-3.878 7.462-9.734 10.68-14.105 6.242-8.48 12.294-17.083 18.686-25.456 10.497-13.749 21.769-26.941 31.809-41.031 14.635-20.538 28.297-43.774 32.669-68.954 3.62-20.866 0.59-46.259-17.36-60.017z"/>
			<path class="st8" d="m236.45 429.94c-7.459-11.347-16.224-22.188-25.794-31.827-1.755-1.767-1.612-4.567-0.418-6.555 6.821-11.353 15.206-23.939 13.851-37.817-1.148-11.758-9.562-21.936-18.682-28.729-9.091-6.774-19.534-11.583-29.136-17.564-11.914-7.421-23.858-16.134-32.064-27.745-3.198-4.525-4.821-9.669-5.519-15.124-0.781-6.114-0.634-11.575-3.71-17.112-3.89-7.004-10.847-4.779-15.917-0.522-2.597 2.181-4.741 4.797-6.433 7.679 1.693 3.179-0.302 5.957-3.041 6.904-1.025 3.315-1.545 6.791-1.537 10.249 0.029 12.453 8.816 23.666 17.438 31.73 5.125 4.793 11.225 8.65 17.447 11.835 6.168 3.158 0.084 12.033-6.011 8.913-13.538-6.931-26.692-18.162-33.903-31.996-1.555 1.18-3.66 1.419-5.678-0.255-9.646-8.002-16.663-17.391-20.241-29.478-3.495-11.805-2.812-24.737-2.685-36.901 0.105-9.906 1.096-19.843 0.86-29.741-0.104-4.307-0.749-8.77-2.688-12.649-0.943-1.887-8.999-7.561-9.393-3.754-0.056 0.543-0.181 1.033-0.351 1.481 0.461 1.647 0.84 3.253 1.134 4.768 4.312 22.262-6.762 44.464-8.029 66.521-0.622 10.808 1.727 19.981 7.028 29.393 4.318 7.665 10.009 14.507 15.655 21.275 0.681 0.083 1.354 0.281 1.978 0.583 3.153-3.155 7.077-5.514 11.382-6.571 6.741-1.655 8.762 8.907 2.053 10.553-5.54 1.36-11.104 8.433-10.41 14.222 0.82 6.841-9.727 8.94-10.553 2.051-0.387-3.219-0.012-6.461 0.966-9.536-7.979-9.716-16.181-19.325-22.165-30.453-6.358-11.823-7.544-24.32-6.256-37.496 2.339-23.908 15.801-49.829 2.751-72.795-4.536-7.983-12.966-7.342-18.915-1.204-6.071 6.263-7.762 17.188-9.032 25.415-1.956 12.67-0.454 25.043 1.008 37.714 1.745 15.121 2.457 30.276 3.001 45.482 0.402 11.22 1.214 22.31 4.374 33.137 2.426 8.31 6.363 16.087 10.9 23.427 9.354 15.131 22.104 28.094 34.278 40.939 12.139 12.808 23.217 25.973 33.971 39.938 10.282 13.352 21.854 26.508 27.176 42.707h0.805c1.1 0 2.001 0.271 2.716 0.725 2.072 0.4 4.146 0.865 6.123 1.118 5.16 0.662 10.353 1.06 15.545 1.366 10.617 0.625 21.27 0.552 31.897 0.296 19.443-0.468 38.856-1.85 58.309-2.01 0.36-11.46-8.23-23.67-14.1-32.6z"/>
			<path class="st8" d="m492.1 197.68c-1.271-8.227-2.961-19.152-9.032-25.415-5.949-6.138-14.379-6.779-18.915 1.204-13.051 22.966 0.412 48.887 2.75 72.795 1.289 13.175 0.104 25.673-6.255 37.496-5.984 11.128-14.185 20.736-22.165 30.453 0.978 3.074 1.353 6.317 0.966 9.536-0.827 6.89-11.373 4.79-10.553-2.051 0.694-5.789-4.87-12.861-10.41-14.222-6.708-1.646-4.688-12.208 2.053-10.553 4.306 1.057 8.228 3.416 11.382 6.571 0.624-0.302 1.297-0.499 1.978-0.583 5.646-6.768 11.337-13.61 15.655-21.275 5.302-9.412 7.65-18.585 7.029-29.393-1.268-22.057-12.343-44.259-8.03-66.521 0.294-1.514 0.673-3.121 1.134-4.768-0.17-0.448-0.295-0.938-0.352-1.481-0.393-3.807-8.448 1.867-9.392 3.754-1.939 3.879-2.585 8.342-2.688 12.649-0.236 9.898 0.755 19.835 0.859 29.741 0.129 12.164 0.811 25.096-2.684 36.901-3.578 12.087-10.595 21.476-20.242 29.478-2.018 1.674-4.123 1.435-5.677 0.255-7.211 13.834-20.364 25.065-33.903 31.996-6.096 3.12-12.179-5.755-6.012-8.913 6.224-3.186 12.323-7.042 17.447-11.835 8.622-8.064 17.408-19.277 17.438-31.73 0.008-3.458-0.511-6.934-1.536-10.249-2.739-0.948-4.733-3.725-3.041-6.904-1.691-2.882-3.836-5.499-6.433-7.679-5.07-4.257-12.027-6.482-15.918 0.522-3.076 5.537-2.928 10.999-3.709 17.112-0.697 5.454-2.32 10.599-5.52 15.124-8.205 11.61-20.149 20.324-32.063 27.745-9.602 5.981-20.045 10.79-29.136 17.564-9.119 6.794-17.533 16.972-18.682 28.729-1.355 13.878 7.029 26.464 13.851 37.817 1.194 1.987 1.337 4.788-0.418 6.555-9.57 9.639-18.335 20.479-25.794 31.827-5.873 8.937-14.467 21.141-14.084 32.59 19.451 0.161 38.864 1.542 58.308 2.01 10.628 0.256 21.28 0.329 31.897-0.296 5.192-0.306 10.385-0.704 15.545-1.366 1.978-0.253 4.051-0.718 6.123-1.118 0.715-0.454 1.615-0.725 2.715-0.725h0.807c5.321-16.199 16.893-29.355 27.174-42.707 10.754-13.965 21.832-27.131 33.971-39.938 12.176-12.846 24.926-25.808 34.279-40.939 4.537-7.34 8.475-15.117 10.9-23.427 3.16-10.827 3.972-21.917 4.374-33.137 0.544-15.206 1.256-30.361 3.001-45.482 1.42-12.67 2.92-25.04 0.96-37.72z"/>
			<path class="st10" d="m502.09 192.46c-2.784-15.421-8.598-31.208-25.208-35.477-10.55-2.711-17.926 3.931-22.615 12.507-6.793-3.486-17.617-0.251-22.263 6.269-2.31 3.241-3.702 6.919-4.527 10.79-9.825-1.361-16.31 9.888-19.321 19.093-2.183 6.667-2.832 13.018-2.723 20.002 0.091 5.737 0.033 11.361-1 16.784-6.022-7.072-14.115-11.812-23.031-10.121-9.394 1.782-16.011 11.451-17.205 20.542-0.688 5.233-0.396 10.814-2.131 15.865-2.25 6.552-8.324 11.786-13.252 16.372-17.763 16.529-43.178 22.956-59.172 41.506-8.18 9.487-12.958 21.949-11.868 34.495 1.028 11.83 7.263 22.626 13.341 32.711-9.16 9.641-17.296 20.307-24.659 31.349-3.408 5.109-7.225 11.014-10.188 17.267-2.963-6.252-6.779-12.157-10.188-17.267-7.363-11.042-15.499-21.708-24.66-31.349 6.079-10.085 12.313-20.881 13.342-32.711 1.09-12.546-3.688-25.008-11.868-34.495-15.994-18.55-41.409-24.977-59.172-41.506-4.928-4.586-11.001-9.82-13.252-16.372-1.734-5.05-1.443-10.631-2.132-15.865-1.193-9.092-7.811-18.76-17.205-20.542-8.915-1.691-17.008 3.049-23.03 10.121-1.034-5.422-1.091-11.046-1-16.784 0.109-6.985-0.54-13.336-2.722-20.002-3.013-9.205-9.497-20.454-19.322-19.093-0.826-3.871-2.219-7.549-4.527-10.79-4.646-6.52-15.471-9.754-22.262-6.269-4.69-8.576-12.066-15.218-22.616-12.507-16.61 4.269-22.424 20.056-25.208 35.477-2.067 11.453-1.984 22.323-0.786 33.92 1.602 15.487 3.146 30.828 3.785 46.389 0.626 15.218 0.749 30.46 5.398 45.115 3.611 11.381 9.113 21.767 16.006 31.5 14.396 20.327 33.018 37.01 49.222 55.805 7.912 9.175 14.942 19.067 22.398 28.609 7.927 10.144 16.231 20.892 19.391 33.613 0.557 2.243 2.112 3.505 3.869 3.945 0.59 0.246 1.272 0.39 2.061 0.39 4.502 0 9.364 1.546 13.874 2.047 5.183 0.575 10.38 1.012 15.589 1.252 10.043 0.464 20.098 0.475 30.147 0.205 20.336-0.544 40.647-1.994 60.996-2.039 1.642-0.003 2.939-0.615 3.873-1.543 0.933 0.928 2.23 1.54 3.872 1.543 20.349 0.044 40.66 1.495 60.996 2.039 10.05 0.27 20.104 0.259 30.147-0.205 5.209-0.24 10.406-0.678 15.589-1.252 4.51-0.5 9.372-2.047 13.874-2.047 0.788 0 1.471-0.144 2.061-0.39 1.757-0.44 3.312-1.702 3.869-3.945 3.159-12.722 11.464-23.469 19.391-33.613 7.456-9.542 14.486-19.435 22.397-28.609 16.205-18.794 34.827-35.478 49.223-55.805 6.893-9.733 12.395-20.119 16.006-31.5 4.648-14.655 4.772-29.897 5.398-45.115 0.64-15.562 2.184-30.902 3.785-46.389 1.17-11.58 1.26-22.45-0.81-33.91zm-416.44 16.89c0.229-3.768 0.482-7.789 0.456-11.828 2.16-0.376 3.566 1.134 5.023 3.91 2.32 4.426 3.735 9.198 4.688 14.092 1.314 6.766 0.332 13.837 0.695 20.71 0.341 6.44 1.522 12.667 4.078 18.485-1.717 4.066-2.801 8.182-3.099 11.882-0.315 3.923-0.096 7.748 0.572 11.454-7.692-8.411-11.707-18.571-12.634-30.466-0.989-12.63-0.551-25.59 0.216-38.23zm106.56 255.19c-10.628 0.256-21.28 0.329-31.897-0.296-5.192-0.306-10.385-0.704-15.545-1.366-1.978-0.253-4.051-0.718-6.123-1.118-0.715-0.454-1.616-0.725-2.716-0.725h-0.805c-5.322-16.199-16.894-29.355-27.176-42.707-10.754-13.965-21.832-27.131-33.971-39.938-12.175-12.846-24.925-25.808-34.278-40.939-4.537-7.34-8.475-15.117-10.9-23.427-3.16-10.827-3.972-21.917-4.374-33.137-0.544-15.206-1.256-30.361-3.001-45.482-1.462-12.671-2.964-25.044-1.008-37.714 1.271-8.227 2.961-19.152 9.032-25.415 5.949-6.138 14.379-6.779 18.915 1.204 13.05 22.966-0.412 48.887-2.751 72.795-1.288 13.175-0.103 25.673 6.256 37.496 5.984 11.128 14.186 20.736 22.165 30.453-0.978 3.074-1.353 6.317-0.966 9.536 0.826 6.89 11.373 4.79 10.553-2.051-0.694-5.789 4.87-12.861 10.41-14.222 6.709-1.646 4.688-12.208-2.053-10.553-4.305 1.057-8.229 3.416-11.382 6.571-0.624-0.302-1.297-0.499-1.978-0.583-5.646-6.768-11.337-13.61-15.655-21.275-5.302-9.412-7.65-18.585-7.028-29.393 1.268-22.057 12.342-44.259 8.029-66.521-0.294-1.514-0.673-3.121-1.134-4.768 0.17-0.448 0.295-0.938 0.351-1.481 0.394-3.807 8.449 1.867 9.393 3.754 1.939 3.879 2.585 8.342 2.688 12.649 0.235 9.898-0.755 19.835-0.86 29.741-0.128 12.164-0.811 25.096 2.685 36.901 3.578 12.087 10.595 21.476 20.241 29.478 2.018 1.674 4.123 1.435 5.678 0.255 7.211 13.834 20.365 25.065 33.903 31.996 6.095 3.12 12.179-5.755 6.011-8.913-6.223-3.186-12.322-7.042-17.447-11.835-8.621-8.064-17.408-19.277-17.438-31.73-0.008-3.458 0.512-6.934 1.537-10.249 2.739-0.948 4.734-3.725 3.041-6.904 1.691-2.882 3.836-5.499 6.433-7.679 5.07-4.257 12.027-6.482 15.917 0.522 3.076 5.537 2.929 10.999 3.71 17.112 0.697 5.454 2.32 10.599 5.519 15.124 8.206 11.61 20.15 20.324 32.064 27.745 9.602 5.981 20.045 10.79 29.136 17.564 9.119 6.794 17.533 16.972 18.682 28.729 1.355 13.878-7.029 26.464-13.851 37.817-1.194 1.987-1.337 4.788 0.418 6.555 9.57 9.639 18.335 20.479 25.794 31.827 5.872 8.937 14.466 21.141 14.085 32.59-19.44 0.15-38.85 1.53-58.3 2zm224.49-249.02c0.951-4.894 2.365-9.666 4.687-14.092 1.457-2.776 2.863-4.286 5.023-3.91-0.026 4.039 0.228 8.06 0.456 11.828 0.768 12.64 1.205 25.605 0.22 38.239-0.927 11.896-4.942 22.055-12.634 30.466 0.668-3.706 0.888-7.531 0.572-11.454-0.298-3.7-1.382-7.815-3.099-11.882 2.556-5.818 3.737-12.045 4.078-18.485 0.36-6.88-0.62-13.95 0.69-20.72zm74.38 19.88c-1.745 15.121-2.457 30.276-3.001 45.482-0.402 11.22-1.214 22.31-4.374 33.137-2.426 8.31-6.363 16.087-10.9 23.427-9.354 15.131-22.104 28.094-34.279 40.939-12.139 12.808-23.217 25.973-33.971 39.938-10.281 13.352-21.853 26.508-27.174 42.707h-0.807c-1.1 0-2 0.271-2.715 0.725-2.072 0.4-4.146 0.865-6.123 1.118-5.16 0.662-10.353 1.06-15.545 1.366-10.617 0.625-21.27 0.552-31.897 0.296-19.443-0.468-38.856-1.85-58.308-2.01-0.383-11.449 8.211-23.653 14.084-32.59 7.459-11.347 16.224-22.188 25.794-31.827 1.755-1.767 1.612-4.567 0.418-6.555-6.821-11.353-15.206-23.939-13.851-37.817 1.148-11.758 9.562-21.936 18.682-28.729 9.091-6.774 19.534-11.583 29.136-17.564 11.914-7.421 23.858-16.134 32.063-27.745 3.199-4.525 4.822-9.669 5.52-15.124 0.781-6.114 0.633-11.575 3.709-17.112 3.891-7.004 10.848-4.779 15.918-0.522 2.597 2.181 4.741 4.797 6.433 7.679-1.692 3.179 0.302 5.957 3.041 6.904 1.025 3.315 1.544 6.791 1.536 10.249-0.029 12.453-8.815 23.666-17.438 31.73-5.124 4.793-11.224 8.65-17.447 11.835-6.167 3.158-0.084 12.033 6.012 8.913 13.539-6.931 26.692-18.162 33.903-31.996 1.554 1.18 3.659 1.419 5.677-0.255 9.647-8.002 16.664-17.391 20.242-29.478 3.494-11.805 2.812-24.737 2.684-36.901-0.104-9.906-1.096-19.843-0.859-29.741 0.104-4.307 0.749-8.77 2.688-12.649 0.943-1.887 8.999-7.561 9.392-3.754 0.057 0.543 0.182 1.033 0.352 1.481-0.461 1.647-0.84 3.253-1.134 4.768-4.312 22.262 6.763 44.464 8.03 66.521 0.621 10.808-1.728 19.981-7.029 29.393-4.318 7.665-10.009 14.507-15.655 21.275-0.681 0.083-1.354 0.281-1.978 0.583-3.154-3.155-7.076-5.514-11.382-6.571-6.741-1.655-8.761 8.907-2.053 10.553 5.54 1.36 11.104 8.433 10.41 14.222-0.82 6.841 9.726 8.94 10.553 2.051 0.387-3.219 0.012-6.461-0.966-9.536 7.98-9.716 16.181-19.325 22.165-30.453 6.358-11.823 7.544-24.32 6.255-37.496-2.338-23.908-15.801-49.829-2.75-72.795 4.536-7.983 12.966-7.342 18.915-1.204 6.071 6.263 7.762 17.188 9.032 25.415 1.97 12.68 0.47 25.05-1 37.72z"/>
			<path class="st10" d="m350.67 77.899c-4.119-19.121-16.679-35.67-35.308-42.434-15.556-5.648-32.97-4.156-47.231 4.262-9.596 5.664-16.03 14.448-19.385 24.464-8.004-14.471-19.42-27.401-34.892-33.071-23.251-8.52-45.419 7.817-57.646 26.639-6.527 10.047-11.284 21.268-11.664 33.363-0.458 14.604 3.586 28.807 8.319 42.482 9.143 26.417 20.114 51.719 35.237 75.305 14.245 22.216 31.568 42.472 50.764 60.564-0.152 3.625 2.812 7.306 6.998 5.408 10.889-4.934 17.027-16.478 23.688-25.831 9.023-12.669 18.577-24.951 28.124-37.227 15.343-19.726 30.474-39.12 41.411-61.769 10.84-22.43 16.92-47.4 11.59-72.141zm-10.28 34.151c-4.372 25.18-18.034 48.417-32.669 68.954-10.04 14.09-21.312 27.283-31.809 41.031-6.392 8.373-12.443 16.976-18.686 25.456-3.218 4.371-6.353 10.227-10.68 14.105-19.53-18.381-36.745-38.962-51.11-61.642-15.103-23.843-25.779-49.945-34.448-76.73-4.298-13.281-7.96-28.629-3.839-42.403 3.266-10.917 9.963-20.988 17.964-28.983 7.637-7.63 18.991-13.802 30.069-11.805 11.22 2.023 20.345 10.34 27.078 19.066 6.033 7.821 10.525 16.734 13.926 25.978 0.407 1.971 1.738 3.181 3.341 3.681 3.521 1.206 8.206-1.472 7.5-5.769-0.681-16.201 7.325-30.504 22.579-36.783 14.222-5.854 31.253-3.497 43.428 5.834 17.95 13.755 20.98 39.148 17.36 60.004z"/>
</svg>
