<?xml version="1.0" encoding="UTF-8" standalone="no"?>
<!-- Generator: Adobe Illustrator 16.0.3, SVG Export Plug-In . SVG Version: 6.00 Build 0)  -->
<!DOCTYPE svg  PUBLIC '-//W3C//DTD SVG 1.1//EN'  'http://www.w3.org/Graphics/SVG/1.1/DTD/svg11.dtd'>
<svg id="Layer_1" style="enable-background:new 0 0 512 512" xmlns="http://www.w3.org/2000/svg" xml:space="preserve" height="512px" viewBox="0 0 512 512" width="512px" version="1.1" y="0px" x="0px" xmlns:xlink="http://www.w3.org/1999/xlink">
<style type="text/css">
<![CDATA[
	.st0{fill:#127274;}
	.st1{fill:#14B6B9;}
	.st2{fill:#1E4384;}
	.st3{fill:#EF4754;}
	.st4{fill:#EF4823;}
	.st5{fill:#BCBCBC;}
	.st6{fill:#231F20;}
	.st7{fill:#F6851F;}
	.st8{fill:#C56528;}
	.st9{fill:#FCBF95;}
	.st10{fill:#FEBF10;}
	.st11{fill:none;}
	.st12{fill:#010101;}
	.st13{fill:#3AB37C;}
	.st14{fill:#D6E5E5;}
	.st15{fill:#74CCCF;}
]]>
</style>
			<path class="st1" d="m256.4 273.13c-4.715 0.318-10.875 0.734-14.945 3.375-0.223 0.145-0.387 0.281-0.521 0.405 0.059 0.03 0.114 0.06 0.184 0.09 2.57 1.104 5.387 1.521 8.095 2.171 4.171 1.001 8.71 2.299 12.052 5.038 2.665-4.346 7.296-6.694 11.131-9.954-4.61-2.85-10.36-1.5-16-1.12z"/>
			<path class="st7" d="m142.33 111.82c-5.193-4.384-10.8-7.225-17.114-9.658-5.873-2.265-11.668-4.445-16.764-8.236-0.309-0.229-0.609-0.471-0.913-0.707 4.252 9.252 14.127 17.344 21.391 22.511 4.986 3.547 19.046 7.287 19.676 14.964 1.835-1.983 3.753-3.895 5.746-5.737-4.04-4.34-7.52-9.31-12.04-13.13z"/>
			<path class="st7" d="m395.13 73.231c-16.979 8.331-33.831 18.194-43.769 34.684 3.714 1.886 7.37 3.898 10.966 6.029 4.513-15.542 20.412-29.419 34.495-35.574 0.079-0.034 0.155-0.059 0.233-0.089-0.71-1.657-1.37-3.336-1.92-5.056z"/>
			<path class="st4" d="m285.33 343.88c-0.585-1.038-0.773-2.079-0.676-3.048-6.994-3.619-13.9-8.331-19.074-14.398-0.795 2.266-1.848 4.457-3.238 6.545-2.729 4.096-5.876 7.85-9.465 11.084 0.641 0.409 1.289 0.812 1.898 1.266 1.185 0.877 1.746 1.945 1.854 3.025 4.935 4.681 10.912 8.947 17.303 9.767 4.194 0.539 7.292-1.055 9.367-4.778 1.37-2.47 3.63-6.62 2.03-9.47z"/>
			<path class="st7" d="m463.86 305.08c-4.531 0.054-7.962-6.573-3.181-9.131 6.323-3.385 14.276-11.931 16.401-20.361-2.774 2.107-5.727 3.958-8.873 5.288-5.836 2.467-13.75 2.078-15.949-5.108-3.712-12.131 6.673-25.435 18.459-30.017-4.991-7.706-11.034-14.727-15.387-22.861-5.332-9.964-8.262-20.73-10.255-31.808-1.4-7.785-3.146-15.576-5.771-23.048-2.092-5.956-4.832-14.578-11.055-17.461-1.777-0.823-2.599-2.224-2.725-3.698-0.506-0.64-0.876-1.436-1.037-2.396-2.549-15.215-5.723-30.234-14.059-43.445-2.953-4.68-6.104-9.307-8.907-14.092-0.392 0.34-0.854 0.636-1.395 0.872-6.644 2.903-12.702 7.841-17.647 13.081-4.829 5.117-9.786 11.041-11.098 18.153-0.311 1.683-1.232 2.78-2.393 3.372-0.701 2.906-3.533 5.176-6.74 3.153-33.518-21.146-73.203-31.351-112.87-28.071-33.933 2.806-72.188 15.559-95.15 41.893-3.101 3.557-7.961 0.975-8.676-2.575-2.73 1.097-6.387-0.946-6.924-4.095-0.184-0.171-0.445-0.395-0.842-0.688-1.05-0.776-2.139-1.473-3.272-2.122-2.221-1.273-4.479-2.473-6.771-3.613-4.833-2.404-9-5.554-12.994-9.201-4.132-3.772-8.684-8.27-12.327-13.305 0.565 9.781 0.621 19.516-2.343 29.292-5.405 17.826-15.502 33.589-21.824 51.032-6.535 18.026-8.481 37.125-17.023 54.541-6.614 13.484-15.4 25.645-24.703 37.375 10.25 3.956 20.812 6.283 31.897 7.15 2.109 0.165 3.973 2.499 4.032 4.523 0.402 13.633-11.558 23.023-23.061 30.474l0.028 0.003c2.605 0.284 5.526 0.021 8.062 0.713 5.884 1.604 7.369 6.491 5.435 11.928-3.494 9.814-11.661 15.695-21.136 17.613 13.578 16.543 33.566 27.051 53.826 33.125 21.896 6.563 43.664 7.967 66.335 8.65 40.052 1.208 86.228 10.575 111.56 43.91 6.068-12.65 20.227-21.049 32.836-26.146 23.513-9.506 49.372-10.688 73.669-17.439 11.997-3.334 23.772-7.837 34.63-13.975 10.717-6.059 19.967-13.463 29.24-21.487 15.069-13.038 30.868-30.312 34.074-50.765-4.71 0.31-9.41 0.74-14.12 0.8zm-171.86-86.22c8.52-16.013 36.275-28.449 47.623-8.571 3.18 5.569-5.088 11.201-8.289 5.592-7.256-12.709-25.227-2.249-30.377 7.429-3.01 5.68-11.99 1.26-8.95-4.45zm-129.43 4.28c2.104-11.848 18.688-14.948 28.558-15.815 12.582-1.105 24.126 6.627 29.07 18.116 2.557 5.941-6.907 9.191-9.439 3.307-3.376-7.845-11.509-12.343-19.811-11.352-4.544 0.543-17.524 1.812-18.562 7.652-1.13 6.35-10.95 4.43-9.82-1.91zm187.44 117.03c-16.178 9.848-36.505 11.057-54.404 5.266 0.5 9.739-6.584 20.615-16.077 22.438-13.098 2.515-26.204-7.913-34.356-17.029-0.229-0.254-0.422-0.516-0.595-0.779-1.925 1.085-3.94 2.041-6.063 2.834-10.302 3.85-21.55 4.484-32.374 2.811-9.906-1.532-21.614-3.467-30.376-8.61-17.965-10.545-26.475-43.096-9.861-58.474 6.663-6.168 16.753-10.426 23.853-2.318 7.982 9.115 1.556 19.976-9.897 20.768-6.441 0.445-7.197-9.528-0.77-9.973 1.376-0.096 3.928-0.434 4.559-1.996 0.406-1.006-1.867-3.149-2.816-3.301-2.72-0.437-5.586 1.567-7.415 3.422-5.921 6.003-7.13 14.087-5.479 22.246 1.461 7.226 4.455 16.076 11.199 20.034 6.324 3.713 13.26 4.974 20.292 6.673 14.052 3.396 30.409 4.182 42.877-4.424 6.317-4.36 12.829-11.09 14.493-18.838 0.72-3.355 0.982-6.73 1.039-10.116-0.429-2.502-0.564-5.066-0.589-7.853-0.019-2.092-0.028-4.211 0.257-6.253-0.007-0.408-0.014-0.815-0.018-1.224 0-0.035 0.004-0.068 0.004-0.104-0.437-0.369-0.834-0.85-1.162-1.485-3.398-6.579-14.636-4.782-20.373-8.289-6.837-4.178-7.541-13.192-0.094-17.384 6.126-3.447 13.81-5.007 20.82-5.104 4.81-0.066 9.633-1.381 14.439-0.194 5.316 1.312 9.098 4.148 12.496 8.379 1.477 1.838 0.872 4.388-0.389 6.097-3.908 5.304-12.041 7.593-14.277 13.924-0.228 0.646-0.535 1.168-0.896 1.584 0.376 1.279 0.274 2.715-0.558 4.077 0.002 0.036 0.002 0.071 0.003 0.107 0.206-0.155 0.138 0.247 0.021 0.713 0.124 4.271 0.378 8.669 0.338 13.032 1.016 3.851 3.639 7.609 6.289 10.256 7.123 7.108 16.355 12.584 26.078 15.266 18.414 5.078 40.526 2.994 53.577-12.479 8.395-9.953 13.56-28.595 0.65-37.683-5.695-4.009-15.935-4.734-20.638 1.355-4.355 5.642 8.129 6.337 10.436 8.723 2.635 2.727 2.019 7.017-1.648 8.477-0.559 0.222-1.152 0.306-1.746 0.333-1.028 0.049-1.91-0.167-2.643-0.561-0.2-0.037-1.062-0.596-1.873-0.863-1.361-0.451-2.75-0.893-4.062-1.477-2.34-1.042-5.119-2.438-6.558-4.675-3.353-5.217-3.912-11.716 0.581-16.559 13.4-14.448 37.942-7.356 43.93 10.652 6.27 18.83-3.81 38.55-20.23 48.54z"/>
			<path class="st12" d="m483.09 294.1c-1.697 0.021-3.393 0.09-5.086 0.184 7.383-8.887 12.138-20.987 8.19-30.851-1.455-3.636-5.765-4.319-8.476-1.646-2.863 2.819-5.964 5.338-9.293 7.589-1.682 1.137-3.415 2.067-5.319 2.76-0.249 0.091-1.02 0.359-1.4 0.338-0.004-0.008-0.005-0.011-0.009-0.019-3.531-8.013 10.459-18.07 17.162-18.382 4.105-0.191 5.397-4.639 3.76-7.782-5.752-11.046-14.613-20.042-20.165-31.232-4.741-9.557-6.408-20.182-8.513-30.524-1.767-8.685-3.961-17.319-7.378-25.515-2.608-6.255-6.296-13.047-12.318-16.591-2.341-13.822-5.144-27.621-11.573-40.203-6.167-12.064-17.018-22.732-19.211-36.523-0.457-2.877-3.504-5.831-6.64-4.335-21.154 10.099-42.335 21.521-54.539 42.224-29.657-13.145-62.413-18.652-95.021-15.957-29.215 2.416-61.304 12.353-85.314 30.894-0.058-0.065-0.109-0.132-0.172-0.196-4.412-4.568-8.171-9.705-12.846-14.027-5.143-4.753-11.35-7.935-17.789-10.525-5.992-2.41-12.054-4.366-17.291-8.263-5.181-3.854-9.714-8.368-15.15-11.908-3.595-2.341-7.05 1.574-7.211 4.864-0.416 8.506 0.552 16.947 1.193 25.417 0.711 9.402 0.144 18.188-2.416 27.282-4.764 16.928-14.639 32.139-20.967 48.491-6.492 16.774-8.318 34.774-15.551 51.365-7.036 16.139-18.018 30.18-29.029 43.76-1.967 2.424-1.514 6.399 1.531 7.779 11.393 5.161 23.183 8.494 35.514 9.952-1.949 5.158-7.439 9.463-11.365 12.538-5.609 4.396-11.782 7.97-17.72 11.886-3.782 2.494-2.282 8.056 1.842 9.053 4.759 1.15 9.396 1.607 14.237 2.135 1.469 0.16 2.949 0.211 4.424 0.303-3.244 7.67-11.584 11.455-19.753 10.746-4.224-0.366-7.634 3.769-5.099 7.704 24.869 38.621 75.832 51.365 118.98 53.054 11.01 0.43 21.949 0.281 32.936 1.37 11.432 1.133 22.772 3.2 33.827 6.331 21.497 6.088 41.784 17.713 54.408 36.563 1.018 1.519 1.939 3.097 2.848 4.682 2.05 3.581 8.742 2.491 9.053-1.842 1.349-18.776 22.955-27.956 38.447-32.956 25.228-8.141 52.147-9.184 77.232-18.156 23.01-8.23 42.145-21.933 59.944-38.387 16.782-15.512 31.149-35.35 32.454-58.84 0.17-2.83-2.92-4.62-5.36-4.59zm-87.96-220.87c0.555 1.72 1.207 3.399 1.926 5.05-0.078 0.03-0.154 0.055-0.233 0.089-14.083 6.155-29.982 20.032-34.495 35.574-3.596-2.131-7.252-4.144-10.966-6.029 9.93-16.485 26.78-26.348 43.76-34.679zm-286.68 20.694c5.096 3.791 10.891 5.972 16.764 8.236 6.314 2.434 11.921 5.274 17.114 9.658 4.526 3.82 8.001 8.793 12.021 13.136-1.993 1.843-3.911 3.754-5.746 5.737-0.63-7.677-14.689-11.417-19.676-14.964-7.264-5.167-17.139-13.259-21.391-22.511 0.32 0.226 0.62 0.467 0.93 0.696zm335.44 261.14c-9.273 8.024-18.523 15.429-29.24 21.487-10.857 6.138-22.633 10.641-34.63 13.975-24.297 6.751-50.156 7.934-73.669 17.439-12.609 5.098-26.768 13.496-32.836 26.146-25.338-33.335-71.514-42.702-111.56-43.91-22.671-0.684-44.439-2.087-66.335-8.65-20.26-6.074-40.248-16.582-53.826-33.125 9.475-1.918 17.642-7.799 21.136-17.613 1.935-5.437 0.449-10.324-5.435-11.928-2.535-0.691-5.456-0.429-8.062-0.713l-0.028-0.003c11.503-7.45 23.463-16.841 23.061-30.474-0.06-2.024-1.923-4.358-4.032-4.523-11.086-0.867-21.647-3.194-31.897-7.15 9.303-11.73 18.089-23.891 24.703-37.375 8.542-17.416 10.488-36.515 17.023-54.541 6.322-17.443 16.419-33.206 21.824-51.032 2.964-9.776 2.908-19.511 2.343-29.292 3.644 5.035 8.195 9.532 12.327 13.305 3.994 3.647 8.161 6.797 12.994 9.201 2.291 1.141 4.55 2.34 6.771 3.613 1.134 0.649 2.223 1.346 3.272 2.122 0.396 0.294 0.658 0.518 0.842 0.688 0.537 3.148 4.193 5.191 6.924 4.095 0.715 3.55 5.575 6.132 8.676 2.575 22.963-26.334 61.218-39.087 95.15-41.893 39.666-3.279 79.352 6.926 112.87 28.071 3.207 2.022 6.039-0.247 6.74-3.153 1.16-0.592 2.082-1.689 2.393-3.372 1.312-7.112 6.269-13.036 11.098-18.153 4.945-5.24 11.004-10.178 17.647-13.081 0.541-0.236 1.003-0.532 1.395-0.872 2.804 4.785 5.954 9.412 8.907 14.092 8.336 13.211 11.51 28.23 14.059 43.445 0.161 0.961 0.531 1.757 1.037 2.396 0.126 1.475 0.947 2.875 2.725 3.698 6.223 2.883 8.963 11.505 11.055 17.461 2.625 7.472 4.37 15.263 5.771 23.048 1.993 11.077 4.923 21.844 10.255 31.808 4.353 8.135 10.396 15.155 15.387 22.861-11.786 4.582-22.171 17.886-18.459 30.017 2.199 7.187 10.113 7.575 15.949 5.108 3.146-1.33 6.099-3.181 8.873-5.288-2.125 8.431-10.078 16.977-16.401 20.361-4.781 2.558-1.351 9.185 3.181 9.131 4.713-0.056 9.405-0.488 14.105-0.768-3.22 20.4-19.02 37.68-34.09 50.71z"/>
			<path class="st12" d="m370.24 291.59c-5.987-18.009-30.529-25.101-43.93-10.652-4.493 4.843-3.934 11.342-0.581 16.559 1.438 2.237 4.218 3.633 6.558 4.675 1.312 0.584 2.7 1.025 4.062 1.477 0.811 0.268 1.673 0.826 1.873 0.863 0.732 0.394 1.614 0.609 2.643 0.561 0.594-0.027 1.188-0.111 1.746-0.333 3.667-1.46 4.283-5.75 1.648-8.477-2.307-2.386-14.791-3.081-10.436-8.723 4.703-6.09 14.942-5.364 20.638-1.355 12.909 9.088 7.744 27.729-0.65 37.683-13.051 15.473-35.163 17.557-53.577 12.479-9.723-2.682-18.955-8.157-26.078-15.266-2.65-2.646-5.273-6.405-6.289-10.256 0.04-4.363-0.214-8.762-0.338-13.032 0.117-0.466 0.186-0.868-0.021-0.713-0.001-0.036-0.001-0.071-0.003-0.107 0.832-1.362 0.934-2.798 0.558-4.077 0.36-0.416 0.668-0.938 0.896-1.584 2.236-6.331 10.369-8.62 14.277-13.924 1.261-1.709 1.865-4.259 0.389-6.097-3.398-4.23-7.18-7.067-12.496-8.379-4.807-1.187-9.63 0.128-14.439 0.194-7.011 0.097-14.694 1.656-20.82 5.104-7.447 4.191-6.743 13.206 0.094 17.384 5.737 3.507 16.975 1.71 20.373 8.289 0.328 0.636 0.726 1.116 1.162 1.485 0 0.035-0.004 0.068-0.004 0.104 0.004 0.408 0.011 0.815 0.018 1.224-0.285 2.042-0.275 4.161-0.257 6.253 0.024 2.786 0.16 5.351 0.589 7.853-0.057 3.386-0.319 6.761-1.039 10.116-1.664 7.748-8.176 14.478-14.493 18.838-12.468 8.605-28.825 7.819-42.877 4.424-7.032-1.699-13.968-2.96-20.292-6.673-6.744-3.958-9.738-12.809-11.199-20.034-1.65-8.159-0.441-16.243 5.479-22.246 1.829-1.854 4.695-3.858 7.415-3.422 0.949 0.151 3.223 2.295 2.816 3.301-0.631 1.562-3.183 1.9-4.559 1.996-6.428 0.444-5.672 10.418 0.77 9.973 11.453-0.792 17.88-11.652 9.897-20.768-7.1-8.107-17.189-3.85-23.853 2.318-16.613 15.378-8.104 47.929 9.861 58.474 8.762 5.144 20.47 7.078 30.376 8.61 10.824 1.674 22.072 1.039 32.374-2.811 2.123-0.793 4.139-1.749 6.063-2.834 0.173 0.264 0.366 0.525 0.595 0.779 8.152 9.116 21.259 19.544 34.356 17.029 9.493-1.822 16.577-12.698 16.077-22.438 17.899 5.791 38.227 4.582 54.404-5.266 16.41-9.97 26.49-29.69 20.22-48.56zm-121.03-12.42c-2.708-0.65-5.524-1.067-8.095-2.171-0.069-0.03-0.125-0.06-0.184-0.09 0.135-0.124 0.299-0.261 0.521-0.405 4.07-2.641 10.23-3.057 14.945-3.375 5.635-0.38 11.387-1.725 15.994 1.125-3.835 3.26-8.466 5.608-11.131 9.954-3.34-2.72-7.88-4.02-12.05-5.02zm34.09 74.18c-2.075 3.724-5.173 5.317-9.367 4.778-6.391-0.819-12.368-5.086-17.303-9.767-0.108-1.08-0.67-2.148-1.854-3.025-0.609-0.453-1.258-0.856-1.898-1.266 3.589-3.234 6.736-6.988 9.465-11.084 1.391-2.088 2.443-4.279 3.238-6.545 5.174 6.067 12.08 10.779 19.074 14.398-0.098 0.969 0.091 2.01 0.676 3.048 1.6 2.84-0.66 6.99-2.03 9.46z"/>
			<path class="st12" d="m339.62 210.29c-11.348-19.878-39.104-7.441-47.623 8.571-3.038 5.708 5.938 10.125 8.957 4.449 5.15-9.678 23.121-20.138 30.377-7.429 3.19 5.62 11.46-0.02 8.28-5.59z"/>
			<path class="st12" d="m220.2 225.44c-4.944-11.489-16.488-19.222-29.07-18.116-9.87 0.867-26.454 3.968-28.558 15.815-1.127 6.344 8.688 8.262 9.816 1.908 1.037-5.841 14.018-7.109 18.562-7.652 8.302-0.991 16.435 3.507 19.811 11.352 2.53 5.88 11.99 2.63 9.44-3.31z"/>
</svg>
