<?xml version="1.0" encoding="UTF-8" standalone="no"?>
<!-- Generator: Adobe Illustrator 16.0.3, SVG Export Plug-In . SVG Version: 6.00 Build 0)  -->
<!DOCTYPE svg  PUBLIC '-//W3C//DTD SVG 1.1//EN'  'http://www.w3.org/Graphics/SVG/1.1/DTD/svg11.dtd'>
<svg id="Layer_1" style="enable-background:new 0 0 512 512" xmlns="http://www.w3.org/2000/svg" xml:space="preserve" height="512px" viewBox="0 0 512 512" width="512px" version="1.1" y="0px" x="0px" xmlns:xlink="http://www.w3.org/1999/xlink">
<style type="text/css">
<![CDATA[
	.st0{fill:#127274;}
	.st1{fill:#14B6B9;}
	.st2{fill:#1E4384;}
	.st3{fill:#513620;}
	.st4{fill:#EF4754;}
	.st5{fill:#EF4823;}
	.st6{fill:#BCBCBC;}
	.st7{fill:#F6851F;}
	.st8{fill:#C56528;}
	.st9{fill:#FCBF95;}
	.st10{fill:#FEBF10;}
	.st11{fill:#3AB37C;}
	.st12{fill:#D6E5E5;}
	.st13{fill:#71C598;}
	.st14{fill:#A37B57;}
	.st15{fill:#74CCCF;}
]]>
</style>
			<path class="st10" d="m164.77 263.12c-1.594 1.293-3.014 2.826-4.218 4.592-1.864 2.731-5.155 9.006-3.107 12.353 1.872 3.058 7.823 9.068 12.868 10.096-2.37-8.88-4.09-17.93-5.54-27.04z"/>
			<path class="st10" d="m265.83 27.148c-0.14-0.539-0.196-1.056-0.194-1.551-0.746-0.781-1.276-1.836-1.433-3.178-0.497-4.27-5.897-6.251-9.477-7.193-5.874-1.548-11.96-2.206-18.028-2.227-13.537-0.048-26.855 2.506-39.301 7.959-24.379 10.685-43.162 30.031-57.227 52.264-15.447 24.42-26.685 51.406-33.02 79.608-3.47 15.448-5.595 31.206-8.249 46.81-2.766 16.262-5.526 32.539-7.555 48.913-1.848 14.921-3.207 30.048-4.126 45.057-0.873 14.251-0.814 28.785 2.393 42.757 2.267 0.828 4.034 2.951 3.474 6.013 0.228-1.246 0.499 0.297 1.312 1.088 1.127 1.096 2.287 2.155 3.537 3.112 2.196 1.682 4.348 3.226 7.097 3.913 8.279 2.073 16.796 0.496 25.098 2.207 3.838 0.792 7.779 1.873 11.116 3.974 2.778 1.751 4.994 4.137 7.6 6.102 5.715 4.307 13.087 2.857 19.511 1.021 6.933-1.982 14.255-5.21 21.574-5.201 4.337 0.006 8.463 0.659 12.427 2.497 3.338 1.548 7.365 4.333 11.046 4.84 4.888 0.671 9.89-1.859 14.674-3.525-20.513-10.219-37.814-26.758-48.515-47.461-9.532 7.783-22.134 11.048-34.245 7.429-11.397-3.405-21.859-12.909-25.037-24.6-3.716-13.671 1.468-26.615 9.867-37.501 7.087-9.184 18.463-21.694 30.915-23.494-0.616-4.547-1.248-9.082-1.943-13.591-3.429-22.252-6.469-44.572-7.992-67.014h3.823c3.187-8.673 15.136-14.858 21.786-19.417 13.966-9.57 31.18-12.561 45.717-21.075 8.107-4.749 15.65-10.451 22.44-16.95 6.238-5.973 13.334-12.359 16.932-20.364 3.501-7.789 4.886-16.441 5.057-24.942 0.17-8.709 1.15-17.739-1.06-26.276z"/>
			<path class="st6" d="m173.64 301.11c-9.992 0.816-21.533-7.7-25.731-15.698-6.458-12.3 3.379-27.901 15.11-34.217-0.175-1.262-0.348-2.523-0.52-3.785-4.766 0.351-10.857 6.202-13.959 9.08-4.062 3.771-7.93 7.835-11.111 12.392-5.301 7.593-9.807 17.169-6.375 26.462 6.898 18.679 30.106 22.858 43.794 9.08-0.43-1.09-0.83-2.19-1.21-3.3z"/>
			<path class="st4" d="m435.04 429.93c-4.998-6.09-13.777-8.521-21.16-10.069-18.068-3.787-36.256-3.598-53.367-11.468-4.268-1.964-8.5-4.294-12.427-7.045-0.368 0.202-0.778 0.375-1.239 0.507-4.558 1.298-8.109 5.178-11.518 8.283-3.545 3.23-6.791 5.693-11.159 7.697-4.403 2.019-8.989 3.83-13.106 6.411-2.522 1.583-6.555 3.753-6.279 7.245 0.383 4.858 2.268 9.309 3.562 13.961 1.48 5.322 2.393 10.896 2.408 16.428 0.031 11.561-2.22 22.878-7.467 33.23-0.182 0.358-0.387 0.676-0.607 0.964 29.049-0.524 58.854-2.657 85.727-14.624 16.202-7.216 36.006-15.509 46.334-30.715 4.27-6.25 5.38-14.62 0.32-20.79z"/>
			<path class="st9" d="m319.4 407.97c7.43-3.407 12.372-10.752 19.442-14.658-1.478-1.625-2.845-3.346-4.065-5.178-3.233-4.854-5.546-10.112-6.731-15.829-0.882-4.256-1.037-8.341-0.998-12.491-10.737 6.47-22.775 11.002-36.024 12.942-13.481 1.974-26.947 1.212-39.761-1.877 4.404 12.571 1.147 22.413-6.324 30.163 0.465 0.688 0.789 1.528 0.901 2.533 0.558 5.021 9.488 8.171 13.352 9.755 5.787 2.373 11.818 4.066 17.61 6.408 1.572 0.635 3.127 2.765 3.038 4.503-0.663 13.006 0.542 26.191 2.431 39.055 0.748 5.105 1.265 10.23 1.949 15.343 0.625 4.661 1.049 10.082 3.361 14.285 0.61 1.108 0.812 2.218 0.721 3.257 1.979 0.01 3.959-0.006 5.939-0.016-1.396-1.451-2.004-3.598-0.813-5.947 5.749-11.342 7.839-24.768 5.429-37.311-1.645-8.56-8.619-20.196-3.429-28.689 5.23-8.55 15.23-12.22 23.96-16.22z"/>
			<path class="st4" d="m271.69 466.75c-1.985-12.604-3.285-25.545-2.932-38.339-11.54-4.075-28.629-8.066-32.968-20.045-19.042 12.151-49.106 17.482-66.424 20.362-10.898 1.812-45.152 5.236-37.062 23.17 5.229 11.59 19.311 20.336 30.355 25.606 12.141 5.794 25.174 9.474 38.51 11.212 15.791 2.059 31.436 4.568 47.334 5.803 9.479 0.735 18.979 1.23 28.484 1.48-3.84-9.1-3.77-19.59-5.29-29.24z"/>
			<path class="st10" d="m481.9 299.55c-3.468-22.413-8.076-44.795-12.373-67.068-5.974-30.963-12.914-61.795-22.011-92.003-4.197-13.936-8.778-27.798-13.659-41.51-4.736-13.308-9.967-26.705-17.89-38.487-7.647-11.375-17.813-20.257-29.573-27.235-11.672-6.926-24.234-13.277-36.92-18.118-13.319-5.083-27.676-7.975-41.948-6.17-11.136 1.407-22.987 4.23-29.704 14-0.426 0.618-0.899 1.08-1.399 1.421 2.108 8.797 1.646 17.517 1.465 26.513-0.037 1.85-0.11 3.693-0.215 5.532 1.329 0.471 2.509 1.462 3.208 3.085 3.293 7.643 5.234 16.113 10.094 22.969 4.474 6.312 9.988 11.857 16.366 16.265 12.233 8.454 27.409 12.084 41.147 17.291 11.635 4.409 22.264 10.205 32.215 17.655 3.448 2.581 8.584 6.193 11.579 10.483h2.943c-1.264 23.824-2.606 47.648-4.552 71.427-0.553 6.759-1.044 13.571-1.619 20.389 0.953-0.15 1.994-0.048 3.082 0.413 14.022 5.938 23.549 18.938 30.257 32.135 6.677 13.135 13.569 29.104 7.706 43.85-5.908 14.859-20.566 20.229-35.414 21.407-7.143 0.566-14.291 1.31-21.166-1.222-4.285-1.577-7.846-4.166-10.936-7.323-5 7.449-10.714 14.345-17.125 20.453 8.105-0.065 16.405 1.754 24.15 3.302 11.637 2.325 22.816 3.41 34.682 2.355 11.971-1.064 23.769-3.283 35.565-5.51 8.854-1.671 18.122-2.569 26.765-5.187 6.582-1.994 13.254-5.069 15.74-12.007 3.11-8.73 0.9-20.19-0.48-29.1z"/>
			<path class="st9" d="m383.65 151.23c-0.084-0.159-0.207-0.36-0.402-0.611-0.477-0.617-0.922-1.145-1.482-1.693-1.541-1.505-3.149-2.936-4.835-4.278-2.862-2.279-6.832-5.152-9.291-6.794-11.743-7.834-24.855-12.262-38.058-16.957-13.355-4.749-26.652-10.132-37.09-20.05-5.062-4.81-9.855-10.219-13.249-16.359-1.753-3.171-3.118-6.531-4.395-9.934-0.14 0.495-0.265 0.993-0.416 1.486-5.097 16.614-19.495 29.696-32.911 40.009-7.23 5.559-14.986 10.34-23.322 14.07-8.426 3.771-17.268 6.532-25.658 10.375-6 2.747-11.426 6.408-16.812 10.195-2.561 1.8-10.898 6.712-10.558 10.213 0.224 2.309-0.795 3.945-2.289 4.865 1.038 11.98 2.46 23.928 4.136 35.841 2.254 16.019 4.434 32.101 6.867 48.118 2.717 1.972 3.647 6.137 1.285 8.295 0.459 2.9 0.926 5.799 1.407 8.692 1.323 7.956 2.94 16.006 5.196 23.853 0.911 1.18 1.42 2.695 1.278 4.185 2.659 8.27 6.11 16.249 10.799 23.568 10.489 16.375 26.251 29.184 44.159 36.727 23.549 9.919 50.751 10.795 74.25 0.164 22.926-10.371 40.552-29.739 50.817-52.5 10.841-24.035 13.271-49.63 15.621-75.574 2.23-24.618 3.753-49.286 5.106-73.964-0.19-0.62-0.25-1.27-0.18-1.96zm-152.93 44.91c-4.466 3.58-11.55 2.869-15.614-0.955-4.862-4.578-4.691-12.535-1.132-17.508-2.042-0.114-4.124 0.146-6.167 0.567-0.839 0.837-2.046 1.372-3.642 1.372h-2.085c-6.154 0-8.951-9.283-2.336-11.127 12.814-3.574 29.953-3.391 34.158 12.331 1.43 5.36 1.55 11.53-3.18 15.33zm30.95-17.09c0.603-7.362 11.849-5.095 11.253 2.188-1.24 15.154 1.449 30.156 1.312 45.278-0.07 7.67-2.18 24.406 7.075 27.696 6.946 2.469 1.788 12.718-5.101 10.27-13.189-4.688-13.51-22.204-13.435-33.775 0.13-17.27-2.5-34.38-1.09-51.67zm36.97 122.57c-6.607 4.422-13.977 9.625-22.412 7.967-7.49-1.473-15.452-5.591-18.51-12.908-2.86-6.842 7.985-10.574 10.82-3.79 1.521 3.638 8.705 6.049 12.334 5.41 4.197-0.739 7.914-3.878 11.357-6.183 6.15-4.12 12.56 5.39 6.41 9.5zm39.76-111.03c-9.789 5.294-19.723-5.568-17.543-15.321-2.017 0.506-3.93 1.636-5.486 3.456-4.806 5.615-13.428-1.943-8.613-7.568 7.813-9.131 20.387-10.038 29.959-3.01 7.41 5.44 11.65 17.05 1.68 22.44z"/>
			<path class="st6" d="m410.56 269.69c-5.533-9.506-12.29-18.418-22.497-23.055-0.529 5.104-1.152 10.194-1.932 15.254 1.028-0.68 2.355-0.977 3.939-0.625 13.22 2.938 21.046 20.486 17.016 33.116-4.699 14.729-21.171 19.013-32.864 9.697-1.728 3.894-3.614 7.711-5.673 11.421 3.105 3.829 6.985 6.906 12.043 7.648 5.151 0.757 10.756 0.031 15.91-0.581 10.777-1.28 22.677-5.696 24.399-18.034 1.69-12.2-4.37-24.58-10.35-34.85z"/>
			<path class="st10" d="m387.97 272.06c-1.488-0.33-2.557-1.092-3.253-2.066-1.105 5.748-2.446 11.443-4.149 17.047-0.656 2.162-1.372 4.308-2.127 6.439 0.525 0.238 1.044 0.582 1.544 1.049 5.537 5.172 15.604 5.078 16.632-4.075 0.73-6.44-1.2-16.75-8.64-18.4z"/>
			<path d="m492.59 296.91c-2.335-15.095-5.673-30.063-8.356-45.103-5.479-30.707-11.795-61.288-19.726-91.461-6.623-25.195-14.467-50.296-23.818-74.62-4.395-11.428-9.688-22.591-16.529-32.767-6.884-10.238-16.074-18.491-26.258-25.342-9.738-6.55-20.217-11.482-30.701-16.67-11.72-5.813-24.19-10.371-37.15-12.444-18.521-2.963-45.054-0.983-58.317 14.406-7.621-9.864-25.635-10.849-36.874-10.888-20.761-0.072-40.96 6.736-58.431 17.735-22.709 14.298-39.152 35.947-52.342 58.924-14.279 24.876-23.939 52.41-29.507 80.5-3.031 15.29-5.195 30.81-7.788 46.183-2.741 16.252-5.305 32.534-7.156 48.913-3.262 28.864-7.146 59.706 0.208 88.202 0.505 1.957 1.709 3.055 3.132 3.471 1.351 3.206 4.145 5.904 6.798 8.156 5.886 4.996 12.479 7.584 20.164 8.403 8.465 0.903 17.408-0.771 25.287 3.296 3.212 1.658 5.73 4.9 8.75 6.924 3.199 2.143 6.738 3.284 10.557 3.691 7.38 0.785 14.8-1.381 21.779-3.521 3.805-1.167 7.516-2.399 11.45-3.054 4.77-0.793 8.566 0.534 12.828 2.557 7.687 3.646 13.721 5.588 22.095 3.342 5.324-1.429 12.761-6.413 17.859-2.423 1.693 4.28 2.374 8.783 1.081 13.436-1.424 5.123-6.435 9.333-10.825 12.29-12.725 8.567-28.969 12.296-43.781 15.347-15.02 3.094-31.445 3.828-45.866 9.127-9.36 3.438-18.388 10.01-20.591 20.23-2.619 12.148 7.877 22.785 16.124 29.955 21.137 18.377 48.458 23.852 75.302 27.772 31.727 4.634 63.919 6.297 95.96 5.456 29.551-0.774 59.297-3.98 86.579-16.207 17.138-7.681 36.183-16.571 47.866-31.867 8.812-11.538 9.553-26.465-0.34-37.527-9.061-10.136-25.316-12.551-38.016-14.288-14.303-1.956-27.82-3.292-41.06-9.657-7.872-3.784-14.91-9.172-19.78-16.482-4.805-7.214-5.252-15.225-5.131-23.418 0.021-0.004 0.041-0.004 0.062-0.009 14.359-2.917 29.418 2.958 43.591 4.759 15.224 1.936 30.897-0.388 45.894-2.996 13.402-2.331 27.092-4.328 40.312-7.56 9.61-2.349 18.415-7.15 23.343-16.004 6.18-11.1 3.17-26.94 1.34-38.77zm-279.19 69.02c-3.681-0.507-7.708-3.292-11.046-4.84-3.964-1.838-8.09-2.491-12.427-2.497-7.319-0.009-14.642 3.219-21.574 5.201-6.424 1.837-13.796 3.286-19.511-1.021-2.605-1.965-4.821-4.351-7.6-6.102-3.337-2.101-7.278-3.182-11.116-3.974-8.302-1.711-16.819-0.134-25.098-2.207-2.749-0.688-4.901-2.231-7.097-3.913-1.25-0.957-2.41-2.017-3.537-3.112-0.813-0.791-1.084-2.334-1.312-1.088 0.561-3.062-1.207-5.185-3.474-6.013-3.207-13.972-3.265-28.506-2.393-42.757 0.919-15.009 2.279-30.136 4.126-45.057 2.028-16.374 4.789-32.651 7.555-48.913 2.653-15.604 4.778-31.361 8.249-46.81 6.335-28.202 17.573-55.188 33.02-79.608 14.064-22.232 32.848-41.579 57.227-52.264 12.445-5.453 25.764-8.007 39.301-7.959 6.068 0.021 12.154 0.679 18.028 2.227 3.579 0.942 8.979 2.924 9.477 7.193 0.156 1.342 0.687 2.396 1.433 3.178-0.002 0.495 0.055 1.012 0.194 1.551 2.212 8.536 1.228 17.566 1.053 26.277-0.171 8.501-1.556 17.153-5.057 24.942-3.598 8.005-10.693 14.392-16.932 20.364-6.79 6.499-14.333 12.201-22.44 16.95-14.537 8.515-31.751 11.505-45.717 21.075-6.65 4.559-18.6 10.744-21.786 19.417h-3.823c1.523 22.441 4.563 44.762 7.992 67.014 0.695 4.509 1.327 9.044 1.943 13.591-12.452 1.8-23.828 14.311-30.915 23.494-8.399 10.886-13.583 23.83-9.867 37.501 3.178 11.69 13.64 21.194 25.037 24.6 12.111 3.619 24.713 0.354 34.245-7.429 10.7 20.703 28.002 37.242 48.515 47.461-4.77 1.67-9.77 4.2-14.66 3.53zm-65.5-80.52c4.198 7.998 15.739 16.515 25.731 15.698 0.387 1.113 0.788 2.218 1.208 3.313-13.688 13.778-36.896 9.599-43.794-9.08-3.432-9.293 1.074-18.869 6.375-26.462 3.182-4.557 7.049-8.62 11.111-12.392 3.102-2.878 9.193-8.729 13.959-9.08 0.172 1.262 0.345 2.523 0.52 3.785-11.73 6.31-21.56 21.91-15.11 34.21zm16.87-22.29c1.445 9.113 3.171 18.164 5.543 27.04-5.045-1.027-10.996-7.038-12.868-10.096-2.048-3.347 1.243-9.621 3.107-12.353 1.21-1.76 2.63-3.3 4.22-4.59zm83.74 231.4c-15.898-1.234-31.543-3.744-47.334-5.803-13.336-1.738-26.369-5.418-38.51-11.212-11.045-5.271-25.127-14.017-30.355-25.606-8.09-17.934 26.164-21.357 37.062-23.17 17.317-2.88 47.382-8.211 66.424-20.362 4.339 11.979 21.428 15.97 32.968 20.045-0.354 12.794 0.946 25.735 2.932 38.339 1.521 9.651 1.444 20.135 5.298 29.25-9.51-0.26-19.01-0.75-28.49-1.49zm98.33-92.66c0.461-0.132 0.871-0.305 1.239-0.507 3.927 2.751 8.159 5.081 12.427 7.045 17.111 7.87 35.299 7.681 53.367 11.468 7.383 1.548 16.162 3.979 21.16 10.069 5.066 6.17 3.956 14.542-0.299 20.806-10.328 15.206-30.132 23.499-46.334 30.715-26.873 11.967-56.678 14.1-85.727 14.624 0.221-0.288 0.426-0.605 0.607-0.964 5.247-10.353 7.498-21.67 7.467-33.23-0.016-5.531-0.928-11.105-2.408-16.428-1.295-4.652-3.18-9.103-3.562-13.961-0.275-3.492 3.757-5.662 6.279-7.245 4.117-2.581 8.703-4.393 13.106-6.411 4.368-2.004 7.614-4.467 11.159-7.697 3.39-3.12 6.94-7 11.5-8.29zm-8-8.55c-7.07 3.906-12.013 11.251-19.442 14.658-8.73 4.004-18.732 7.674-23.973 16.248-5.19 8.493 1.784 20.13 3.429 28.689 2.41 12.543 0.32 25.969-5.429 37.311-1.19 2.35-0.583 4.496 0.813 5.947-1.98 0.01-3.96 0.025-5.939 0.016 0.091-1.039-0.11-2.148-0.721-3.257-2.312-4.203-2.736-9.624-3.361-14.285-0.685-5.112-1.201-10.237-1.949-15.343-1.889-12.863-3.094-26.049-2.431-39.055 0.089-1.738-1.466-3.868-3.038-4.503-5.792-2.342-11.823-4.035-17.61-6.408-3.863-1.584-12.794-4.734-13.352-9.755-0.112-1.005-0.437-1.845-0.901-2.533 7.472-7.75 10.729-17.592 6.324-30.163 12.813 3.089 26.279 3.851 39.761 1.877 13.249-1.94 25.287-6.473 36.024-12.942-0.039 4.15 0.116 8.235 0.998 12.491 1.186 5.717 3.498 10.975 6.731 15.829 1.23 1.81 2.6 3.54 4.07 5.16zm-26.58-38.1c-23.499 10.631-50.701 9.755-74.25-0.164-17.908-7.543-33.67-20.352-44.159-36.727-4.688-7.319-8.14-15.299-10.799-23.568 0.142-1.489-0.367-3.005-1.278-4.185-2.256-7.847-3.873-15.896-5.196-23.853-0.481-2.894-0.948-5.792-1.407-8.692 2.362-2.158 1.432-6.323-1.285-8.295-2.434-16.018-4.613-32.1-6.867-48.118-1.676-11.913-3.098-23.86-4.136-35.841 1.494-0.92 2.513-2.557 2.289-4.865-0.341-3.501 7.997-8.413 10.558-10.213 5.387-3.787 10.812-7.448 16.812-10.195 8.391-3.843 17.232-6.604 25.658-10.375 8.336-3.73 16.092-8.512 23.322-14.07 13.416-10.312 27.814-23.395 32.911-40.009 0.151-0.493 0.276-0.991 0.416-1.486 1.276 3.402 2.642 6.763 4.395 9.934 3.394 6.141 8.188 11.55 13.249 16.359 10.438 9.918 23.734 15.301 37.09 20.05 13.202 4.695 26.314 9.123 38.058 16.957 2.459 1.642 6.429 4.515 9.291 6.794 1.686 1.343 3.294 2.773 4.835 4.278 0.561 0.549 1.006 1.076 1.482 1.693 0.195 0.251 0.318 0.452 0.402 0.611-0.073 0.684-0.012 1.334 0.154 1.941-1.354 24.678-2.876 49.346-5.106 73.964-2.351 25.944-4.78 51.539-15.621 75.574-10.24 22.78-27.87 42.14-50.8 52.51zm77.81-93.95c-1.584-0.352-2.911-0.055-3.939 0.625 0.779-5.06 1.402-10.15 1.932-15.254 10.207 4.637 16.964 13.549 22.497 23.055 5.978 10.268 12.044 22.647 10.342 34.842-1.723 12.338-13.622 16.754-24.399 18.034-5.154 0.612-10.759 1.338-15.91 0.581-5.058-0.742-8.938-3.819-12.043-7.648 2.059-3.71 3.945-7.527 5.673-11.421 11.693 9.315 28.165 5.032 32.864-9.697 4.04-12.61-3.79-30.16-17.01-33.1zm-2.1 10.8c7.434 1.65 9.367 11.962 8.646 18.394-1.027 9.153-11.095 9.247-16.632 4.075-0.5-0.467-1.019-0.811-1.544-1.049 0.755-2.132 1.471-4.277 2.127-6.439 1.703-5.604 3.044-11.299 4.149-17.047 0.69 0.99 1.75 1.75 3.24 2.08zm94.39 56.6c-2.486 6.938-9.158 10.013-15.74 12.007-8.643 2.617-17.91 3.516-26.765 5.187-11.797 2.227-23.595 4.445-35.565 5.51-11.865 1.055-23.045-0.03-34.682-2.355-7.745-1.548-16.045-3.367-24.15-3.302 6.411-6.108 12.125-13.004 17.125-20.453 3.09 3.157 6.65 5.746 10.936 7.323 6.875 2.531 14.023 1.788 21.166 1.222 14.848-1.178 29.506-6.548 35.414-21.407 5.863-14.745-1.029-30.715-7.706-43.85-6.708-13.196-16.234-26.196-30.257-32.135-1.088-0.461-2.129-0.563-3.082-0.413 0.575-6.817 1.066-13.63 1.619-20.389 1.945-23.778 3.288-47.603 4.552-71.427h-2.943c-2.995-4.29-8.131-7.902-11.579-10.483-9.951-7.45-20.58-13.246-32.215-17.655-13.738-5.207-28.914-8.837-41.147-17.291-6.378-4.407-11.893-9.952-16.366-16.265-4.859-6.855-6.801-15.326-10.094-22.969-0.699-1.623-1.879-2.614-3.208-3.085 0.104-1.839 0.178-3.683 0.215-5.532 0.181-8.996 0.644-17.716-1.465-26.513 0.5-0.341 0.974-0.803 1.399-1.421 6.717-9.77 18.568-12.593 29.704-14 14.272-1.805 28.629 1.087 41.948 6.17 12.686 4.841 25.248 11.192 36.92 18.118 11.76 6.979 21.926 15.86 29.573 27.235 7.923 11.782 13.153 25.18 17.89 38.487 4.881 13.712 9.462 27.574 13.659 41.51 9.097 30.208 16.037 61.04 22.011 92.003 4.297 22.273 8.905 44.655 12.373 67.068 1.37 8.89 3.58 20.35 0.45 29.09z"/>
			<path d="m281.31 254.22c-9.255-3.29-7.146-20.026-7.075-27.696 0.137-15.122-2.553-30.124-1.312-45.278 0.596-7.283-10.65-9.551-11.253-2.188-1.413 17.283 1.218 34.394 1.105 51.657-0.075 11.571 0.245 29.088 13.435 33.775 6.88 2.46 12.04-7.79 5.09-10.26z"/>
			<path d="m336.72 168.14c-9.572-7.028-22.146-6.121-29.959 3.01-4.814 5.625 3.808 13.184 8.613 7.568 1.557-1.82 3.47-2.95 5.486-3.456-2.18 9.753 7.754 20.615 17.543 15.321 9.97-5.38 5.73-16.99-1.68-22.44z"/>
			<path d="m233.9 180.82c-4.205-15.722-21.344-15.905-34.158-12.331-6.615 1.844-3.818 11.127 2.336 11.127h2.085c1.596 0 2.803-0.535 3.642-1.372 2.043-0.421 4.125-0.682 6.167-0.567-3.56 4.973-3.73 12.93 1.132 17.508 4.064 3.824 11.148 4.535 15.614 0.955 4.74-3.8 4.62-9.97 3.19-15.32z"/>
			<path d="m292.23 292.12c-3.443 2.305-7.16 5.443-11.357 6.183-3.629 0.639-10.813-1.772-12.334-5.41-2.835-6.784-13.681-3.052-10.82 3.79 3.058 7.317 11.02 11.436 18.51 12.908 8.436 1.658 15.805-3.545 22.412-7.967 6.15-4.11-0.26-13.62-6.41-9.5z"/>
</svg>
