<?xml version="1.0" encoding="UTF-8" standalone="no"?>
<!-- Generator: Adobe Illustrator 16.0.3, SVG Export Plug-In . SVG Version: 6.00 Build 0)  -->
<!DOCTYPE svg  PUBLIC '-//W3C//DTD SVG 1.1//EN'  'http://www.w3.org/Graphics/SVG/1.1/DTD/svg11.dtd'>
<svg id="Layer_1" style="enable-background:new 0 0 512 512" xmlns="http://www.w3.org/2000/svg" xml:space="preserve" height="512px" viewBox="0 0 512 512" width="512px" version="1.1" y="0px" x="0px" xmlns:xlink="http://www.w3.org/1999/xlink">
<style type="text/css">
<![CDATA[
	.st0{fill:#127274;}
	.st1{fill:#14B6B9;}
	.st2{fill:#EF4754;}
	.st3{fill:#EF4823;}
	.st4{fill:#BCBCBC;}
	.st5{fill:#FEBF10;}
	.st6{fill:#010101;}
	.st7{fill:#D6E5E5;}
	.st8{fill:#71C598;}
	.st9{fill:#74CCCF;}
]]>
</style>
				<path class="st4" d="m332.37 442.77c-0.032 0.002-0.061 0.006-0.093 0.007-6.672 0.164-13.32 0.955-20 1-1.161 0.008-2.151-0.286-2.969-0.775-0.376 2.662-0.963 5.263-1.841 7.765 8.32-0.086 16.639-0.304 24.958-0.51 0.08-2.49 0.05-4.99-0.06-7.48z"/>
				<path class="st4" d="m330.34 421.81c-6.861 1.466-14.304 0.171-21.284-0.005 0.395 3.715 0.717 7.491 0.788 11.238 0.477-0.141 1.002-0.225 1.587-0.229 6.68-0.045 13.328-0.836 20-1 0.013 0 0.026 0.002 0.039 0.001-0.38-3.33-0.78-6.67-1.14-10z"/>
				<path class="st4" d="m304.15 359.6c-0.115 0.637-0.349 1.249-0.707 1.804 0.001 0.107 0.002 0.218 0.007 0.354 0.017 0.689 0.048 1.379 0.094 2.066 0.1 1.401 0.223 2.802 0.353 4.199 0.461-0.129 0.966-0.209 1.526-0.213 7.948-0.06 16.1-0.904 23.938 0.732v-8.061c-8.39-0.52-16.8-0.78-25.21-0.88z"/>
				<path class="st4" d="m220.34 360.78c0.002 2.006 0.017 4.01 0.026 6.016 8.041-1.668 16.917-1.158 24.992-1.017 0.005-1.687 0.009-3.373 0.009-5.06 0-0.24 0.015-0.473 0.04-0.699-8.36 0.16-16.71 0.39-25.07 0.76z"/>
				<path class="st4" d="m309.56 243.18c-0.45-1.205-1.053-3.302-2.082-4.119-1.799-1.429-9.376-4.35-11.432-2.088-2.193 2.414-3.686 5.043-6.1 6.85-0.126 0.539-0.338 1.079-0.65 1.609 0.038 0.031 0.066 0.052 0.114 0.092 0.839 0.698 3.25 1.908 4.666 2.293 4.615 1.254 9.793 1.865 13.956 0.102 1.621-0.688 1.928-1.09 2.042-2.365-0.02 0.23-0.26-1.66-0.52-2.36z"/>
				<path class="st4" d="m359.4 461.22c-0.341-0.123-0.644-0.27-0.925-0.43-17.486 0.078-34.961 0.836-52.447 0.961-0.38 5.465-0.342 11.555 5.851 12.09 8.22 0.711 16.36-1.863 24.548-2.016 6.942-0.128 13.925 0.983 20.849-0.018 2.923-0.423 5.531-0.902 5.836-4.279 0.26-2.93-0.97-5.3-3.72-6.3z"/>
				<path class="st4" d="m329.36 406.76v-4.978h-22.396c0.206 2.54 0.426 5.08 0.682 7.62 0.047 0.469 0.102 0.948 0.152 1.422 4.07 0.072 8.125 0.486 12.194 0.593 2.725 0.071 6.827 0.609 9.467-0.556-0.05-1.35-0.09-2.72-0.09-4.09z"/>
				<path class="st4" d="m220.44 378.12c0.024 2.584 0.054 5.168 0.084 7.754 6.582 2.457 15.208 1.943 21.902 0.939 0.937-0.141 1.759-0.062 2.471 0.172 0.038-0.643 0.08-1.283 0.106-1.928 0.113-2.779 0.183-5.559 0.236-8.338-8.07-0.21-17.1-0.8-24.8 1.41z"/>
				<path class="st4" d="m328.8 379.7c-7.372-1.867-15.009-0.971-22.527-0.914-0.5 0.004-0.964-0.053-1.401-0.151 0.024 0.209 0.043 0.417 0.069 0.625 0.477 3.854 0.837 7.705 1.158 11.557h23.266v-11.01c-0.19-0.03-0.38-0.07-0.57-0.11z"/>
				<path class="st4" d="m343.58 238.96c-2.439 0.394-5.088 1.315-7.398 2.641 0.391 1.059 0.411 2.28-0.134 3.579 1.115 0.459 2.327 0.752 3.633 0.754 2.202 0.002 7.219-0.074 8.375-2.506 1.76-3.71-1.4-4.96-4.48-4.46z"/>
				<path class="st9" d="m108.46 332.99c-16.278 1.158-27.597 13.381-27.183 29.498 0.57-0.033 1.139-0.078 1.703-0.182 1.417-0.258 2.825-0.722 4.188-1.187 3.466-1.183 6.851-2.592 10.325-3.749 5.624-1.874 14.329-4.117 18.264 2.114 2.293 3.632 2.158 7.757 1.495 11.861-0.435 2.689-2.132 5.333-3.433 7.667-1.175 2.109-3.122 3.902-0.42 4.98 4.944 1.976 11.325-1.709 15.378-4.256 4.626-2.907 8.667-6.684 10.677-11.889 7.27-18.88-13.31-36.11-31.01-34.85z"/>
				<path class="st4" d="m118.27 312.78c-0.773 0.069-1.467-0.005-2.089-0.184-1.533 3.077-2.998 6.187-4.307 9.368 7.402 0.222 14.725 2.316 20.921 6.412 1.028 0.68 2.027 1.395 2.998 2.137 2.913-3.342 4.361-7.749 5.366-12.404-6.95-3.34-15.12-6.04-22.89-5.34z"/>
				<path class="st4" d="m164.51 213.37c-4.474 1.537-8.019 5.641-10.769 9.794 4.067 0.446 8.052 1.39 11.695 3.21-0.37-4.32-0.74-8.65-0.93-13z"/>
				<path class="st4" d="m129.82 284.7c-0.284 0.749-0.578 1.494-0.887 2.236-2.107 5.043-4.585 9.91-7.114 14.752 7.299 0.196 14.721 2.364 21.408 5.275 0.447-2.156 0.972-4.227 1.692-6.115 1.219-3.191 2.549-6.328 3.981-9.418-6.46-1.94-12.42-5.44-19.08-6.72z"/>
				<path class="st4" d="m247.41 467.77c-0.047 0.002-0.091 0.008-0.139 0.009-7.34 0.076-14.661 1.094-22 1-4.635-0.058-9.26-0.575-13.879-0.913-4.997-0.363-10.254-0.868-15.238-0.107-0.384 0.059-0.724 0.111-1.06 0.191-0.143 0.175-0.741 0.686-1.012 1.377-0.702 1.789-1.201 4.375-0.424 6.233 0.892 2.134 2.279 1.286 4.768 1.249 3.765-0.057 7.559 1.076 11.361 1.129 7.23 0.1 14.465-0.467 21.652-1.227 4.116-0.434 9.135-0.812 12.783-2.982 2.85-1.69 3.62-3.45 3.19-5.96z"/>
				<path class="st4" d="m163.8 264.7c-7.36-2.109-17.997-4.427-25.091-9.573-2.271 6.227-3.787 12.687-5.547 19.072 6.501 1.525 12.334 4.93 18.737 6.703 0.747 0.207 1.381 0.527 1.919 0.921 0.09-0.159 0.171-0.323 0.262-0.482 1.562-2.757 3.251-5.351 5.151-7.89 1.104-1.475 2.97-3.385 3.219-5.199 0.22-1.602 0.958-2.711 1.941-3.413-0.19-0.04-0.39-0.09-0.59-0.14z"/>
				<path class="st4" d="m243.27 397.78c-7.044 1.058-15.278 1.249-22.601-0.476 0.045 3.197 0.093 6.395 0.141 9.592 0.872-0.31 1.905-0.352 3.086 0 5.762 1.717 11.611 0.973 17.527 0.914 0.463-0.004 0.897 0.041 1.307 0.125 0.35-3.437 0.777-6.859 1.176-10.283-0.22 0.06-0.43 0.11-0.65 0.14z"/>
				<path class="st4" d="m242.06 418.78c-6.775 0.084-13.667 0.876-20.265-1.089-0.298-0.089-0.574-0.2-0.838-0.322 0.078 5.397 0.148 10.796 0.208 16.194 0.266-0.169 0.548-0.326 0.86-0.463 4.666-2.025 9.46-1.414 14.396-1.293 1.297 0.031 2.589 0.162 3.885 0.211 0.148 0.006 0.299 0.012 0.449 0.018 0.461-0.328 0.967-0.596 1.502-0.785-0.18-4.16-0.28-8.32-0.21-12.48z"/>
				<path class="st4" d="m166.37 243.54c-0.004-1.98-0.071-3.954-0.162-5.926-1.657 0.367-3.454-0.125-4.99-1.184-3.417-2.354-8.939-2.605-12.945-2.647-0.158-0.001-0.309-0.015-0.461-0.027-1.687 3.419-3.249 6.897-4.724 10.415 2.4 2.895 7.136 4.424 10.394 5.675 4.073 1.564 8.225 2.852 12.417 4.054 0.253 0.072 0.49 0.161 0.719 0.258-0.15-3.53-0.25-7.07-0.26-10.61z"/>
				<path class="st4" d="m242.85 443.02c-0.302 0.009-0.61 0.008-0.928-0.004-4.925-0.183-11.155-1.746-16.251 0.467-1.716 0.746-3.225 0.569-4.404-0.139 0.038 4.778 0.066 9.555 0.07 14.333 0.092 0.007 0.185 0.013 0.277 0.02 7.231 0.481 14.5-0.497 21.743-0.806-0.05-4.62-0.27-9.24-0.51-13.87z"/>
				<path class="st9" d="m449.34 329.56c-17.045 1.277-36.388 23.789-24.657 40.1 3.096 4.303 7.534 8.309 12.18 10.911 2.3 1.288 5.589 3.214 8.326 2.023 1.275-0.555 2.813-1.06 1.996-2.356-4.329-6.867-13.562-13.148-9.242-22.46 3.562-7.677 13.863-11.358 21.866-9.47 4.489 1.061 7.049 3.672 9.935 7.102 1.227 1.459 2.965 4.296 4.844 4.806 0.56-14.62-8.49-31.9-25.26-30.65z"/>
				<path class="st7" d="m357.92 152.57c-0.611-10.465-0.424-20.981-1.397-31.426-0.929-9.967-2.417-20.346-6.926-29.412-3.99-8.021-11.276-10.67-19.826-11.277-8.757-0.621-17.6 0.371-26.371 0.32-13.017-0.075-26.029-0.409-39.04-0.812-25.854-0.8-51.713-1.735-77.582-1.204 0.046 1.083 0.111 2.164 0.211 3.245 0.384 4.137 0.926 8.259 1.513 12.372 1.33 9.323 2.927 18.611 4.127 27.953 1.511 11.754 0.706 23.8 0.706 35.625 0 9.621 1.801 20.206 0.233 29.932 28.745 0.545 57.373 4.018 86.156 2.409 14.605-0.817 29.195-2.283 43.83-2.452 7.472-0.086 15.013-0.274 22.48-0.02 1.877 0.063 3.753 0.186 5.631 0.219 0.663 0.012 1.33 0.023 1.996 0.016 1.137-0.875 2.567-1.357 4.04-1.158 1.21-11.39 0.89-22.89 0.22-34.32zm-107.32-15.13c-13.653 9.554-35.775-3.667-33.15-20.192 0.323-2.031 1.794-3.402 3.584-4.063 0.18-0.18 0.298-0.299 0.286-0.29 0.538-0.341 1.107-0.604 1.71-0.789 1.376-0.475 2.618-0.41 3.672 0.003 7.184-4.662 18.375-3.062 24.519 2.687 6.55 6.12 7.31 17.09-0.62 22.64zm40.38 25.49c-5.621 6.347-15.312 3.965-22.709 3.854-7.044-0.105-7.931-11.076-0.847-10.97 3.249 0.049 13.378 2.014 15.291-0.146 4.71-5.3 12.99 1.94 8.27 7.27zm40.04-38.72c-1.88 8.185-10.463 11.121-17.97 11.801-6.874 0.621-15.378 0.532-21.652-2.787-2.351-1.244-3.13-3.416-2.854-5.465-1.526-1.409-2.139-3.569-0.626-5.91 2.712-4.197 5.04-9.818 9.707-12.268 4.75-2.492 10.009-3.439 15.344-2.98 9.07 0.78 20.62 6.44 18.05 17.61z"/>
				<path class="st4" d="m435.99 296.49c-3.353 2.951-8.552 4.873-11.891 6.392-3.137 1.427-6.333 2.735-9.513 4.076 3.832 7.104 7.407 14.367 10.983 21.562 6.384-5.506 14.161-9.274 22.23-9.943-2.85-7.9-7.24-15.04-11.81-22.09z"/>
				<path class="st4" d="m425.79 280.22c-0.981-1.76-1.916-3.542-2.833-5.333-6.259 4.743-14.262 7.151-20.273 12.427 0.245 0.344 0.494 0.683 0.733 1.033 2.006 2.938 3.904 5.952 5.733 9.014 3.063-1.298 6.151-2.545 9.184-3.901 2.543-1.14 5.118-2.262 7.534-3.655 0.958-0.554 1.942-1.102 2.823-1.775 0.085-0.064 0.158-0.119 0.222-0.163 0.002-0.007 0.002-0.01 0.005-0.017 0.185-0.482 0.413-0.896 0.668-1.261-1.3-2.09-2.57-4.21-3.78-6.36z"/>
				<path class="st4" d="m338.9 30.826c-1.582-0.207-9.819-1.164-9.081 2.417 0.465 2.259 0.251 4.205-0.634 5.777 0.457 0.101 0.914 0.207 1.375 0.324 3.752 0.959 7.673 2.491 10.26-1.343 2.2-3.26 2.66-6.574-1.92-7.175z"/>
				<path class="st4" d="m206.2 32.53c-2.675 2.08 6.015 8.189 8.23 8.281 0.583 0.024 1.121 0.127 1.62 0.285 6.97-3.35-5.51-11.942-9.85-8.566z"/>
				<path class="st4" d="m243.18 122.44c-3.164-2.194-8.078-3.015-11.259-0.58-1.071 0.819-2.16 1.152-3.182 1.127 2.208 5.012 10.288 8.096 14.96 5.869 3.07-1.47 1.61-4.95-0.52-6.42z"/>
				<path class="st4" d="m320.18 121.58c-0.023-0.146-0.561-1.815-0.536-1.794-2.072-1.724-5.732-2.33-8.365-2.357-2.664-0.027-6.079-0.008-8.38 1.846-1.602 1.289-2.7 3.232-3.75 5.113 2.868 0.715 6.506 0.954 9.479 0.863 3.373-0.104 9.596-0.236 11.602-2.98 0.08-0.1 0.07 0.02-0.05-0.69z"/>
				<path class="st4" d="m398.64 233.2c-0.513 0.521-1.165 0.965-1.972 1.289-3.497 1.408-7.285 2.871-10.536 4.986-0.256 2.298-1.826 4.308-4.86 4.308h-0.62c0.395 6.048 0.84 12.093 1.286 18.138 0.013 0.01 0.022 0.023 0.035 0.034 2.546-2.91 5.702-5.429 8.452-7.673 4.892-3.991 10.093-7.582 15.03-11.508-2.13-3.31-4.4-6.52-6.82-9.58z"/>
				<path class="st7" d="m373.36 321.72c-0.001-12.016 0.02-24.06-0.857-36.051-1.689-23.097-3.771-46.386-4.082-69.568-14.248-1.293-28.737-0.391-43.002-0.303-17.553 0.107-35.099 0.583-52.65 0.827-17.246 0.24-34.397 0.065-51.604-1.23-15.23-1.147-30.434-2.679-45.691-3.421 0.286 5.414 0.932 10.789 1.393 16.199 0.522 6.129 0.43 12.236 0.49 18.381 0.121 12.567 1.407 25.068 1.235 37.638-0.182 13.281-1.116 26.541-1.237 39.823-0.086 9.463-0.496 18.674-2.778 27.734 14.379-0.249 28.746-1.182 43.107-1.865 17.806-0.848 35.575-1.007 53.396-1.175 19.305-0.181 38.623-0.387 57.904 0.796 13.659 0.838 28.974 3.623 42.543 0.038 0.045-0.548 0.168-1.114 0.392-1.694 3.07-7.94 1.44-17.82 1.44-26.13zm-48.64-85.06c5.823-5.527 15.512-10.316 23.754-8.592 9.089 1.902 13.962 12.718 9.071 20.855-4.211 7.006-14.084 9.086-21.643 7.594-6.571-1.298-12.587-6.179-11.093-12.763-1.92-1.81-2.59-4.72-0.09-7.09zm-45.25 3.98c-0.323-2.286 0.674-4.661 3.56-5.533 2.299-0.694 3.712-4.475 5.548-6.088 2.719-2.39 6.254-3.586 9.891-3.455 6.985 0.254 15.261 2.041 18.94 8.659 4.765 8.572 5.336 18.837-4.696 23.615-10.8 5.14-42.12-1.04-33.24-17.2zm78.8 101.14c-15.333 0.202-30.965 5.138-45.871-0.558-2.769-1.059-3.51-3.396-2.96-5.573-1.415-1.416-1.948-3.522-0.52-5.802 1.692-2.699 1.152-6.773 0.993-9.816-0.21-4.029-0.35-8.073-0.587-12.098-0.625-10.584-4.729-20.594-4.963-31.215-0.049-2.227 1.005-3.838 2.477-4.779 0.613-1.744 2.114-3.098 4.585-3.129 13.749-0.174 27.215-3.769 41-3 3.136 0.175 5.466 1.787 5.908 5.062 2.916 21.568 4.942 43.22 5 65 0.01 2.85-1.9 5.87-5.06 5.91z"/>
				<path class="st5" d="m348.01 276.69c-10.857 0.173-21.562 2.451-32.413 2.985 0.509 4.788 1.667 9.424 2.686 14.175 1.217 5.678 1.81 11.132 2.102 16.919 0.325 6.425 2.03 14.998-0.38 21.461 10.17 2.719 21.688-0.154 32.285-1.124-0.34-18.24-1.97-36.36-4.29-54.43z"/>
				<path class="st4" d="m412.56 254.57c-0.45-0.785-0.907-1.571-1.364-2.36-4.167 3.27-8.529 6.29-12.663 9.604-2.852 2.286-8.494 6.328-9.978 9.645 0.699 0.725 1.408 1.441 2.125 2.152 1.755 1.741 3.458 3.479 5.1 5.257 3.459-2.827 7.273-5.017 11.261-7.144 3.333-1.776 8.267-3.698 10.992-6.734-1.74-3.52-3.52-7.02-5.47-10.43z"/>
				<path class="st4" d="m379.44 218c0.093 4.204 0.254 8.406 0.455 12.608 3.531-2.322 7.385-4.131 11.318-5.762-3.33-3.32-7.55-6.79-11.78-6.85z"/>
				<path d="m368.99 153.53c-0.598-11.592-0.566-23.24-1.644-34.803-1.012-10.865-3.091-22.037-7.982-31.871-4.442-8.932-11.575-14.069-21.225-16.309-8.756-2.033-18.133-1.162-27.023-0.832-2.227 0.084-4.458 0.126-6.689 0.152 1.94-3.271 5.797-5.994 8.214-8.502 2.839-2.945 5.401-11.344 9.748-12.086 4.497-0.767 9.437 2.14 14.015 2.225 6.16 0.113 11.423-3.412 14.374-8.76 5.741-10.405 1.151-21.283-10.979-22.872-4.852-0.636-10.703-0.452-14.955 2.154-2.418 1.481-4.432 4.497-5.383 7.085-0.459 1.248-0.801 2.639-0.692 3.99 0.002 0.145 0.022 0.286 0.033 0.43-1.426 1.533-1.625 3.737-0.938 5.619-4.514 1.414-7.252 5.805-9.688 9.525-2.579 3.938-5.397 7.275-8.815 10.516-3.183 3.018-5.925 6.314-6.715 10.625-7.103-0.131-14.208-0.393-21.284-0.592-8.18-0.229-16.359-0.492-24.538-0.74-0.375-1.203-1.18-2.314-2.524-3.114-7.016-4.173-14.194-10.589-19.104-17.633 4.437-4.317 5.561-10.276 1.717-16.766-4.628-7.813-14.676-11.464-23.193-9.311-7.943 2.008-10.262 10.801-7.213 17.599 2.403 5.357 6.792 9.257 12.052 11.184 0.933 0.816 2.178 1.339 3.718 1.339h2.406c3.653 5.966 8.841 11.532 14.507 16.217-14.916-0.355-29.835-0.527-44.759-0.187-1.484 0.033-2.616 0.545-3.419 1.325-1.135 0.118-2.274 0.588-3.29 1.528-4.096 3.792-1.586 13.779-1.012 18.424 1.225 9.898 2.904 19.735 4.334 29.604 1.479 10.21 1.325 20.209 1.325 30.531 0 7.505-0.133 15.006 0.304 22.501 0.333 5.715 1.342 12.629-0.747 18.123-1.001 2.635-0.023 5.002 1.669 6.473 0.952 1.424 2.527 2.453 4.681 2.46 17.133 0.055 34.215 1.387 51.316 2.292 17.524 0.929 34.887 0.666 52.39-0.528 17.465-1.19 34.789-1.764 52.294-1.764 4.158 0 8.439 0.616 12.574 0.089 2.337-0.299 4.185-1.629 5.165-3.35 2.748 0.622 5.787-0.573 6.237-4.175 1.56-12.55 1.38-25.2 0.73-37.81zm-39.17-120.29c-0.738-3.581 7.499-2.624 9.081-2.417 4.584 0.601 4.119 3.915 1.919 7.176-2.587 3.834-6.508 2.302-10.26 1.343-0.46-0.117-0.918-0.224-1.375-0.324 0.89-1.573 1.1-3.519 0.64-5.778zm-113.78 7.854c-0.499-0.158-1.037-0.261-1.62-0.285-2.215-0.092-10.905-6.201-8.23-8.281 4.35-3.377 16.83 5.215 9.85 8.566zm141.66 145.8c-1.473-0.199-2.903 0.283-4.04 1.158-0.666 0.008-1.333-0.004-1.996-0.016-1.878-0.033-3.754-0.155-5.631-0.219-7.468-0.255-15.008-0.066-22.48 0.02-14.635 0.169-29.225 1.635-43.83 2.452-28.783 1.608-57.411-1.864-86.156-2.409 1.568-9.726-0.233-20.311-0.233-29.932 0-11.825 0.805-23.871-0.706-35.625-1.2-9.342-2.798-18.63-4.127-27.953-0.587-4.113-1.129-8.235-1.513-12.372-0.1-1.081-0.165-2.162-0.211-3.245 25.869-0.531 51.728 0.404 77.582 1.204 13.01 0.402 26.022 0.736 39.04 0.812 8.771 0.051 17.614-0.941 26.371-0.32 8.55 0.607 15.836 3.257 19.826 11.277 4.509 9.066 5.998 19.445 6.926 29.412 0.973 10.444 0.786 20.961 1.397 31.426 0.67 11.43 0.99 22.93-0.22 34.33z"/>
				<path d="m251.22 114.79c-6.144-5.748-17.334-7.349-24.519-2.687-1.054-0.413-2.296-0.478-3.672-0.003-0.603 0.186-1.172 0.448-1.71 0.789 0.012-0.009-0.106 0.11-0.286 0.29-1.79 0.661-3.261 2.032-3.584 4.063-2.625 16.525 19.497 29.746 33.15 20.192 7.93-5.54 7.17-16.51 0.62-22.64zm-7.52 14.06c-4.672 2.227-12.752-0.857-14.96-5.869 1.022 0.025 2.11-0.308 3.182-1.127 3.181-2.435 8.096-1.614 11.259 0.58 2.13 1.48 3.59 4.96 0.52 6.42z"/>
				<path d="m312.97 106.6c-5.335-0.459-10.595 0.488-15.344 2.98-4.667 2.449-6.995 8.07-9.707 12.268-1.512 2.341-0.9 4.501 0.626 5.91-0.277 2.049 0.502 4.221 2.854 5.465 6.273 3.319 14.778 3.408 21.652 2.787 7.507-0.68 16.09-3.616 17.97-11.801 2.57-11.17-8.98-16.83-18.05-17.61zm7.26 15.67c-2.005 2.744-8.229 2.877-11.602 2.98-2.973 0.091-6.612-0.148-9.479-0.863 1.05-1.881 2.148-3.824 3.75-5.113 2.301-1.854 5.716-1.873 8.38-1.846 2.633 0.027 6.293 0.634 8.365 2.357-0.025-0.021 0.512 1.648 0.536 1.794 0.12 0.71 0.13 0.59 0.05 0.69z"/>
				<path d="m282.72 155.66c-1.913 2.16-12.042 0.195-15.291 0.146-7.084-0.106-6.197 10.864 0.847 10.97 7.397 0.111 17.088 2.493 22.709-3.854 4.71-5.33-3.57-12.57-8.27-7.27z"/>
				<path d="m459.29 319.81c0.079-0.723 0.011-1.504-0.247-2.334-4.95-15.934-15.925-29.117-24.127-43.41-5.322-9.271-9.443-19.186-14.852-28.443-6.043-10.342-12.897-20.472-21.492-28.881-5.214-5.102-12.23-9.77-19.597-9.734-0.912-0.734-2.099-1.197-3.547-1.197h-0.234c-15.493-1.98-31.146-1.014-46.716-0.998-17.553 0.016-35.102 0.492-52.65 0.781-17.559 0.291-35.034 0.279-52.558-0.998-17.617-1.284-35.184-3.11-52.842-3.785-1.383-0.053-2.444 0.34-3.23 0.983-0.249-0.009-0.503-0.007-0.77 0.017-19.407 1.694-28.676 26.19-34.879 41.539-1.548 3.83-3.011 7.695-4.625 11.498-2.903 6.846-3.786 14.863-5.967 21.988-4.641 15.156-14.456 28.214-20.033 43.012-0.431 1.143-0.484 2.233-0.275 3.225-5.924 1.365-11.546 3.951-16.282 7.708-10.378 8.23-14.866 20.946-14 33.938 0.124 1.859 0.977 3.166 2.153 3.963 0.284 1.414 1.179 2.72 2.885 3.541 6.558 3.156 14.312-0.244 20.578-2.594 2.992-1.123 6.07-2.477 9.224-3.076 0.491-0.094 1.106-0.117 1.546-0.144 0.016 0.182 0.021 0.403 0.001 0.688-0.336 5.037-4.554 9.161-5.711 14.103-1.404 5.992 3.519 11.073 8.633 13.115 10.994 4.394 24.148-3.602 32.055-10.705 8.346-7.5 11.671-19.541 9.301-30.334-1.256-5.719-3.835-10.748-7.326-15.102 7.753-8.071 8.229-21.533 10.93-31.785 1.851-7.022 5.791-13.855 9.301-20.16 0.998-1.793 2.344-3.55 3.705-5.333 0 0.112 0.004 0.226 0.005 0.339 0.057 11.995-0.714 23.983-1.091 35.969-0.375 11.929 0.425 24.194-3.631 35.645-0.73 2.062-0.276 3.963 0.767 5.4 0.547 2.395 2.458 4.54 5.583 4.532 13.374-0.032 26.738-0.769 40.094-1.464 0.03 31.854 0.938 63.698 0.99 95.553-3.215-0.219-6.433-0.383-9.661-0.391-6.718-0.018-12.089 0.999-15.933 6.898-3.967 6.09-3.254 16.176 2.016 21.225 2.264 2.17 4.921 3.17 8.036 3.239 4.674 0.103 9.271 0.837 13.954 1.002 9.216 0.326 18.627-0.356 27.753-1.689 6.132-0.896 12.601-2.564 17.277-6.852 5.462-5.007 5.644-12.237 3.24-18.825-0.589-1.615-1.649-2.621-2.88-3.129 0.111-0.459 0.176-0.947 0.173-1.476-0.09-16.222-2.388-32.425-0.624-48.623 1.762-16.187 2.623-32.08 2.624-48.377 0 0-0.001-0.015-0.001-0.022 5.196-0.067 10.394-0.124 15.597-0.172 6.861-0.062 13.725-0.127 20.588-0.135-0.41 3.246 0.189 6.97 0.437 9.624 0.927 9.94 2.344 19.843 3.116 29.8 0.683 8.799 1.385 17.588 2.101 26.393 0.643 7.91 1.449 17.174-2.25 24.488-0.976 1.932-0.736 3.723 0.155 5.105-0.435 0.777-0.7 1.7-0.712 2.766-0.123 10.232-1.027 22.914 11.317 26.303 10.812 2.969 22.174-1.508 33.096-1.212 8.912 0.241 21.783 2.477 29.147-3.954 8.437-7.367 6.253-23.557-4.628-27.487-0.429-0.155-0.851-0.256-1.263-0.313-0.92-0.762-2.126-1.246-3.607-1.244-5.354 0.009-10.707 0.09-16.059 0.199 0.666-14.776-3.033-29.326-3.033-44.1v-44.618c13.187 1.077 26.964 2.022 39.334-2.806 3.606-1.406 4.156-5.158 2.832-7.843 2.572-8.227 2.045-17.172 1.881-25.698-0.232-12.084-0.027-24.15-0.661-36.227-0.121-2.302-0.263-4.606-0.405-6.91 3.44 3.643 7.017 7.201 10.001 11.293 2.406 3.299 4.645 6.737 6.766 10.263-1.207 3.433 0.85 7.768 4.391 7.692 4.31 7.923 8.21 16.108 12.185 24.058 0.346 0.692 0.786 1.259 1.284 1.721-3.903 5.401-6.615 11.517-7.565 17.678-1.827 11.845 4.446 22.515 13.216 29.927 9.104 7.691 22.602 14.439 32.258 3.661 8.463-9.446-4.146-17.11-7.811-24.624-1.641-3.363 6.063-4.48 7.771-4.565 1.007-0.05 1.996 0.222 2.964 0.45-1.81-0.428-0.154 0.12 0.592 0.83 1.894 1.801 3.464 4.002 5.21 5.945 3.847 4.281 9.522 6.977 15.091 4.35 1.058-0.498 1.835-1.207 2.375-2.021 1.644-0.486 2.967-1.804 3.206-4.12 0.184-1.791 0.274-3.587 0.27-5.376v-0.007c-0.02-17.3-8.85-33.97-26.21-39.15zm-294.78-106.44c0.199 4.344 0.568 8.674 0.927 13.004-3.644-1.82-7.628-2.764-11.695-3.21 2.75-4.14 6.29-8.25 10.77-9.79zm-25.06 154.48c-2.009 5.205-6.05 8.981-10.677 11.889-4.054 2.547-10.434 6.231-15.378 4.256-2.702-1.078-0.755-2.871 0.42-4.98 1.301-2.334 2.999-4.978 3.433-7.667 0.663-4.104 0.798-8.229-1.495-11.861-3.935-6.231-12.641-3.988-18.264-2.114-3.474 1.157-6.859 2.566-10.325 3.749-1.363 0.465-2.771 0.929-4.188 1.187-0.563 0.104-1.132 0.148-1.703 0.182-0.414-16.117 10.905-28.34 27.183-29.498 17.72-1.27 38.3 15.96 31.01 34.85zm-3.65-37.33c-0.971-0.742-1.97-1.457-2.998-2.137-6.197-4.096-13.519-6.19-20.921-6.412 1.31-3.182 2.774-6.291 4.307-9.368 0.622 0.179 1.315 0.253 2.089 0.184 7.769-0.702 15.94 1.999 22.889 5.329-1.01 4.66-2.46 9.06-5.37 12.41zm9.12-29.67c-0.721 1.889-1.245 3.959-1.692 6.115-6.687-2.911-14.109-5.079-21.408-5.275 2.529-4.842 5.007-9.709 7.114-14.752 0.31-0.742 0.604-1.487 0.887-2.236 6.662 1.281 12.621 4.777 19.08 6.73-1.43 3.1-2.76 6.24-3.98 9.43zm17.53-32.6c-0.249 1.814-2.115 3.725-3.219 5.199-1.9 2.539-3.589 5.133-5.151 7.89-0.09 0.159-0.172 0.323-0.262 0.482-0.539-0.394-1.172-0.714-1.919-0.921-6.403-1.773-12.235-5.178-18.737-6.703 1.76-6.386 3.276-12.846 5.547-19.072 7.095 5.146 17.731 7.464 25.091 9.573 0.202 0.058 0.398 0.103 0.592 0.139-0.98 0.7-1.72 1.81-1.94 3.41zm3.45-14.35c-4.192-1.202-8.344-2.489-12.417-4.054-3.257-1.251-7.993-2.78-10.394-5.675 1.475-3.518 3.037-6.996 4.724-10.415 0.152 0.013 0.303 0.026 0.461 0.027 4.006 0.042 9.529 0.294 12.945 2.647 1.536 1.059 3.333 1.551 4.99 1.184 0.091 1.972 0.158 3.945 0.162 5.926 0.007 3.543 0.108 7.082 0.248 10.617-0.23-0.11-0.47-0.2-0.72-0.27zm78.32 219.83c-3.648 2.17-8.667 2.549-12.783 2.982-7.187 0.76-14.422 1.326-21.652 1.227-3.802-0.053-7.596-1.186-11.361-1.129-2.488 0.037-3.875 0.885-4.768-1.249-0.777-1.858-0.277-4.444 0.424-6.233 0.271-0.691 0.87-1.202 1.012-1.377 0.336-0.08 0.676-0.133 1.06-0.191 4.984-0.761 10.242-0.256 15.238 0.107 4.619 0.338 9.245 0.855 13.879 0.913 7.339 0.094 14.66-0.924 22-1 0.048-0.001 0.092-0.007 0.139-0.009 0.43 2.51-0.34 4.27-3.19 5.96zm-1.96-42.47c-0.536 0.189-1.041 0.457-1.502 0.785-0.149-0.006-0.3-0.012-0.449-0.018-1.295-0.049-2.588-0.18-3.885-0.211-4.935-0.121-9.729-0.732-14.396 1.293-0.312 0.137-0.594 0.294-0.86 0.463-0.061-5.398-0.131-10.797-0.208-16.194 0.264 0.122 0.54 0.233 0.838 0.322 6.597 1.965 13.49 1.173 20.265 1.089-0.07 4.16 0.03 8.32 0.2 12.48zm-16.59 12.23c5.096-2.213 11.326-0.649 16.251-0.467 0.318 0.012 0.626 0.013 0.928 0.004 0.243 4.623 0.459 9.248 0.506 13.871-7.243 0.309-14.512 1.287-21.743 0.806-0.092-0.007-0.185-0.013-0.277-0.02-0.003-4.778-0.032-9.555-0.07-14.333 1.17 0.71 2.68 0.88 4.4 0.14zm17.06-35.55c-0.409-0.084-0.844-0.129-1.307-0.125-5.916 0.059-11.765 0.803-17.527-0.914-1.181-0.352-2.214-0.31-3.086 0-0.048-3.197-0.096-6.395-0.141-9.592 7.323 1.725 15.557 1.533 22.601 0.476 0.22-0.031 0.432-0.076 0.636-0.128-0.39 3.41-0.82 6.83-1.17 10.27zm-0.3-21.13c-6.693 1.004-15.32 1.518-21.902-0.939-0.03-2.586-0.061-5.17-0.084-7.754 7.697-2.207 16.727-1.619 24.799-1.4-0.053 2.779-0.123 5.559-0.236 8.338-0.026 0.645-0.069 1.285-0.106 1.928-0.72-0.24-1.54-0.32-2.47-0.18zm-22.07-20.01c-0.009-2.006-0.023-4.01-0.026-6.016 8.359-0.369 16.712-0.6 25.067-0.76-0.025 0.227-0.04 0.459-0.04 0.699 0 1.687-0.003 3.373-0.009 5.06-8.07-0.14-16.95-0.65-24.99 1.02zm83.19-2.98c-0.046-0.688-0.078-1.377-0.094-2.066-0.005-0.136-0.006-0.246-0.007-0.354 0.358-0.555 0.592-1.167 0.707-1.804 8.409 0.101 16.815 0.36 25.212 0.882v8.061c-7.839-1.637-15.99-0.792-23.938-0.732-0.56 0.004-1.064 0.084-1.526 0.213-0.13-1.39-0.25-2.79-0.35-4.2zm27.88 67.99c-6.672 0.164-13.32 0.955-20 1-0.584 0.004-1.11 0.088-1.587 0.229-0.071-3.747-0.393-7.523-0.788-11.238 6.98 0.176 14.423 1.471 21.284 0.005 0.36 3.337 0.766 6.671 1.13 10.006h-0.03zm0.84 10.97c0.032-0.001 0.062-0.005 0.093-0.007 0.112 2.49 0.147 4.984 0.054 7.486-8.319 0.206-16.637 0.424-24.958 0.51 0.878-2.502 1.464-5.103 1.841-7.765 0.818 0.489 1.809 0.783 2.969 0.775 6.69-0.04 13.34-0.84 20.01-1zm-12.27-31.36c-4.069-0.106-8.124-0.521-12.194-0.593-0.051-0.474-0.105-0.953-0.152-1.422-0.255-2.54-0.476-5.08-0.682-7.62h22.396v4.978c0 1.369 0.041 2.736 0.098 4.102-2.66 1.15-6.76 0.62-9.48 0.55zm-15.13-32.79c0.437 0.099 0.901 0.155 1.401 0.151 7.518-0.057 15.156-0.953 22.527 0.914 0.192 0.049 0.38 0.085 0.564 0.114v11.002h-23.266c-0.32-3.852-0.681-7.703-1.158-11.557-0.01-0.19-0.03-0.4-0.06-0.61zm53.61 82.16c0.281 0.16 0.584 0.307 0.925 0.43 2.752 0.994 3.979 3.364 3.712 6.309-0.306 3.377-2.914 3.856-5.836 4.279-6.924 1.001-13.907-0.11-20.849 0.018-8.188 0.152-16.328 2.727-24.548 2.016-6.193-0.535-6.231-6.625-5.851-12.09 17.5-0.13 34.97-0.89 52.46-0.97zm13.44-112.94c-0.224 0.58-0.347 1.146-0.392 1.694-13.569 3.585-28.884 0.8-42.543-0.038-19.281-1.183-38.599-0.977-57.904-0.796-17.821 0.168-35.59 0.327-53.396 1.175-14.361 0.684-28.728 1.616-43.107 1.865 2.282-9.061 2.691-18.271 2.778-27.734 0.121-13.282 1.055-26.542 1.237-39.823 0.172-12.569-1.114-25.07-1.235-37.638-0.06-6.145 0.032-12.252-0.49-18.381-0.46-5.41-1.107-10.785-1.393-16.199 15.257 0.742 30.46 2.273 45.691 3.421 17.207 1.296 34.358 1.471 51.604 1.23 17.551-0.244 35.097-0.72 52.65-0.827 14.265-0.088 28.754-0.99 43.002 0.303 0.312 23.183 2.393 46.472 4.082 69.568 0.877 11.991 0.856 24.035 0.857 36.051 0 8.32 1.63 18.2-1.44 26.14zm7.52-129.85c4.229 0.059 8.445 3.525 11.773 6.847-3.933 1.631-7.787 3.439-11.318 5.762-0.19-4.2-0.35-8.4-0.45-12.61zm2.53 43.95c-0.013-0.011-0.022-0.024-0.035-0.034-0.446-6.045-0.891-12.09-1.286-18.138h0.62c3.034 0 4.604-2.01 4.86-4.308 3.251-2.115 7.039-3.578 10.536-4.986 0.807-0.324 1.459-0.768 1.972-1.289 2.421 3.062 4.688 6.273 6.816 9.574-4.938 3.926-10.139 7.517-15.03 11.508-2.75 2.25-5.91 4.77-8.46 7.68zm13.81 16.92c-1.641-1.778-3.345-3.516-5.1-5.257-0.717-0.711-1.426-1.428-2.125-2.152 1.484-3.316 7.126-7.358 9.978-9.645 4.134-3.314 8.497-6.335 12.663-9.604 0.457 0.789 0.914 1.575 1.364 2.36 1.953 3.412 3.731 6.907 5.473 10.42-2.725 3.036-7.659 4.958-10.992 6.734-3.99 2.12-7.8 4.31-11.26 7.14zm7.64 9.48c-0.24-0.351-0.489-0.689-0.733-1.033 6.012-5.275 14.014-7.684 20.273-12.427 0.917 1.791 1.852 3.573 2.833 5.333 1.201 2.152 2.48 4.269 3.796 6.368-0.255 0.364-0.483 0.778-0.668 1.261-0.002 0.007-0.003 0.01-0.005 0.017-0.064 0.044-0.137 0.099-0.222 0.163-0.881 0.674-1.864 1.222-2.823 1.775-2.417 1.394-4.991 2.516-7.534 3.655-3.033 1.356-6.121 2.604-9.184 3.901-1.85-3.06-3.74-6.08-5.75-9.01zm11.16 18.61c3.181-1.341 6.376-2.649 9.513-4.076 3.339-1.519 8.539-3.44 11.891-6.392 4.572 7.047 8.962 14.193 11.81 22.086-8.069 0.669-15.847 4.438-22.23 9.943-3.57-7.19-7.14-14.46-10.98-21.56zm60 53.26c-1.879-0.51-3.617-3.347-4.844-4.806-2.885-3.43-5.446-6.041-9.935-7.102-8.003-1.889-18.305 1.793-21.866 9.47-4.32 9.312 4.913 15.593 9.242 22.46 0.818 1.297-0.721 1.802-1.996 2.356-2.737 1.19-6.026-0.735-8.326-2.023-4.646-2.603-9.084-6.608-12.18-10.911-11.731-16.311 7.612-38.822 24.657-40.1 16.79-1.26 25.84 16.02 25.26 30.65z"/>
				<path d="m317.41 234.22c-3.679-6.618-11.955-8.405-18.94-8.659-3.637-0.131-7.171 1.065-9.891 3.455-1.836 1.613-3.249 5.394-5.548 6.088-2.886 0.872-3.882 3.247-3.56 5.533-8.882 16.158 22.438 22.342 33.242 17.198 10.03-4.78 9.46-15.05 4.7-23.62zm-9.37 13.7c-4.163 1.764-9.341 1.152-13.956-0.102-1.416-0.385-3.827-1.595-4.666-2.293-0.048-0.04-0.076-0.061-0.114-0.092 0.312-0.53 0.524-1.07 0.65-1.609 2.414-1.807 3.906-4.436 6.1-6.85 2.056-2.262 9.633 0.659 11.432 2.088 1.028 0.817 1.631 2.914 2.082 4.119 0.26 0.696 0.495 2.592 0.514 2.373-0.11 1.27-0.41 1.67-2.03 2.36z"/>
				<path d="m348.47 228.07c-8.243-1.725-17.932 3.064-23.754 8.592-2.493 2.367-1.831 5.27 0.09 7.095-1.495 6.584 4.522 11.465 11.093 12.763 7.559 1.492 17.431-0.588 21.643-7.594 4.89-8.14 0.02-18.95-9.07-20.86zm-0.42 15.36c-1.155 2.432-6.172 2.508-8.375 2.506-1.306-0.002-2.518-0.295-3.633-0.754 0.544-1.299 0.525-2.521 0.134-3.579 2.31-1.325 4.959-2.247 7.398-2.641 3.08-0.51 6.24 0.74 4.47 4.46z"/>
				<path d="m358.33 270.87c-0.442-3.274-2.772-4.887-5.908-5.062-13.785-0.769-27.251 2.826-41 3-2.471 0.031-3.972 1.385-4.585 3.129-1.472 0.941-2.526 2.553-2.477 4.779 0.234 10.621 4.339 20.631 4.963 31.215 0.238 4.024 0.377 8.068 0.587 12.098 0.159 3.043 0.699 7.117-0.993 9.816-1.428 2.279-0.895 4.386 0.52 5.802-0.55 2.178 0.191 4.515 2.96 5.573 14.905 5.695 30.538 0.76 45.871 0.558 3.156-0.042 5.069-3.065 5.062-5.908-0.05-21.79-2.08-43.44-5-65.01zm-38.33 61.36c2.41-6.463 0.705-15.036 0.38-21.461-0.292-5.787-0.884-11.241-2.102-16.919-1.019-4.751-2.177-9.387-2.686-14.175 10.851-0.534 21.556-2.812 32.413-2.985 2.321 18.069 3.954 36.199 4.279 54.416-10.59 0.95-22.11 3.82-32.28 1.11z"/>
</svg>
