<?xml version="1.0" encoding="UTF-8" standalone="no"?>
<!-- Generator: Adobe Illustrator 16.0.3, SVG Export Plug-In . SVG Version: 6.00 Build 0)  -->
<!DOCTYPE svg  PUBLIC '-//W3C//DTD SVG 1.1//EN'  'http://www.w3.org/Graphics/SVG/1.1/DTD/svg11.dtd'>
<svg id="Layer_1" style="enable-background:new 0 0 512 512" xmlns="http://www.w3.org/2000/svg" xml:space="preserve" height="512px" viewBox="0 0 512 512" width="512px" version="1.1" y="0px" x="0px" xmlns:xlink="http://www.w3.org/1999/xlink">
<style type="text/css">
<![CDATA[
	.st0{fill:#127274;}
	.st1{fill:#14B6B9;}
	.st2{fill:#EF4823;}
	.st3{fill:#BCBCBC;}
	.st4{fill:#F6851F;}
	.st5{fill:#C0E6ED;}
	.st6{fill:#C56528;}
	.st7{fill:#FCBF95;}
	.st8{fill:#FEBF10;}
	.st9{fill:#FFFFFF;}
	.st10{fill:#9FDADF;}
	.st11{fill:#010101;}
	.st12{fill:#3AB37C;}
	.st13{fill:#D6E5E5;}
	.st14{fill:#71C598;}
	.st15{fill:#74CCCF;}
]]>
</style>
			<path class="st2" d="m201.26 349.24c-2.998-6.397-12.455-9.576-19.408-8.983-8.369 0.713-12.151 5.514-10.782 14.214 0.723 4.595-3.727 6.514-7.196 5.347 0.491 2.42 1.056 4.35 3.188 6.04 5.195 4.116 12.618 5.017 19.012 4.035 6.356-0.977 11.824-3.727 14.58-9.747 1.66-3.63 2.27-7.35 0.61-10.91z"/>
			<path class="st2" d="m346.44 270.26c-8.267-22.994-20.851-44.381-40.483-59.39-18.533-14.17-40.754-23.57-63.367-28.949-11.359-2.703-22.941-4.597-34.605-5.306-5.694-0.346-11.431-0.41-17.13-0.143-4.65 0.218-10.099 0.05-14.544 1.571-7.612 2.607-7.403 10.345-6.252 17.177 1.104 6.554 3.232 12.855 5.189 19.196h0.456c7.785 0 15.487-0.203 23.216 0.962 13.949 2.103 27.726 6.34 40.451 12.442 23.438 11.24 44.265 29.192 61.221 48.746 16.852 19.432 29.777 42.207 35.179 67.51 1.137 5.324 0.74 10.865 0.688 16.272-0.044 4.511-0.638 10.134 1.109 14.41 1.302 3.188 7.76 3.159 10.597 3.248 2.993 0.095 5.981 0.032 8.971-0.028 3.55-35.94 1.57-73.56-10.71-107.72z"/>
			<path class="st2" d="m256.93 374.91h25.383c-5.231-36.184-19.971-77.873-52.937-96.843-6.822-3.927-14.188-7.046-21.638-9.564-7.532-2.546-16.021-5.036-24.054-4.716-2.843 0.114-6.099 0.299-8.411 2.178-2.026 1.646-2.286 4.078-2.47 6.663-0.337 4.751 0.168 9.489 0.638 14.228 7.061-2.099 15.438-1.053 22.229 0.846 11.542 3.229 23.737 8.361 33.024 16.131 12.958 10.84 22.198 27.759 25.883 44.103 1.934 8.578 2.855 17.14 2.4 25.935-0.01 0.33-0.03 0.68-0.04 1.03z"/>
			<path class="st13" d="m427.11 269.23c-0.254-27.607 3.704-55.389 0.524-82.932-2.819-24.416-11.729-50.535-32.766-65.082-17.831-12.33-40.728-15.912-61.98-15.972-30.663-0.087-61.244 3.603-91.898 4.161-15.88 0.289-31.815-0.034-47.621-1.695-12.761-1.342-25.546-3.409-38.373-4.008-11.81-0.553-24.11-0.113-35.076 4.789-6.135 2.743-11.575 6.676-16.197 11.548-3.238 3.413-5.794 7.36-8.664 11.062 0.718 4.624 1.428 9.25 2.109 13.879 4.603 31.215 8.396 62.618 9.356 94.182 0.886 29.121-1.612 58.254-0.578 87.354 0.927 26.065 5.723 55.434 24.605 75.037 15.878 16.483 37.896 23.492 60.071 26.503 12.118 1.646 24.231 2.239 36.447 2.399 16.489 0.217 32.962 0.953 49.43 1.795 16.472 0.843 32.942 1.774 49.43 2.266 13.514 0.402 27.353 1.223 40.818-0.404 16.103-1.944 32.034-7.749 42.808-20.387 9.777-11.468 14.521-26.119 16.926-40.788 5.62-34.29 0.94-69.24 0.63-103.72zm-213.85 84.38c-0.789 19.79-19.753 30.201-38.094 27.111-8.473-1.428-19.048-6.158-21.232-15.367-1.895-7.981-4.839-21.022 5.332-24.646 1.006-0.358 1.941-0.424 2.784-0.275 10.4-19.97 52.2-11.55 51.21 13.19zm75.74 32.27h-38.998c-2.023 0-3.535-0.902-4.501-2.188-0.157-0.169-0.285-0.312-0.364-0.413-3.359-2.688-2.654-8.459 0.749-9.795 0.114-0.684 0.242-1.371 0.249-1.85 0.023-1.542 0.046-3.086-0.017-4.627-0.124-3.086-0.334-6.174-0.794-9.23-1.004-6.677-2.761-13.252-5.423-19.469-4.461-10.415-11.483-21.932-21.194-28.256-7.983-5.199-16.993-9.592-26.279-11.852-6.977-1.698-16.494-3.562-21.213 3.329-3.998 5.84-12.228-1.473-8.264-7.262 0.019-0.027 0.039-0.052 0.058-0.079-0.771-15.742-5.67-37.156 14.964-40.861 8.958-1.608 18.633 0.395 27.232 2.938 8.945 2.646 17.836 5.931 26.09 10.308 40.396 21.426 57.689 70.609 62.768 113.4 0.32 2.81-2.17 5.91-5.08 5.91zm78.47-1.43c-0.256 2.281-2.694 4.42-4.977 4.436-2.428 0.016-4.854 0.114-7.281 0.146-7.926 0.101-22.242 0.796-26.654-7.743-4.848-9.383-2.545-20.48-3.068-30.616-0.612-11.861-5.935-24.596-11.368-35.027-5.933-11.39-13.224-22.045-21.638-31.748-17.081-19.696-38.486-38.075-62.652-48.308-12.17-5.152-26.635-10.195-40.037-10.195h-14.807c-2.725 2.279-7.387 2.196-8.599-2.166-3.939-14.18-14.236-35.443-3.53-48.953 6.156-7.768 16.714-8.276 25.854-8.706 11.239-0.527 22.568-0.022 33.724 1.45 45.177 5.963 93.366 25.967 118.27 66.058 27.81 44.71 32.52 100.09 26.78 151.37z"/>
			<path d="m439.23 302.4c-0.84-19.994-1.444-39.839-0.571-59.851 1.248-28.595 3.027-57.687-6.066-85.302-7.413-22.514-21.094-40.892-42.571-51.498-19.845-9.801-42.873-11.897-64.692-11.41-31.606 0.704-63.089 4.102-94.72 4.196-15.871 0.048-31.521-1.264-47.279-2.983-12.13-1.322-24.224-2.955-36.446-3.015-11.833-0.059-23.874 1.981-34.47 7.409-5.92 3.033-11.067 6.99-15.808 11.639-3.615 3.546-6.366 7.773-9.427 11.76-1.965 0.504-3.563 1.978-3.645 4.342-0.026 0.028-0.05 0.059-0.077 0.087-2.727 2.873-1.363 6.384 1.219 8.051 4.416 28.895 8.247 57.882 10.074 87.07 1.865 29.827 0.404 59.583 0.08 89.423-0.301 27.668 2.33 55.51 15.851 80.167 11.382 20.758 30.366 33.733 52.544 40.86 23.412 7.522 48.279 7.705 72.598 8.213 32.98 0.687 65.882 3.369 98.859 4.135 21.644 0.502 43.773 0.705 63.529-9.41 13.853-7.093 24.248-18.805 30.746-32.849 14.28-30.86 11.66-67.99 10.27-101.04zm-12.75 70.54c-2.404 14.669-7.148 29.32-16.926 40.788-10.773 12.638-26.705 18.442-42.808 20.387-13.466 1.627-27.305 0.807-40.818 0.404-16.487-0.491-32.958-1.423-49.43-2.266-16.468-0.842-32.94-1.578-49.43-1.795-12.216-0.16-24.329-0.754-36.447-2.399-22.175-3.011-44.193-10.02-60.071-26.503-18.883-19.604-23.679-48.972-24.605-75.037-1.034-29.1 1.464-58.232 0.578-87.354-0.961-31.563-4.754-62.967-9.356-94.182-0.682-4.629-1.392-9.255-2.109-13.879 2.87-3.701 5.426-7.648 8.664-11.062 4.622-4.872 10.062-8.805 16.197-11.548 10.966-4.902 23.267-5.342 35.076-4.789 12.827 0.599 25.612 2.666 38.373 4.008 15.806 1.661 31.741 1.984 47.621 1.695 30.654-0.559 61.235-4.248 91.898-4.161 21.253 0.06 44.149 3.642 61.98 15.972 21.036 14.547 29.946 40.666 32.766 65.082 3.18 27.543-0.778 55.324-0.524 82.932 0.3 34.47 4.98 69.42-0.64 103.7z"/>
			<path d="m162.05 340.43c-0.843-0.148-1.778-0.083-2.784 0.275-10.171 3.624-7.227 16.665-5.332 24.646 2.185 9.209 12.76 13.939 21.232 15.367 18.341 3.09 37.305-7.321 38.094-27.111 0.99-24.74-40.81-33.16-51.21-13.18zm38.6 19.72c-2.756 6.021-8.224 8.771-14.58 9.747-6.394 0.981-13.816 0.081-19.012-4.035-2.133-1.69-2.697-3.62-3.188-6.04 3.47 1.167 7.919-0.752 7.196-5.347-1.369-8.7 2.413-13.501 10.782-14.214 6.953-0.593 16.41 2.586 19.408 8.983 1.66 3.56 1.05 7.28-0.61 10.91z"/>
			<path d="m294.06 379.98c-5.078-42.789-22.372-91.973-62.768-113.4-8.254-4.377-17.145-7.662-26.09-10.308-8.6-2.544-18.274-4.547-27.232-2.938-20.634 3.705-15.735 25.119-14.964 40.861-0.019 0.027-0.039 0.052-0.058 0.079-3.964 5.789 4.266 13.102 8.264 7.262 4.719-6.892 14.236-5.027 21.213-3.329 9.286 2.26 18.296 6.652 26.279 11.852 9.711 6.324 16.733 17.841 21.194 28.256 2.662 6.217 4.419 12.792 5.423 19.469 0.46 3.057 0.67 6.145 0.794 9.23 0.062 1.541 0.04 3.085 0.017 4.627-0.007 0.479-0.135 1.166-0.249 1.85-3.403 1.336-4.108 7.107-0.749 9.795 0.079 0.102 0.207 0.244 0.364 0.413 0.966 1.286 2.478 2.188 4.501 2.188h39.02c2.91 0 5.4-3.1 5.06-5.9zm-37.13-5.07c0.016-0.35 0.031-0.698 0.049-1.041 0.455-8.795-0.467-17.356-2.4-25.935-3.685-16.344-12.925-33.263-25.883-44.103-9.287-7.77-21.482-12.902-33.024-16.131-6.792-1.898-15.169-2.944-22.229-0.846-0.47-4.738-0.975-9.477-0.638-14.228 0.184-2.585 0.443-5.017 2.47-6.663 2.312-1.879 5.568-2.063 8.411-2.178 8.033-0.32 16.521 2.17 24.054 4.716 7.449 2.519 14.815 5.638 21.638 9.564 32.966 18.97 47.705 60.659 52.937 96.843h-25.39z"/>
			<path d="m340.71 233.07c-24.908-40.091-73.098-60.095-118.27-66.058-11.155-1.473-22.484-1.978-33.724-1.45-9.141 0.43-19.698 0.938-25.854 8.706-10.706 13.51-0.409 34.773 3.53 48.953 1.212 4.362 5.874 4.445 8.599 2.166h14.807c13.402 0 27.867 5.043 40.037 10.195 24.166 10.232 45.571 28.611 62.652 48.308 8.414 9.703 15.705 20.358 21.638 31.748 5.434 10.432 10.756 23.166 11.368 35.027 0.523 10.136-1.779 21.233 3.068 30.616 4.412 8.539 18.729 7.844 26.654 7.743 2.428-0.031 4.854-0.13 7.281-0.146 2.282-0.016 4.721-2.154 4.977-4.436 5.72-51.27 1.01-106.65-26.78-151.37zm16.42 144.91c-2.989 0.061-5.978 0.123-8.971 0.028-2.837-0.089-9.295-0.061-10.597-3.248-1.747-4.276-1.153-9.899-1.109-14.41 0.053-5.407 0.449-10.948-0.688-16.272-5.401-25.303-18.327-48.078-35.179-67.51-16.956-19.554-37.782-37.506-61.221-48.746-12.726-6.103-26.502-10.34-40.451-12.442-7.729-1.165-15.431-0.962-23.216-0.962h-0.456c-1.957-6.341-4.086-12.643-5.189-19.196-1.151-6.832-1.36-14.569 6.252-17.177 4.445-1.521 9.894-1.354 14.544-1.571 5.699-0.268 11.436-0.203 17.13 0.143 11.664 0.709 23.246 2.603 34.605 5.306 22.613 5.379 44.834 14.779 63.367 28.949 19.633 15.009 32.217 36.396 40.483 59.39 12.31 34.16 14.29 71.78 10.72 107.72z"/>
</svg>
