<?xml version="1.0" encoding="UTF-8" standalone="no"?>
<!-- Generator: Adobe Illustrator 16.0.3, SVG Export Plug-In . SVG Version: 6.00 Build 0)  -->
<!DOCTYPE svg  PUBLIC '-//W3C//DTD SVG 1.1//EN'  'http://www.w3.org/Graphics/SVG/1.1/DTD/svg11.dtd'>
<svg id="Layer_1" style="enable-background:new 0 0 512 512" xmlns="http://www.w3.org/2000/svg" xml:space="preserve" height="512px" viewBox="0 0 512 512" width="512px" version="1.1" y="0px" x="0px" xmlns:xlink="http://www.w3.org/1999/xlink">
<style type="text/css">
<![CDATA[
	.st0{fill:#127274;}
	.st1{fill:#14B6B9;}
	.st2{fill:#1E4384;}
	.st3{fill:#513620;}
	.st4{fill:#EF4754;}
	.st5{fill:#EF4823;}
	.st6{fill:#BCBCBC;}
	.st7{fill:#F6851F;}
	.st8{fill:#C56528;}
	.st9{fill:#FCBF95;}
	.st10{fill:#FEBF10;}
	.st11{fill:#3AB37C;}
	.st12{fill:#D6E5E5;}
	.st13{fill:#71C598;}
	.st14{fill:#A37B57;}
	.st15{fill:#74CCCF;}
]]>
</style>
			<path class="st8" d="m386.02 150c-0.192-6.945-0.639-13.91-0.986-20.85-0.94-18.723-2.942-37.867-10.447-55.25-7.265-16.825-19.689-32.322-36.436-40.467-6.248-3.039-12.887-5.252-19.839-5.881-4.165-0.376-9.4-0.549-13.07 1.785 14.428 13.238 26.05 29.229 27.075 49.602 0.17 3.392 0.127 6.735-0.339 9.965 0.144 0.473 0.233 0.991 0.244 1.568 0.201 10.243 4.914 20.128 10.574 28.474 5.577 8.222 12.443 16.357 21.388 21.023 5.155 2.688 3.133 9.458-2.024 10.412-1.45 0.269-3.381 0.615-5.001 1.105 0.308 0.229 0.603 0.444 0.75 0.538 1.906 1.213 3.867 2.335 5.85 3.42 4.053 2.22 12.684 5.568 16.067 10.516l2.864 0.306c0.018 0.016 0.033 0.031 0.051 0.047 3.63-4.02 3.43-11.42 3.3-16.32z"/>
			<path class="st9" d="m389.22 199.85c-0.158-3.621-0.497-12.523-4.324-14.906-0.918 13.597-2.677 27.125-4.673 40.624 3.494-1.973 7.025-5.251 8.007-8.119 1.86-5.43 1.23-11.93 0.98-17.59z"/>
			<path class="st8" d="m320.87 75.156c-2.651-16.934-13.25-29.197-25.768-40.123-1.163-1.015-1.728-2.2-1.846-3.386-4.373-1.3-8.554-3.202-12.974-4.35-5.536-1.438-11.374-1.82-17.077-2.046-12.667-0.503-25.235 0.223-37.654 2.841-19.238 4.057-37.395 12.526-52.586 25.066-14.975 12.362-27.089 28.479-33.656 46.84-7.857 21.966-6.653 45.281-4.658 68.143 0.496-0.145 1.003-0.274 1.527-0.379-0.131-1.244-0.279-2.486-0.405-3.731-0.177-1.742-0.353-3.487-0.525-5.232 1.885-2.583 3.825-5.128 5.682-7.729l1.194 0.127c1.969-2.844 4.923-5.009 7.792-6.959 4.781-3.251 9.804-6.143 14.902-8.864 13.645-7.28 26.327-15.946 38.837-25.031 3.52-2.556 8.045 0.209 8.562 4.136 0.494 3.758 0.253 7.858-0.774 11.725 5.87-1.614 11.595-3.898 16.838-6.735 8.254-4.468 16.631-10.142 20.523-19.013 2.875-6.55 12.428-1.623 9.855 4.895-1.4 3.543-8.791 23.36-0.653 23.189 7.646-0.16 15.298-3.462 22.063-6.778 7.732-3.792 15.123-8.357 22.18-13.284 5.648-3.942 12.853-8.292 16.492-14.341 3.46-5.722 3.15-12.59 2.15-18.993z"/>
			<path class="st9" d="m141.09 210.61c-1.099-10.495-2.413-20.967-3.639-31.446-7.836 3.392-7.979 16.958-7.06 25.282 0.799 7.25 2.602 14.474 5.792 21.062 1.564 3.229 4.186 7.256 6.98 9.497-0.61-8.14-1.22-16.28-2.07-24.39z"/>
			<path class="st12" d="m242.04 422.67c-14.487-0.884-28.687-4.691-38.998-14.398-1.321 4.144-4.077 7.834-7.472 10.948 5.895 5.736 9.597 13.464 13.711 20.529 2.962 5.086 9.725 17.778 17.342 14.9 7.957-3.007 13.994-11.272 19.001-17.764 3.504-4.542 6.704-9.37 10.195-13.943-4.6 0.05-9.19 0-13.78-0.28z"/>
			<path class="st9" d="m333.64 393.88c-0.665-2.037-1.535-4.179-1.984-5.865-1.172-4.39-2.275-8.829-3.002-13.318-0.299-1.841-0.571-3.769-0.748-5.725-3.784 2.229-7.795 4.216-12.024 5.953-21.875 8.988-46.446 13.138-70.03 10.271-14.989-1.82-28.704-6.378-40.964-13.834 0.732 7.145 0.239 14.624-0.118 21.763 0.183 0.214 0.361 0.441 0.526 0.699 8.774 13.742 24.554 17.585 39.983 18.08 8.203 0.263 16.393-0.098 24.592-0.337 4.363-0.127 8.697 0.009 13.021-0.643 10.85-1.633 21.657-4.083 32.184-7.163 5.11-1.495 10.288-3.072 15.114-5.354 1.008-0.476 2.069-1.035 3.038-1.704-0.17-1.02 0-1.98 0.41-2.84z"/>
			<path class="st12" d="m339.05 405.85c-13.704 9.463-47.088 14.736-53.435 15.753-2.81 0.45-5.597 0.646-8.394 0.756 2.622 4.473 4.492 9.951 5.707 12.723 1.404 3.198 3.579 9.637 6.657 14.8 2.128 0.621 3.848 2.347 3.723 4.907 2.266 2.194 4.877 3.329 7.867 2.396 9.684-3.021 17.57-11.899 23.975-19.344 6.194-7.201 12.32-14.892 16.661-23.389 0.582-1.141 1.383-1.91 2.284-2.377-1.75-2.02-3.43-4.1-5.05-6.23z"/>
			<path class="st2" d="m289.51 492.22c-1.217-2.145-2.881-3.397-4.804-4.916-3.955-3.12-8.206-6.27-10.883-10.625-2.55-4.15-1.864-9.164 0.702-13.114 1.542-2.376 4.765-4.692 6.598-7.255-1.12-1.68-2.138-3.448-3.05-5.258-2.531-5.026-4.447-10.312-6.825-15.402-1.107-2.369-2.27-4.715-3.563-6.988-0.326-0.572-0.654-1.148-0.992-1.717-5.583 6.709-10.2 14.217-15.781 20.938-1.644 1.979-3.394 4.042-5.261 6.043 4.683 4.293 8.352 9.479 11.646 14.903 1.386 2.28 1.098 4.6-0.427 6.706-2.831 3.908-6.584 10.911-9.779 15.907-1.261 1.972-2.778 4.795-4.68 7.084 9.503 0.171 19.014 0.052 28.519-0.366 7.026-0.31 14.047-0.782 21.067-1.342-0.89-1.51-1.65-3.08-2.51-4.6z"/>
			<path class="st12" d="m407.96 452.7c-5.058-6.351-13.58-9.897-20.836-13.011-8.802-3.776-17.756-7.097-25.852-12.312-3.533-2.276-6.775-4.861-9.81-7.662-4.91 9.497-11.795 18.358-18.861 26.315-7.241 8.152-16.234 17.931-26.994 21.287-6.791 2.118-12.538 0.5-17.253-3.071-0.592 0.668-1.206 1.327-1.84 1.994-3.054 3.21-4.362 4.406-0.78 7.636 3.433 3.095 7.285 5.704 10.632 8.89 3.131 2.978 4.093 7.778 6.929 11.057 0.549 0.635 0.898 1.278 1.091 1.913 14.021-1.304 28.027-2.846 42.02-4.184 18.865-1.803 42.758-4.161 56.536-18.892 5.03-5.41 10.51-13.08 5.01-19.98z"/>
			<path class="st12" d="m237.39 461.3c-3.083 2.149-6.438 3.781-10.114 4.487-10.588 2.034-19.457-7.568-24.557-15.646-5.139-8.141-8.904-18.058-16.389-24.386-12.838 7.48-27.361 11.725-41.374 16.403-9.588 3.201-39.196 14.219-29.429 28.554 5.93 8.7 16.242 12.679 26.1 15.205 10.564 2.708 21.359 4.019 32.073 5.945 18.771 3.377 37.736 5.44 56.762 6.291-0.405-2.417 0.732-5.166 3.023-6.259 0.139-0.165 0.31-0.376 0.528-0.663 0.648-0.85 1.276-1.712 1.873-2.599 1.668-2.48 3.211-5.052 4.759-7.608 1.847-3.05 3.622-6.174 5.549-9.188-2.5-3.84-5.27-7.46-8.8-10.51z"/>
			<path class="st9" d="m370.26 172.05c-0.519-0.421-1.302-1.037-1.095-0.903-1.997-1.291-4.072-2.455-6.162-3.593-4.679-2.549-9.686-4.952-13.829-8.349-3.615-2.966-6.521-7.559-4.002-12.225 0.934-1.728 2.352-3.018 4.023-4.008-6.066-5.108-11.271-11.393-15.518-17.875-3.998-6.102-7.652-12.816-9.951-19.89-5.492 5.794-12.304 10.465-18.899 14.812-9.202 6.065-18.946 11.851-29.325 15.673-6.82 2.513-17.86 6.531-24.72 1.973-5.179-3.442-7.132-8.572-7.337-14.193-12.299 9.09-28.696 14.269-42.285 15.911-4.478 0.541-8.217-5.843-4.556-9.116 1.095-0.978 1.979-2.095 2.68-3.303-8.679 6.055-17.591 11.854-26.56 16.596-4.683 2.475-9.347 5.031-13.8 7.904-2.104 1.358-4.229 2.734-6.158 4.337-0.594 0.493-2.106 2.733-1.631 1.146-0.738 2.467-2.659 3.751-4.695 4.061 0.176 1.711 0.351 3.419 0.511 5.118 1.438 15.281 3.687 30.502 5.243 45.776 2.596 25.472 2.692 51.508 9.124 76.423 5.61 21.733 15.344 42.701 31.148 58.938 1.565 1.607 3.174 3.128 4.807 4.6 0.551 0.323 1.065 0.774 1.523 1.368 14.592 12.614 31.822 19.922 51.627 21.38 23.367 1.722 48.021-2.427 68.875-13.396 3.56-1.872 6.961-3.947 10.16-6.258 0.322-0.763 0.687-1.509 1.119-2.228 1.217-2.023 3.141-2.82 5.021-2.76 3.669-3.368 6.948-7.176 9.718-11.52 6.4-10.037 10.154-21.317 12.52-32.933 2.438-11.968 3.596-24.129 5.011-36.247 1.575-13.479 3.868-26.855 5.855-40.278 2.591-17.51 4.964-35.165 5.632-52.838-2.1-0.21-3.9-1.54-4.07-4.1zm-132.44 62.76c0.605-10.358 2.201-20.623 2.686-30.988 0.454-9.728 0.98-19.391 1.963-29.07 0.006-0.123 0.007-0.242 0.021-0.369l0.118-1.111c0.748-7.019 11.75-6.729 10.999 0.32-0.957 8.986-1.555 17.945-1.943 26.979-0.417 9.758-1.691 19.383-2.466 29.105-0.704 8.81-1.244 17.966 0.265 26.723 0.816 4.737 2.148 10.439 5.36 14.377 1.525-0.244 3.15 0.25 4.465 1.88l2.665 3.301c3.089 3.825-0.221 11.35-5.663 8.981-18.81-8.19-19.49-32.5-18.46-50.13zm-23.87-54.85c-1.603 3.397-4.522 6.167-7.953 7.78-5.273 2.481-11.512 2.751-16.006-1.444-3.939-3.678-4.341-9.301-3.605-14.567-2.333 1.036-4.477 2.159-6.238 3.188-6.14 3.58-11.266-6.154-5.15-9.721 15.929-9.29 42.747-14.403 48.041 9.384 1.27 5.68-5.67 8.38-9.08 5.38zm62.46 149.09c-9.767 10.513-25.616 2.614-36.819-0.636-6.817-1.979-3.575-12.49 3.231-10.516 6.732 1.954 20.207 9.44 26.14 3.056 4.83-5.19 12.25 2.93 7.45 8.1zm49.22-147.66c-0.531-0.854-1.121-1.718-1.763-2.554 0.001 0.688-0.036 1.372-0.127 2.046-0.925 6.856-7.442 13.211-14.708 12.101-6.736-1.027-11.263-7.946-10.698-14.617 0.069-0.826 0.209-1.62 0.384-2.396-0.57 0.438-1.117 0.91-1.631 1.429-4.998 5.038-12.439-3.066-7.449-8.096 7.652-7.714 19.223-9.554 29.178-6.43 3.937 0.711 7.428 2.891 10.398 5.713 2.463 2.113 4.565 4.672 6.137 7.654 3.35 6.35-6 11.12-9.72 5.16z"/>
			<path d="m408.32 438.48c-8.844-6.059-18.947-9.575-28.692-13.854-14.514-6.37-24.918-15.81-34.138-28.542v-2.332c0-1.885-0.78-3.201-1.918-3.994-0.057-0.177-0.117-0.359-0.168-0.533-1.1-3.773-2.114-7.568-3-11.397-1.127-4.884-2.643-11.374-1.374-16.682 10.776-8.962 19.009-20.5 24.314-34.528 8.578-22.676 8.85-47.678 12.374-71.406 0.857-5.775 1.755-11.55 2.646-17.328 6.516-1.633 13.446-6.407 17.505-11.354 5.802-7.069 4.424-18.337 4.347-26.762-0.078-8.574-2.753-20.682-10.539-24.933 10.663-10.313 6.687-27.985 6.545-41.36-0.237-22.35-3.367-45.826-12.628-66.322-8.949-19.807-24.747-37.008-44.94-45.569-11.333-4.805-30.821-9.32-41.354-0.208-5.073-1.238-9.902-3.41-14.914-4.879-5.82-1.703-12.226-1.834-18.248-2.131-13.122-0.646-26.236-0.04-39.117 2.661-21.371 4.482-41.146 13.257-58.203 27.011-16.625 13.407-29.874 31.016-37.359 51.064-9.634 25.803-7.651 53.34-5.208 80.221 0.033 0.353 0.097 0.68 0.177 0.993-4.85 7.869-5.817 19.393-5.095 28.037 1.294 15.509 7.652 37.711 24.355 42.944 0.157 0.049 0.31 0.085 0.463 0.121 1.28 15.096 3.023 30.126 6.821 44.838 5.971 23.136 16.878 45.047 33.397 62.456 1.992 2.1 4.045 4.082 6.149 5.964 3.388 5.812 3.486 13.233 3.592 19.769 0.082 4.965-0.202 9.922-0.402 14.881-1.265 1.286-1.905 3.167-1.164 5.392 1.739 5.218-2.695 9.342-6.969 12.481-6.735 4.949-14.673 8.176-22.43 11.133-14.087 5.369-28.699 8.809-41.888 16.35-8.096 4.63-15.836 11.283-18.17 20.652-2.467 9.899 4.953 19.554 12.445 25.025 8.92 6.514 19.992 9.608 30.643 11.914 11.548 2.5 23.384 4.148 35.048 6.014 31.804 5.086 64.225 6.218 96.359 4.561 14.644-0.755 29.147-2.493 43.713-4.085 9.894-1.081 19.842-1.6 29.744-2.613 20.018-2.051 42.272-5.783 57.681-19.838 6.891-6.285 12.807-14.792 12.655-24.443-0.14-8.3-6.67-15.01-13.06-19.39zm-69.27-32.63c1.623 2.129 3.301 4.209 5.044 6.225-0.9 0.467-1.702 1.236-2.284 2.377-4.34 8.497-10.466 16.188-16.661 23.389-6.405 7.444-14.291 16.323-23.975 19.344-2.99 0.934-5.602-0.201-7.867-2.396 0.125-2.561-1.595-4.286-3.723-4.907-3.078-5.163-5.253-11.602-6.657-14.8-1.214-2.771-3.085-8.25-5.707-12.723 2.797-0.109 5.584-0.306 8.394-0.756 6.35-1.01 39.73-6.28 53.44-15.75zm-93.77 6.06c-15.43-0.495-31.209-4.338-39.983-18.08-0.165-0.258-0.343-0.485-0.526-0.699 0.356-7.139 0.85-14.618 0.118-21.763 12.26 7.456 25.975 12.014 40.964 13.834 23.584 2.866 48.155-1.283 70.03-10.271 4.229-1.737 8.24-3.724 12.024-5.953 0.177 1.956 0.449 3.884 0.748 5.725 0.727 4.489 1.83 8.929 3.002 13.318 0.449 1.687 1.319 3.828 1.984 5.865-0.406 0.857-0.576 1.82-0.413 2.824-0.969 0.669-2.03 1.229-3.038 1.704-4.826 2.281-10.003 3.858-15.114 5.354-10.527 3.08-21.334 5.53-32.184 7.163-4.323 0.651-8.657 0.516-13.021 0.643-8.2 0.26-16.39 0.62-24.59 0.36zm10.54 11.03c-3.491 4.573-6.691 9.401-10.195 13.943-5.007 6.491-11.044 14.757-19.001 17.764-7.617 2.878-14.379-9.814-17.342-14.9-4.114-7.065-7.816-14.793-13.711-20.529 3.396-3.114 6.151-6.805 7.472-10.948 10.311 9.707 24.51 13.515 38.998 14.398 4.59 0.29 9.18 0.34 13.78 0.28zm132.41-205.49c-0.982 2.868-4.513 6.146-8.007 8.119 1.996-13.499 3.755-27.027 4.673-40.624 3.828 2.383 4.167 11.285 4.324 14.906 0.26 5.65 0.89 12.15-0.98 17.59zm-69.92-189.89c6.952 0.629 13.591 2.842 19.839 5.881 16.746 8.145 29.171 23.642 36.436 40.467 7.505 17.383 9.507 36.527 10.447 55.25 0.348 6.939 0.794 13.904 0.986 20.85 0.135 4.891 0.329 12.299-3.279 16.313-0.018-0.016-0.033-0.031-0.051-0.047l-2.864-0.306c-3.384-4.947-12.014-8.296-16.067-10.516-1.983-1.085-3.944-2.207-5.85-3.42-0.147-0.094-0.442-0.309-0.75-0.538 1.621-0.49 3.552-0.837 5.001-1.105 5.157-0.954 7.179-7.724 2.024-10.412-8.944-4.666-15.811-12.802-21.388-21.023-5.661-8.346-10.373-18.23-10.574-28.474-0.011-0.577-0.101-1.096-0.244-1.568 0.467-3.229 0.509-6.573 0.339-9.965-1.025-20.373-12.647-36.363-27.075-49.602 3.65-2.332 8.88-2.159 13.05-1.783zm-182.13 197.95c-3.19-6.588-4.993-13.812-5.792-21.062-0.919-8.324-0.776-21.891 7.06-25.282 1.227 10.479 2.541 20.951 3.639 31.446 0.849 8.104 1.457 16.249 2.074 24.395-2.79-2.25-5.41-6.28-6.98-9.51zm5.94-74.31l-1.194-0.127c-1.857 2.602-3.797 5.146-5.682 7.729 0.172 1.745 0.348 3.49 0.525 5.232 0.125 1.245 0.273 2.487 0.405 3.731-0.524 0.104-1.031 0.234-1.527 0.379-1.995-22.861-3.199-46.177 4.658-68.143 6.567-18.36 18.681-34.478 33.656-46.84 15.191-12.54 33.348-21.01 52.586-25.066 12.419-2.618 24.986-3.344 37.654-2.841 5.703 0.226 11.541 0.607 17.077 2.046 4.42 1.147 8.602 3.05 12.974 4.35 0.119 1.186 0.684 2.371 1.846 3.386 12.518 10.926 23.116 23.189 25.768 40.123 1.003 6.402 1.308 13.271-2.127 18.979-3.64 6.049-10.844 10.398-16.492 14.341-7.057 4.927-14.447 9.492-22.18 13.284-6.766 3.316-14.418 6.618-22.063 6.778-8.138 0.171-0.747-19.646 0.653-23.189 2.573-6.518-6.98-11.444-9.855-4.895-3.893 8.871-12.27 14.545-20.523 19.013-5.243 2.837-10.968 5.121-16.838 6.735 1.027-3.866 1.269-7.967 0.774-11.725-0.517-3.927-5.042-6.691-8.562-4.136-12.511 9.085-25.193 17.751-38.837 25.031-5.099 2.722-10.121 5.613-14.902 8.864-2.88 1.96-5.84 4.12-7.81 6.97zm50.34 196.07c-15.804-16.236-25.538-37.204-31.148-58.938-6.432-24.915-6.528-50.951-9.124-76.423-1.556-15.274-3.804-30.495-5.243-45.776-0.16-1.699-0.335-3.407-0.511-5.118 2.036-0.31 3.957-1.594 4.695-4.061-0.475 1.587 1.037-0.653 1.631-1.146 1.929-1.603 4.055-2.979 6.158-4.337 4.453-2.873 9.117-5.43 13.8-7.904 8.969-4.742 17.881-10.541 26.56-16.596-0.701 1.208-1.585 2.325-2.68 3.303-3.661 3.273 0.078 9.657 4.556 9.116 13.589-1.643 29.986-6.821 42.285-15.911 0.206 5.621 2.159 10.751 7.337 14.193 6.859 4.559 17.899 0.54 24.72-1.973 10.379-3.822 20.123-9.607 29.325-15.673 6.595-4.347 13.407-9.018 18.899-14.812 2.299 7.073 5.953 13.788 9.951 19.89 4.247 6.482 9.452 12.767 15.518 17.875-1.671 0.99-3.089 2.28-4.023 4.008-2.52 4.666 0.387 9.259 4.002 12.225 4.143 3.396 9.149 5.8 13.829 8.349 2.09 1.138 4.165 2.302 6.162 3.593-0.207-0.134 0.576 0.482 1.095 0.903 0.17 2.557 1.973 3.886 4.073 4.104-0.668 17.673-3.041 35.328-5.632 52.838-1.987 13.423-4.28 26.799-5.855 40.278-1.415 12.118-2.573 24.279-5.011 36.247-2.366 11.615-6.12 22.896-12.52 32.933-2.77 4.344-6.049 8.151-9.718 11.52-1.88-0.061-3.804 0.736-5.021 2.76-0.432 0.719-0.797 1.465-1.119 2.228-3.199 2.311-6.601 4.386-10.16 6.258-20.854 10.97-45.508 15.118-68.875 13.396-19.806-1.458-37.035-8.766-51.627-21.38-0.458-0.594-0.972-1.045-1.523-1.368-1.65-1.48-3.26-3.01-4.83-4.61zm43.43 141.36c-0.596 0.887-1.224 1.749-1.873 2.599-0.218 0.287-0.39 0.498-0.528 0.663-2.291 1.093-3.428 3.842-3.023 6.259-19.026-0.851-37.991-2.914-56.762-6.291-10.714-1.927-21.509-3.237-32.073-5.945-9.858-2.526-20.17-6.505-26.1-15.205-9.768-14.335 19.841-25.353 29.429-28.554 14.013-4.679 28.536-8.923 41.374-16.403 7.484 6.328 11.25 16.245 16.389 24.386 5.1 8.078 13.968 17.681 24.557 15.646 3.676-0.706 7.031-2.338 10.114-4.487 3.526 3.053 6.295 6.674 8.805 10.536-1.928 3.015-3.702 6.139-5.549 9.188-1.55 2.53-3.09 5.1-4.76 7.58zm35.04 9.53c-9.505 0.418-19.016 0.537-28.519 0.366 1.902-2.289 3.419-5.112 4.68-7.084 3.195-4.996 6.948-11.999 9.779-15.907 1.524-2.106 1.812-4.426 0.427-6.706-3.294-5.425-6.963-10.61-11.646-14.903 1.867-2.001 3.617-4.063 5.261-6.043 5.581-6.721 10.198-14.229 15.781-20.938 0.337 0.568 0.666 1.145 0.992 1.717 1.294 2.273 2.456 4.619 3.563 6.988 2.378 5.091 4.294 10.376 6.825 15.402 0.912 1.81 1.93 3.578 3.05 5.258-1.833 2.562-5.056 4.879-6.598 7.255-2.565 3.95-3.251 8.964-0.702 13.114 2.677 4.355 6.928 7.505 10.883 10.625 1.923 1.519 3.587 2.771 4.804 4.916 0.862 1.518 1.619 3.092 2.487 4.598-7.01 0.54-14.03 1.01-21.05 1.32zm132.01-25.5c-13.778 14.73-37.67 17.089-56.536 18.892-13.992 1.338-27.999 2.88-42.02 4.184-0.192-0.635-0.542-1.278-1.091-1.913-2.835-3.278-3.798-8.079-6.929-11.057-3.348-3.186-7.199-5.795-10.632-8.89-3.583-3.229-2.274-4.426 0.78-7.636 0.634-0.667 1.248-1.326 1.84-1.994 4.716 3.571 10.462 5.189 17.253 3.071 10.76-3.356 19.752-13.135 26.994-21.287 7.066-7.957 13.951-16.818 18.861-26.315 3.034 2.801 6.276 5.386 9.81 7.662 8.095 5.215 17.05 8.535 25.852 12.312 7.257 3.113 15.778 6.66 20.836 13.011 5.51 6.92 0.03 14.59-5.01 19.98z"/>
			<path d="m261.95 275.96l-2.665-3.301c-1.314-1.63-2.939-2.124-4.465-1.88-3.212-3.938-4.544-9.64-5.36-14.377-1.509-8.757-0.968-17.913-0.265-26.723 0.774-9.723 2.049-19.348 2.466-29.105 0.388-9.033 0.987-17.992 1.943-26.979 0.751-7.049-10.251-7.339-10.999-0.32l-0.118 1.111c-0.014 0.127-0.016 0.246-0.021 0.369-0.982 9.68-1.509 19.343-1.963 29.07-0.484 10.365-2.081 20.63-2.686 30.988-1.028 17.625-0.348 41.938 18.469 50.127 5.44 2.36 8.75-5.17 5.66-8.99z"/>
			<path d="m268.96 320.95c-5.933 6.385-19.407-1.102-26.14-3.056-6.807-1.975-10.049 8.537-3.231 10.516 11.203 3.25 27.053 11.148 36.819 0.636 4.8-5.17-2.62-13.29-7.45-8.1z"/>
			<path d="m335.36 176.24c-1.572-2.982-3.674-5.541-6.137-7.654-2.971-2.822-6.461-5.002-10.398-5.713-9.955-3.124-21.526-1.284-29.178 6.43-4.99 5.029 2.451 13.134 7.449 8.096 0.515-0.519 1.061-0.991 1.631-1.429-0.174 0.776-0.315 1.57-0.384 2.396-0.564 6.671 3.962 13.59 10.698 14.617 7.266 1.11 13.783-5.244 14.708-12.101 0.091-0.674 0.128-1.357 0.127-2.046 0.642 0.836 1.231 1.699 1.763 2.554 3.71 5.95 13.06 1.18 9.72-5.16z"/>
			<path d="m223.04 174.58c-5.294-23.787-32.112-18.674-48.041-9.384-6.115 3.566-0.989 13.301 5.15 9.721 1.762-1.028 3.905-2.151 6.238-3.188-0.736 5.267-0.333 10.89 3.605 14.567 4.494 4.195 10.732 3.926 16.006 1.444 3.431-1.613 6.351-4.383 7.953-7.78 3.4 3 10.34 0.3 9.08-5.38z"/>
</svg>
