<?xml version="1.0" encoding="UTF-8" standalone="no"?>
<!-- Generator: Adobe Illustrator 16.0.3, SVG Export Plug-In . SVG Version: 6.00 Build 0)  -->
<!DOCTYPE svg  PUBLIC '-//W3C//DTD SVG 1.1//EN'  'http://www.w3.org/Graphics/SVG/1.1/DTD/svg11.dtd'>
<svg id="Layer_1" style="enable-background:new 0 0 512 512" xmlns="http://www.w3.org/2000/svg" xml:space="preserve" height="512px" viewBox="0 0 512 512" width="512px" version="1.1" y="0px" x="0px" xmlns:xlink="http://www.w3.org/1999/xlink">
<style type="text/css">
<![CDATA[
	.st0{fill:#127274;}
	.st1{fill:#14B6B9;}
	.st2{fill:#1E4384;}
	.st3{fill:#EF4754;}
	.st4{fill:#EF4823;}
	.st5{fill:#BCBCBC;}
	.st6{fill:#231F20;}
	.st7{fill:#FFFFFF;}
	.st8{fill:#C56528;}
	.st9{fill:#FCBF95;}
	.st10{fill:#FEBF10;}
	.st11{fill:none;}
	.st12{fill:#010101;}
	.st13{fill:#3AB37C;}
	.st14{fill:#D6E5E5;}
	.st15{fill:#74CCCF;}
]]>
</style>
			<path class="st7" d="m142.41 323.58c0.967 2.337 2.184 2.918 3.119 2.907-1.3-0.4-2.47-1.32-3.12-2.91z"/>
			<path class="st7" d="m170.29 77.17c-4.428-4.002-12.865-2.664-18.203-1.635-7.117 1.373-14.127 4.111-20.473 7.592-11.029 6.047-21.195 13.709-30.221 22.463-8.426 8.17-17.105 17.001-20.67 28.493-3.803 12.256-3.984 25.025-2.867 37.716 0.57 6.458 1.387 12.887 2.213 19.315 0.672 5.216 0.703 10.997 2.598 15.95 3.568 9.321 13.893 1.484 19.168-2.386 12.721-9.335 25.543-18.677 37.311-29.214 9.232-8.268 20.381-17.611 26.223-28.717 6.912-13.139-1.338-26.969 1.854-40.778 0.453-1.962 1.729-3.125 3.221-3.604 0.375-3.902 1.018-7.773 1.451-11.68 0.41-3.663 1.57-10.648-1.6-13.52z"/>
			<path class="st0" d="m318.77 283.94c-6.67-6.036-15.105-9.97-23.467-13.09-8.262-3.083-17.184-5.735-26-6.477-14.686-1.235-28.725 2.544-42.107 8.306-6.703 2.886-16.314 7.058-21.264 13.457-0.088 1.635-0.861 3.24-2.377 4.121-0.582 1.421-1.541 2.235-2.629 2.563 0.756 1.831 1.77 3.519 2.965 5.113 2.766 3.688 6.391 8.12 11.221 8.918 6.133 1.014 11.76-1.964 17.414-3.878 5.988-2.027 12.064-3.149 18.273-1.416 5.689 1.588 9.525 5.991 10.355 11.833 0.721 5.054-1.186 10.995 0.406 15.853 1.385 4.229 6.971 4.746 11.285 4.516 3.012-0.16 2.742-1.657 1.85-5.067-0.676-2.58-0.867-5.126-0.779-7.788 0.23-6.994 3.49-13.688 10.549-15.946 6.426-2.056 13.186-1.244 19.799-0.983 5.188 0.203 13.34 1.036 17.172-3.426 4.81-5.57 2.27-12.13-2.66-16.59z"/>
			<path class="st7" d="m411.71 132.06c-1.426-11.823-0.771-23.183-5.162-34.543-4.002-10.353-10.537-19.611-19.703-26.024-6.979-4.883-14.613-7.633-22.572-9.745-7.006-1.859-14.559-3.702-21.863-3.171-6.057 0.441-9.215 2.307-7.559 8.698 0.607 2.345-0.361 4.279-1.887 5.444 0.588 2.096 1.01 4.243 1.68 6.349 2.129 6.695 4.029 13.264 5.357 20.177 1.469 7.653 2.641 15.549 5.523 22.836 2.621 6.619 6.217 12.841 10.426 18.578 8.281 11.287 18.707 21.646 30.857 28.748 4.6 2.689 9.48 5.453 15 5.323 3.779-0.089 9.018-0.837 11.074-4.581 6.16-11.25 0.24-26.32-1.18-38.09z"/>
			<path class="st7" d="m431.42 297.12c-5.992-12.551-14.344-23.338-17.986-37.029-3.432-12.902-3.404-26.008-5.51-39.084-1.885-11.71-2.945-24.795-8.943-35.284-0.256-0.447-0.432-0.896-0.547-1.338-8.82-1.178-16.639-5.873-23.953-11.203-11.104-8.091-21.088-18.169-28.713-29.632-7.92-11.908-12.088-24.274-14.738-38.254-0.24-1.268-0.506-2.516-0.766-3.766-0.121-0.039-0.24-0.075-0.363-0.124-11.359-4.521-22.4-7.489-34.568-8.831-15.619-1.723-31.352-2.461-47.061-1.826-14.201 0.574-28.273 3.185-41.65 8.041-5.76 2.092-11.014 4.605-16.35 7.553-4.098 2.263-9.303 4.252-12.391 7.885-0.447 0.526-0.934 0.914-1.438 1.191 0.273 5.715 1.832 11.336 2.027 17.176 0.234 7.047-1.137 13.827-4.879 19.881-7.32 11.84-17.994 21.692-28.361 30.85-12.373 10.931-25.609 21.516-39.309 30.746-1.752 1.182-3.707 2.431-5.781 3.568 0.369 17.662 5.299 34.653 7.703 52.068 1.068 7.736 2.436 16.215 0.402 23.904-1.973 7.459-5.119 14.479-6.09 22.203-3.209 25.513 3.363 49.922 20.113 69.482 15.154 17.697 36.23 31.611 58.453 38.661 12.318 3.907 25.174 5.851 37.658 9.151 6.541 1.73 13.057 3.674 19.359 6.152 6.131 2.412 11.871 5.59 17.932 8.136 11.502 4.831 25.447 8.778 37.656 4.079 11.938-4.596 19.135-16.039 30.23-21.988 6.641-3.562 13.17-4.99 20.557-6.223 7.539-1.258 14.918-2.822 22.305-4.778 10.611-2.811 20.762-7.054 29.189-14.242 8.678-7.403 15.199-17.123 20.613-27.068 6.939-12.747 12.461-26.26 15.414-40.508 2.63-12.67 5.6-27.39-0.21-39.56zm-114.72-100.19c11.066 0.005 23.523 4.271 25.418 16.61 0.982 6.39-9.002 7.094-9.973 0.77-1.555-10.126-28.887-10.051-28.027-0.77 0.598 6.437-9.379 7.177-9.973 0.77-1.13-12.1 12.54-17.39 22.55-17.38zm-135.54 14.99c9.545-4.101 24.59-4.938 32.266 3.245 4.367 4.654-2.18 12.226-6.602 7.512-4.229-4.507-13.916-4.705-19.447-2.521-2.4 0.947-4.82 1.939-7.084 3.183-1.023 0.561-2.055 1.13-3.02 1.791 0.43 3.668-4.453 7.514-8.449 4.547-9.79-7.25 7.23-15.56 12.33-17.75zm224.72 148.3c-7.467 10.477-19.119 12.635-30.775 15.588-14.92 3.781-29.75 7.988-44.973 10.436-7.738 1.244-16.029 2.284-24.219 2.172 5.455 8.696 3.814 20.711 0.086 29.77-4.277 10.391-12.23 20.427-24.113 21.777-22.953 2.609-45.115-21.244-42.693-43.711-19.473 5.621-41.154 3.043-59.914-3.596-10.693-3.783-24.664-6.307-33.264-14.173-7.557-6.913-12.012-17.758-14.939-27.41-2.938-9.687-3.16-20.46 4.088-28.236 4.02-4.312 13.039-11.375 16.682-2.57 1.764 4.269-2.553 7.148-6.061 6.288-0.379 0.275-0.758 0.553-1.115 0.855-0.963 0.843-1.869 1.825-2.68 2.814-2.053 2.508-2.969 4.886-2.916 8.311 0.129 8.236 3.811 17.527 7.783 24.756 4.641 8.446 11.752 11.635 20.557 14.793 8.627 3.095 17.506 6.775 26.447 8.795 9.904 2.236 20.076 3.104 30.189 1.895 8.543-1.021 18.604-2.67 25.643-8.014 10.211-7.752 12.051-20.969 12.377-33.164-0.502-1.164-0.979-2.424-0.09-0.88-0.977-1.698-0.881-3.401-0.189-4.791-5.785-2.104-9.996-6.248-10.461-13.707-0.27-4.311 1.15-9.59-0.082-13.754-1.287-4.353-6.93-4.416-10.732-3.454-9.984 2.526-19.225 8.341-29.801 4.953-11.092-3.552-30.02-28.719-14.008-34.168 4.08-6.105 11.318-10.547 17.445-13.828 9.225-4.94 19.217-9.229 29.461-11.458 19.699-4.284 38.615-1.513 57.166 5.771 12.621 4.954 30.855 13.389 33.121 28.615 2.193 14.742-10.756 23.045-23.811 23.141-6.689 0.049-13.633-1.225-20.279-0.151-6.326 1.022-6.732 6.99-5.369 12.646 1.248 5.18 1.543 11.148-3.324 14.67-2.77 2.006-5.809 2.574-9.023 2.527 0 0.048-0.002 0.096-0.002 0.144 0.641 0.746 1.064 1.652 1.02 2.665-0.082 1.879-0.137 3.766-0.027 5.645 2.076 36.096 49.342 26.269 72.76 20.786 7.252-1.698 14.449-3.611 21.656-5.489 9.678-2.522 22.334-3.192 29.111-11.548 7.125-8.782 8.77-24.617 5.578-35.222-2.195-7.289-10.166-20.398-19.41-17.067-6.082 2.191-9.367-7.257-3.307-9.439 17.832-6.425 32.082 15.548 33.672 30.727 1.19 11.45-0.41 25.66-7.28 35.29z"/>
			<path class="st3" d="m295.98 391.72c-1.223-1.448-1.361-2.946-0.852-4.22-4.023-0.673-7.947-1.742-11.688-3.348-5.207-2.236-9.305-5.464-12.426-9.366 0.59 4.221 1.357 8.433 1.982 12.557 0.734 4.841 1.486 9.681 2.352 14.499 0.213 1.193 0.629 3.469 0.762 4.057 0.172 0.768 0.34 1.238 0.445 1.487 0.176 0.27 0.139 0.319 0 0-0.238-0.368-0.877-1.143-2.207-1.941 5.482 3.292 1.094 12.286-4.449 8.959-3.115-1.87-3.355-5.565-3.977-8.819-0.906-4.761-1.68-9.549-2.42-14.338-0.434-2.808-0.93-5.654-1.408-8.516-2.66 3.385-6.014 6.29-10.246 8.493-1.496 0.779-3.018 1.492-4.557 2.15 1.199 1.008 1.971 2.546 1.74 4.504-1.842 15.718 15.891 34.814 32.084 32.116 14.06-2.33 24.3-27.13 14.9-38.27z"/>
			<path class="st12" d="m276.56 407.39c0.14 0.31 0.17 0.27 0 0z"/>
			<path class="st12" d="m413.15 324.93c-1.59-15.179-15.84-37.151-33.672-30.727-6.061 2.183-2.775 11.631 3.307 9.439 9.244-3.331 17.215 9.778 19.41 17.067 3.191 10.604 1.547 26.439-5.578 35.222-6.777 8.355-19.434 9.025-29.111 11.548-7.207 1.878-14.404 3.791-21.656 5.489-23.418 5.482-70.684 15.31-72.76-20.786-0.109-1.879-0.055-3.766 0.027-5.645 0.045-1.013-0.379-1.919-1.02-2.665 0-0.048 0.002-0.096 0.002-0.144 3.215 0.047 6.254-0.521 9.023-2.527 4.867-3.521 4.572-9.49 3.324-14.67-1.363-5.655-0.957-11.623 5.369-12.646 6.646-1.073 13.59 0.2 20.279 0.151 13.055-0.096 26.004-8.398 23.811-23.141-2.266-15.227-20.5-23.661-33.121-28.615-18.551-7.283-37.467-10.055-57.166-5.771-10.244 2.229-20.236 6.518-29.461 11.458-6.127 3.281-13.365 7.723-17.445 13.828-16.012 5.449 2.916 30.616 14.008 34.168 10.576 3.388 19.816-2.427 29.801-4.953 3.803-0.962 9.445-0.898 10.732 3.454 1.232 4.164-0.188 9.443 0.082 13.754 0.465 7.459 4.676 11.603 10.461 13.707-0.691 1.39-0.787 3.093 0.189 4.791-0.889-1.544-0.412-0.284 0.09 0.88-0.326 12.195-2.166 25.412-12.377 33.164-7.039 5.344-17.1 6.992-25.643 8.014-10.113 1.209-20.285 0.342-30.189-1.895-8.941-2.02-17.82-5.7-26.447-8.795-8.805-3.158-15.916-6.347-20.557-14.793-3.973-7.229-7.654-16.52-7.783-24.756-0.053-3.425 0.863-5.803 2.916-8.311 0.811-0.989 1.717-1.972 2.68-2.814 0.357-0.303 0.736-0.58 1.115-0.855 3.508 0.86 7.824-2.02 6.061-6.288-3.643-8.805-12.662-1.741-16.682 2.57-7.248 7.776-7.025 18.55-4.088 28.236 2.928 9.652 7.383 20.497 14.939 27.41 8.6 7.866 22.57 10.39 33.264 14.173 18.76 6.639 40.441 9.217 59.914 3.596-2.422 22.467 19.74 46.32 42.693 43.711 11.883-1.351 19.836-11.387 24.113-21.777 3.729-9.059 5.369-21.073-0.086-29.77 8.189 0.112 16.48-0.928 24.219-2.172 15.223-2.447 30.053-6.654 44.973-10.436 11.656-2.953 23.309-5.111 30.775-15.588 6.89-9.63 8.49-23.84 7.29-35.29zm-267.62 1.55c-0.936 0.011-2.152-0.57-3.119-2.907 0.65 1.6 1.82 2.52 3.12 2.91zm116.03 2.76c-1.592-4.857 0.314-10.799-0.406-15.853-0.83-5.842-4.666-10.245-10.355-11.833-6.209-1.733-12.285-0.611-18.273 1.416-5.654 1.914-11.281 4.892-17.414 3.878-4.83-0.798-8.455-5.229-11.221-8.918-1.195-1.595-2.209-3.282-2.965-5.113 1.088-0.328 2.047-1.143 2.629-2.563 1.516-0.881 2.289-2.486 2.377-4.121 4.949-6.399 14.561-10.571 21.264-13.457 13.383-5.762 27.422-9.541 42.107-8.306 8.816 0.741 17.738 3.394 26 6.477 8.361 3.12 16.797 7.054 23.467 13.09 4.93 4.463 7.463 11.022 2.666 16.608-3.832 4.462-11.984 3.629-17.172 3.426-6.613-0.261-13.373-1.072-19.799 0.983-7.059 2.258-10.318 8.952-10.549 15.946-0.088 2.662 0.104 5.208 0.779 7.788 0.893 3.41 1.162 4.907-1.85 5.067-4.33 0.21-9.92-0.31-11.31-4.54zm19.56 100.75c-16.193 2.698-33.926-16.398-32.084-32.116 0.23-1.958-0.541-3.496-1.74-4.504 1.539-0.658 3.061-1.371 4.557-2.15 4.232-2.203 7.586-5.108 10.246-8.493 0.479 2.861 0.975 5.708 1.408 8.516 0.74 4.789 1.514 9.577 2.42 14.338 0.621 3.254 0.861 6.949 3.977 8.819 5.543 3.327 9.932-5.667 4.449-8.959 1.33 0.799 1.969 1.573 2.207 1.941-0.105-0.249-0.273-0.72-0.445-1.487-0.133-0.588-0.549-2.863-0.762-4.057-0.865-4.818-1.617-9.658-2.352-14.499-0.625-4.124-1.393-8.336-1.982-12.557 3.121 3.902 7.219 7.13 12.426 9.366 3.74 1.605 7.664 2.675 11.688 3.348-0.51 1.273-0.371 2.771 0.852 4.22 9.36 11.14-0.88 35.94-14.9 38.27z"/>
			<path class="st12" d="m342.11 213.54c-1.895-12.34-14.352-16.605-25.418-16.61-10.006-0.005-23.676 5.285-22.555 17.38 0.594 6.407 10.57 5.667 9.973-0.77-0.859-9.281 26.473-9.356 28.027 0.77 0.97 6.32 10.96 5.62 9.97-0.77z"/>
			<path class="st12" d="m213.43 215.17c-7.676-8.184-22.721-7.346-32.266-3.245-5.1 2.19-22.119 10.499-12.336 17.757 3.996 2.967 8.879-0.879 8.449-4.547 0.965-0.661 1.996-1.23 3.02-1.791 2.264-1.243 4.684-2.235 7.084-3.183 5.531-2.185 15.219-1.986 19.447 2.521 4.43 4.71 10.98-2.86 6.61-7.51z"/>
			<path class="st12" d="m444.22 305.18c-1.467-10.96-8.207-19.997-13.52-29.354-5.812-10.239-8.971-21.431-10.504-33.038-2.545-19.271-2.342-40.991-10.969-58.925 8.391-2.221 13.604-8.996 15.498-17.833 2.781-12.971-2.533-26.557-3.516-39.451-0.893-11.686-1.418-22.509-5.711-33.615-3.963-10.253-10.492-19.406-18.857-26.518-12.309-10.467-29.871-15.723-45.754-17.516-6.82-0.77-13.986-0.742-20.109 2.703-5.498 3.094-6.752 9.03-6.145 14.73-1.748 0.787-2.912 3.086-2.701 4.882 0.092 0.787 0.295 1.557 0.471 2.328 0.225 0.992 0.65 1.742 1.201 2.28 0.668 2.414 1.422 5.979 2.057 7.979 0.643 2.018 1.229 4.027 1.787 6.038-9.828-3.456-19.633-5.89-30.211-7.118-17.113-1.988-34.41-2.603-51.621-1.906-14.941 0.604-29.879 3.987-43.906 9.08-6.01 2.182-11.512 4.975-17.035 8.119-1.334 0.762-2.717 1.488-4.1 2.228 0.768-6.415 2.137-12.774 1.463-19.294-0.992-9.598-7.932-15.29-17.287-16.078-24.16-2.035-47.191 13.09-64.547 28.287-8.564 7.498-17.031 15.743-23.199 25.369-6.783 10.586-9.033 23.35-9.648 35.689-0.625 12.578 1.127 25.19 2.732 37.634 1.15 8.915 1.002 21.054 8.982 27.054 3.449 2.594 7.316 3.091 11.191 2.434 0.672 14.105 3.938 27.895 6.424 41.771 1.303 7.271 2.072 14.535 2.564 21.9 0.465 6.95-3.328 13.989-5.221 20.512-3.807 13.108-3.186 28.16-1.117 41.518 1.738 11.22 6.166 21.766 12.035 31.425 12.209 20.09 31.631 35.625 52.279 46.364 22.594 11.752 47.777 13.589 71.576 21.714 12.668 4.325 24.057 11.36 37.059 14.845 11.846 3.175 25.115 3.01 36.096-2.896 11.078-5.96 18.531-16.981 30.109-22.166 6.82-3.054 14.902-3.395 22.189-4.758 7.09-1.326 14.166-3.143 21.057-5.279 21.896-6.79 36.877-22.285 48.162-41.674 7.166-12.312 12.613-25.55 16.35-39.288 3.42-12.53 6.14-27.13 4.39-40.15zm-109.37-237.91c-1.656-6.392 1.502-8.257 7.559-8.698 7.305-0.531 14.857 1.312 21.863 3.171 7.959 2.112 15.594 4.862 22.572 9.745 9.166 6.413 15.701 15.672 19.703 26.024 4.391 11.36 3.736 22.72 5.162 34.543 1.422 11.773 7.346 26.844 1.172 38.089-2.057 3.744-7.295 4.492-11.074 4.581-5.52 0.13-10.4-2.634-15-5.323-12.15-7.102-22.576-17.461-30.857-28.748-4.209-5.737-7.805-11.959-10.426-18.578-2.883-7.287-4.055-15.183-5.523-22.836-1.328-6.913-3.229-13.481-5.357-20.177-0.67-2.105-1.092-4.253-1.68-6.349 1.54-1.168 2.51-3.103 1.9-5.447zm-252.19 139.79c-1.895-4.953-1.926-10.734-2.598-15.95-0.826-6.429-1.643-12.857-2.213-19.315-1.117-12.69-0.936-25.46 2.867-37.716 3.564-11.492 12.244-20.323 20.67-28.493 9.025-8.754 19.191-16.416 30.221-22.463 6.346-3.48 13.355-6.219 20.473-7.592 5.338-1.029 13.775-2.367 18.203 1.635 3.178 2.872 2.01 9.857 1.604 13.516-0.434 3.906-1.076 7.777-1.451 11.68-1.492 0.479-2.768 1.643-3.221 3.604-3.191 13.81 5.059 27.64-1.854 40.778-5.842 11.105-16.99 20.449-26.223 28.717-11.768 10.537-24.59 19.879-37.311 29.214-5.273 3.87-15.598 11.71-19.166 2.38zm348.98 129.61c-2.953 14.248-8.475 27.761-15.414 40.508-5.414 9.945-11.936 19.665-20.613 27.068-8.428 7.188-18.578 11.432-29.189 14.242-7.387 1.956-14.766 3.521-22.305 4.778-7.387 1.232-13.916 2.66-20.557 6.223-11.096 5.949-18.293 17.393-30.23 21.988-12.209 4.699-26.154 0.752-37.656-4.079-6.061-2.546-11.801-5.724-17.932-8.136-6.303-2.479-12.818-4.422-19.359-6.152-12.484-3.301-25.34-5.244-37.658-9.151-22.223-7.05-43.299-20.964-58.453-38.661-16.75-19.561-23.322-43.97-20.113-69.482 0.971-7.725 4.117-14.744 6.09-22.203 2.033-7.689 0.666-16.168-0.402-23.904-2.404-17.415-7.334-34.406-7.703-52.068 2.074-1.138 4.029-2.387 5.781-3.568 13.699-9.23 26.936-19.815 39.309-30.746 10.367-9.157 21.041-19.01 28.361-30.85 3.742-6.054 5.113-12.834 4.879-19.881-0.195-5.84-1.754-11.461-2.027-17.176 0.504-0.277 0.99-0.665 1.438-1.191 3.088-3.633 8.293-5.622 12.391-7.885 5.336-2.947 10.59-5.461 16.35-7.553 13.377-4.856 27.449-7.467 41.65-8.041 15.709-0.635 31.441 0.104 47.061 1.826 12.168 1.342 23.209 4.311 34.568 8.831 0.123 0.049 0.242 0.085 0.363 0.124 0.26 1.25 0.525 2.498 0.766 3.766 2.65 13.979 6.818 26.346 14.738 38.254 7.625 11.463 17.609 21.541 28.713 29.632 7.314 5.33 15.133 10.025 23.953 11.203 0.115 0.442 0.291 0.891 0.547 1.338 5.998 10.489 7.059 23.574 8.943 35.284 2.105 13.076 2.078 26.182 5.51 39.084 3.643 13.691 11.994 24.479 17.986 37.029 5.8 12.19 2.83 26.91 0.21 39.57z"/>
</svg>
