<?xml version="1.0" encoding="UTF-8" standalone="no"?>
<!-- Generator: Adobe Illustrator 16.0.3, SVG Export Plug-In . SVG Version: 6.00 Build 0)  -->
<!DOCTYPE svg  PUBLIC '-//W3C//DTD SVG 1.1//EN'  'http://www.w3.org/Graphics/SVG/1.1/DTD/svg11.dtd'>
<svg id="Layer_1" style="enable-background:new 0 0 512 512" xmlns="http://www.w3.org/2000/svg" xml:space="preserve" height="512px" viewBox="0 0 512 512" width="512px" version="1.1" y="0px" x="0px" xmlns:xlink="http://www.w3.org/1999/xlink">
<style type="text/css">
<![CDATA[
	.st0{fill:#127274;}
	.st1{fill:#14B6B9;}
	.st2{fill:#1E4384;}
	.st3{fill:#513620;}
	.st4{fill:#EF4754;}
	.st5{fill:#EF4823;}
	.st6{fill:#BCBCBC;}
	.st7{fill:#F6851F;}
	.st8{fill:#C56528;}
	.st9{fill:#FCBF95;}
	.st10{fill:#FEBF10;}
	.st11{fill:#3AB37C;}
	.st12{fill:#D6E5E5;}
	.st13{fill:#71C598;}
	.st14{fill:#A37B57;}
	.st15{fill:#74CCCF;}
]]>
</style>
			<path class="st8" d="m372.02 48.828c-4.688-16.446-16.502-30.314-33.414-34.955-16.723-4.588-35.093-2.037-51.259 3.572-16.603 5.762-33.398 15.172-43.542 29.979-9.887 14.432-9.382 33.932 1.845 47.621 12.449 15.178 34.714 17.82 52.026 10.106 8.717-3.884 20.947-11.407 21.635-22.12 0.457-7.106-5.445-12.014-11.718-15.078-1.672 0.762-3.681 0.627-5.436-1.092-0.581-0.645-1.221-1.223-1.919-1.734-6.688-1.955-4.912-12.404 2.1-10.797 0.53 0.121 1.022 0.279 1.498 0.453 7.989 2.496 15.851 6.293 21.114 13.023 15.405 19.695-5.798 40.246-23.638 47.729-18.262 7.658-40.624 6.48-56.51-6.072-14.563-11.508-22.504-32.223-17.974-50.494-0.01-0.105-0.023-0.211-0.023-0.316v-1.17c-0.864-0.234-1.925-0.703-2.458-1.307-0.033-0.038-0.06-0.066-0.091-0.102-0.617 0.127-1.288 0.158-2.015 0.057-8.713-1.223-17.688 1.74-25.552 5.254-9.864 4.41-19.081 10.281-27.737 16.722-16.609 12.358-32.418 26.899-43.178 44.774-13.464 22.37-20.667 48.574-17.897 74.748 1.224 11.562 2.898 23.914 11.672 32.363 5.707 5.497 12.425 9.516 19.486 12.916-5.004-13.473-8.108-27.554-6.646-41.732 0.468-4.535 5.088-5.26 8.142-3.346 2.667-1.997 6.002-3.645 7.716-4.797 1.216-0.816 2.438-1.629 3.621-2.493 1.594-1.166 1.186-0.752 2.08-1.954 2.48-3.335 4.562-6.909 6.61-10.52 3.743-6.6 7.513-13.803 13.659-18.512 7.21-5.525 15.193-5.32 23.82-4.426 11.299 1.172 22.317 3.945 33.568 5.404 11.53 1.496 22.39 0.354 33.794-1.504 21.123-3.439 42.611-7.699 62.179-16.678 9.738-4.469 18.514-9.922 25.547-18.084 0.946-1.098 1.852-2.229 2.736-3.371 0.011-0.24 0.01-0.479 0.023-0.719 0.152-2.576 1.688-3.917 3.553-4.248 3.067-4.621 5.681-9.535 7.816-14.684 6.7-16.159 9.64-35.342 4.77-52.422z"/>
			<path class="st9" d="m152.39 272c-2.48-4.784-4.975-9.721-7.326-14.778-5.083 0.108-12.032 0.679-15.715 4.522-4.298 4.485-1.573 9.194 1.008 13.902 5.08 9.265 18.123 7.967 27.079 5.66-1.73-3.05-3.41-6.15-5.04-9.3z"/>
			<path class="st8" d="m434.44 137.01c-4.057-28.066-22.102-54.316-49.401-63.248-1.032 14.262-5.262 28.44-11.757 40.41-1.988 3.664-4.195 7.252-6.626 10.682 0.263 9.795 5.075 20.237 10.437 27.986 5.531 7.991 13.688 16.531 24.266 15.402 2.006-0.214 3.506 0.517 4.469 1.689 2.346 0.216 4.426 1.791 4.434 4.875 0.026 10.814 0.523 21.94 0.833 33.139 23.29-12.78 26.74-47.45 23.35-70.93z"/>
			<path class="st9" d="m431 231.81c-1.174-8.566-12.116-12.688-19.682-12.11 0.066 7.88-0.079 15.753-0.659 23.541 4.366 0.058 9.483 0.761 13.647-0.713s7.31-6.18 6.69-10.72z"/>
			<path class="st9" d="m399.32 179.36c-13.187-0.021-24.32-9.796-31.344-20.37-4.68-7.046-8.514-14.961-10.561-23.251-0.146 0.142-0.283 0.291-0.43 0.431-8.312 7.912-18.17 13.451-28.729 17.863-12.75 5.328-26.063 8.962-39.562 11.826-13.215 2.806-27.235 6.082-40.773 6.486-14.113 0.423-27.602-2.799-41.435-5.012-10.646-1.703-22.048-4.756-29.442 4.955-5.812 7.631-8.877 18.276-15.939 24.871-2.733 2.553-5.994 4.531-9.101 6.587-1.089 0.722-2.18 1.441-3.262 2.173-0.495 1.269-1.5 2.371-3.126 2.997-0.808 0.311-1.74 0.658-2.672 0.806 0.252 13.059 4.971 26.219 9.988 37.982 5.885 13.795 12.842 27.572 20.991 40.187 16.56 25.63 42.099 45.312 71.493 53.933 39.602 11.613 86.838 2.894 118.54-23.92 15.823-13.381 27.486-31.627 32.141-51.891 6.52-28.47 3.53-57.77 3.21-86.67zm-166.14 23.91c-1.94 6.078-11.09 4.939-11.075-0.414-0.525-0.243-0.962-0.373-1.719-0.553-3.058-0.726-6.142-1.023-9.279-0.758-5.685 0.482-12.638 2.396-12.338 9.252 0.31 7.084-10.661 7.932-10.971 0.846-0.588-13.447 10.989-20.645 23.284-21.117 6.57-0.25 25.69 1.54 22.11 12.74zm75 69c-1.034 16.729-13.934 30.017-30.561 31.929-13.865 1.595-28.525-5.372-29.82-20.556-0.604-7.082 10.369-7.902 10.971-0.846 0.824 9.675 11.679 11.753 19.677 10.17 11.417-2.26 18.239-11.527 18.937-22.795 0.43-7.05 11.22-4.86 10.79 2.11zm35.61-77.12c-0.199-5.378-9.137-4.723-13.483-3.67-5.298 1.283-13.754 4.004-14.631 10.295-0.98 7.033-11.773 4.898-10.797-2.1 2.796-20.054 48.957-30.26 49.882-5.373 0.26 7.07-10.7 7.93-10.97 0.84z"/>
			<path class="st9" d="m365.81 353.17c-3.686-5.092-6.777-10.563-9.484-16.305-9.539 5.951-19.897 10.652-30.708 13.979-31.538 9.703-65.19 8.872-95.237-2.863 0.91 5.132 0.875 10.296-0.297 15.201 0.271 0.275 0.526 0.592 0.762 0.955 17.406 26.816 53.592 30.554 82.736 27.523 11.451-1.191 23.449-4.73 33.56-10.26 9.201-5.031 19.45-12.494 17.651-24.266-0.25-1.68 0.19-3.01 1.02-3.96z"/>
			<path class="st11" d="m442.03 403.93c-1.364-7.716-8.917-12.5-15.435-15.631-8.178-3.93-16.854-6.522-25.399-9.5-9.204-3.206-18.083-7.786-25.37-14.322-3.543 24.143-40.134 35.95-60.641 38.083-31.76 3.304-69.734-1.274-90.411-28.015-1.037 1.384-2.196 2.721-3.52 3.988-10.472 10.027-25.147 16.213-39.108 19.604-13.506 3.28-41.317 11.27-37.629 30.153 4.184 21.417 28.955 32.116 47.311 38.406 25.507 8.741 52.482 15.156 79.346 17.657 14.437 1.344 29.097 1.568 43.496-0.343 10.887-1.443 21.461-4.266 31.941-7.498 21.352-6.586 42.69-14.867 61.496-27.101 8.773-5.707 17.213-12.181 23.883-20.32 5.54-6.77 11.66-15.93 10.03-25.16zm-136.67 8.8c7.059 0 7.936 10.969 0.846 10.969-7.06 0-7.94-10.97-0.85-10.97zm8.91 36.56c0 1.521-0.32 2.881-1.354 4.055-0.941 1.068-2.287 1.744-3.709 1.854-1.468 0.112-2.949-0.381-4.054-1.354-1.002-0.881-1.854-2.334-1.854-3.709v-1.5c0-1.521 0.32-2.881 1.354-4.055 0.941-1.068 2.287-1.744 3.709-1.854 1.468-0.112 2.949 0.381 4.054 1.354 1.002 0.881 1.854 2.334 1.854 3.709v1.5z"/>
			<path d="m452.06 398.88c-4.794-17.193-26.702-23.466-41.479-28.414-9.547-3.197-18.612-6.848-26.437-13.354-8.445-7.021-14.222-16.613-18.655-26.541 12.39-9.362 22.97-21.044 30.738-34.742 7.446-13.129 11.354-27.271 13.314-41.858 0.509 0.147 1.059 0.235 1.656 0.239 6.789 0.042 13.905 0.586 20.094-2.756 7.006-3.783 10.503-11.662 10.731-19.354 0.298-10.047-7.72-17.391-16.96-20.979 19.356-17.574 23.556-48.711 20.494-73.808-2.019-16.554-8.859-32.769-18.62-46.245-10.332-14.267-24.975-23.955-41.782-28.721-0.992-18.614-7.969-36.393-23.146-48.498-29.179-23.273-73.91-13.084-103.02 4.907-11.207 6.927-21.274 16.354-27.437 27.978-0.046-0.043-0.091-0.092-0.138-0.133-1.104-0.973-2.586-1.466-4.054-1.354-0.587 0.045-1.152 0.208-1.689 0.434-0.404-0.157-0.846-0.279-1.338-0.348-20.49-2.875-40.902 9.234-57.052 20.43-17.44 12.088-33.848 26.811-46.115 44.207-15.612 22.141-24.293 48.386-24.823 75.461-0.245 12.484 1.068 26.96 5.954 38.565 4.482 10.649 13.48 18.228 23.106 24.116 0.883 0.539 1.779 1.055 2.682 1.561-2.258 1.064-4.372 2.414-6.249 4.118-6.581 5.976-7.051 14.741-3.64 22.548 3.813 8.727 9.845 14.479 19.168 16.681 8.038 1.897 16.904 0.55 24.74-1.607 0.409-0.112 0.778-0.257 1.113-0.427 9.065 14.297 19.742 27.205 33.525 37.916 6.49 5.043 13.343 9.398 20.463 13.1 3.551 8.746 4.733 18.06-1.355 26.072-5.74 7.554-15.074 11.865-23.68 15.215-17.807 6.93-37.958 8.828-51.693 23.603-15.256 16.409-3.434 39.378 11.234 51.393 17.579 14.399 40.926 20.634 62.422 26.493 27.952 7.618 57.027 12.396 86.065 11.441 23.18-0.762 45.661-7.229 67.324-15.131 21.019-7.67 41.969-17.544 59.398-31.754 14.37-11.68 30.75-30.52 25.18-50.46zm-86.25-45.71c-0.832 0.947-1.276 2.273-1.018 3.965 1.799 11.771-8.45 19.234-17.651 24.266-10.11 5.529-22.108 9.068-33.56 10.26-29.145 3.03-65.33-0.707-82.736-27.523-0.235-0.363-0.491-0.68-0.762-0.955 1.172-4.905 1.207-10.069 0.297-15.201 30.047 11.735 63.699 12.566 95.237 2.863 10.811-3.326 21.169-8.027 30.708-13.979 2.71 5.73 5.8 11.2 9.48 16.29zm65.19-121.36c0.621 4.541-2.529 9.244-6.693 10.718s-9.281 0.771-13.647 0.713c0.58-7.788 0.726-15.661 0.659-23.541 7.56-0.58 18.5 3.54 19.68 12.11zm3.44-94.8c3.395 23.487-0.059 58.15-23.347 70.936-0.31-11.198-0.807-22.324-0.833-33.139-0.008-3.084-2.088-4.659-4.434-4.875-0.963-1.173-2.463-1.903-4.469-1.689-10.578 1.129-18.734-7.411-24.266-15.402-5.361-7.749-10.174-18.191-10.437-27.986 2.431-3.43 4.638-7.018 6.626-10.682 6.495-11.97 10.725-26.148 11.757-40.41 27.3 8.919 45.34 35.17 49.4 63.24zm-314.89 92.98c-8.773-8.449-10.448-20.801-11.672-32.363-2.77-26.174 4.434-52.378 17.897-74.748 10.76-17.875 26.568-32.416 43.178-44.774 8.656-6.44 17.873-12.312 27.737-16.722 7.863-3.514 16.839-6.477 25.552-5.254 0.727 0.102 1.397 0.07 2.015-0.057 0.031 0.035 0.058 0.063 0.091 0.102 0.533 0.604 1.594 1.072 2.458 1.307v1.172c0 0.105 0.014 0.211 0.023 0.316-4.53 18.271 3.41 38.986 17.974 50.494 15.886 12.553 38.248 13.73 56.51 6.072 17.84-7.482 39.043-28.033 23.638-47.729-5.264-6.73-13.125-10.527-21.114-13.023-0.476-0.174-0.968-0.332-1.498-0.453-7.012-1.607-8.787 8.842-2.1 10.797 0.698 0.512 1.338 1.09 1.919 1.734 1.755 1.719 3.764 1.854 5.436 1.092 6.272 3.064 12.175 7.972 11.718 15.078-0.688 10.713-12.918 18.236-21.635 22.12-17.312 7.714-39.577 5.071-52.026-10.106-11.227-13.689-11.731-33.189-1.845-47.621 10.144-14.807 26.939-24.217 43.542-29.979 16.166-5.609 34.536-8.16 51.259-3.572 16.912 4.641 28.726 18.509 33.414 34.955 4.87 17.08 1.935 36.263-4.764 52.416-2.136 5.148-4.749 10.062-7.816 14.684-1.865 0.331-3.4 1.672-3.553 4.248-0.014 0.24-0.013 0.479-0.023 0.719-0.885 1.143-1.79 2.273-2.736 3.371-7.033 8.162-15.809 13.615-25.547 18.084-19.567 8.979-41.056 13.238-62.179 16.678-11.404 1.857-22.264 3-33.794 1.504-11.251-1.459-22.27-4.232-33.568-5.404-8.627-0.895-16.61-1.1-23.82 4.426-6.146 4.709-9.916 11.912-13.659 18.512-2.048 3.61-4.13 7.185-6.61 10.52-0.895 1.202-0.486 0.788-2.08 1.954-1.183 0.864-2.405 1.677-3.621 2.493-1.714 1.152-5.049 2.8-7.716 4.797-3.054-1.914-7.674-1.189-8.142 3.346-1.463 14.179 1.642 28.26 6.646 41.732-7.06-3.39-13.77-7.41-19.48-12.91zm10.8 45.65c-2.581-4.708-5.306-9.417-1.008-13.902 3.683-3.844 10.632-4.414 15.715-4.522 2.352 5.058 4.846 9.994 7.326 14.778 1.634 3.15 3.315 6.252 5.046 9.307-8.96 2.3-22 3.6-27.09-5.67zm43.57 12.25c-8.149-12.614-15.106-26.392-20.991-40.187-5.018-11.764-9.736-24.924-9.988-37.982 0.932-0.147 1.864-0.495 2.672-0.806 1.626-0.626 2.631-1.729 3.126-2.997 1.082-0.731 2.173-1.451 3.262-2.173 3.106-2.056 6.367-4.034 9.101-6.587 7.062-6.595 10.128-17.24 15.939-24.871 7.395-9.711 18.797-6.658 29.442-4.955 13.833 2.213 27.321 5.435 41.435 5.012 13.538-0.404 27.559-3.681 40.773-6.486 13.498-2.864 26.812-6.498 39.562-11.826 10.56-4.412 20.417-9.951 28.729-17.863 0.146-0.14 0.284-0.289 0.43-0.431 2.047 8.29 5.881 16.205 10.561 23.251 7.023 10.574 18.157 20.35 31.344 20.37 0.322 28.903 3.316 58.206-3.219 86.653-4.654 20.264-16.317 38.51-32.141 51.891-31.705 26.813-78.941 35.533-118.54 23.92-29.39-8.6-54.93-28.28-71.49-53.91zm258.07 141.2c-6.67 8.14-15.109 14.613-23.883 20.32-18.806 12.233-40.145 20.515-61.496 27.101-10.48 3.232-21.055 6.055-31.941 7.498-14.399 1.911-29.06 1.687-43.496 0.343-26.863-2.501-53.839-8.916-79.346-17.657-18.355-6.29-43.127-16.989-47.311-38.406-3.688-18.884 24.123-26.873 37.629-30.153 13.961-3.392 28.637-9.577 39.108-19.604 1.323-1.268 2.482-2.604 3.52-3.988 20.677 26.74 58.651 31.318 90.411 28.015 20.507-2.133 57.098-13.94 60.641-38.083 7.287 6.536 16.166 11.116 25.37 14.322 8.546 2.978 17.222 5.57 25.399 9.5 6.518 3.131 14.07 7.915 15.435 15.631 1.64 9.23-4.48 18.39-10.03 25.16z"/>
			<path d="m211.08 190.53c-12.295 0.473-23.872 7.67-23.284 21.117 0.31 7.086 11.28 6.238 10.971-0.846-0.3-6.855 6.653-8.77 12.338-9.252 3.138-0.266 6.222 0.032 9.279 0.758 0.757 0.18 1.193 0.31 1.719 0.553-0.015 5.354 9.135 6.492 11.075 0.414 3.58-11.2-15.54-12.99-22.1-12.74z"/>
			<path d="m304.88 199.67c-0.977 6.998 9.816 9.133 10.797 2.1 0.877-6.291 9.333-9.012 14.631-10.295 4.347-1.053 13.284-1.708 13.483 3.67 0.264 7.087 11.233 6.234 10.971-0.848-0.92-24.89-47.08-14.68-49.88 5.37z"/>
			<path d="m297.38 270.17c-0.697 11.268-7.52 20.535-18.937 22.795-7.998 1.583-18.853-0.495-19.677-10.17-0.602-7.057-11.574-6.236-10.971 0.846 1.295 15.184 15.955 22.15 29.82 20.556 16.627-1.912 29.526-15.2 30.561-31.929 0.44-6.97-10.35-9.16-10.79-2.1z"/>
			<path d="m305.36 412.73c-7.09 0-6.213 10.969 0.846 10.969 7.09 0 6.21-10.97-0.85-10.97z"/>
			<path d="m312.42 444.08c-1.104-0.973-2.586-1.466-4.054-1.354-1.422 0.109-2.768 0.785-3.709 1.854-1.033 1.174-1.354 2.533-1.354 4.055v1.5c0 1.375 0.853 2.828 1.854 3.709 1.104 0.973 2.586 1.466 4.054 1.354 1.422-0.109 2.768-0.785 3.709-1.854 1.033-1.174 1.354-2.533 1.354-4.055v-1.5c0-1.39-0.85-2.84-1.85-3.72z"/>
</svg>
